<svg width="21" height="22" viewBox="0 0 21 22" fill="none" xmlns="http://www.w3.org/2000/svg">
<path fill-rule="evenodd" clip-rule="evenodd" d="M5.21653 14.9265C5.05653 14.9265 4.89553 14.8755 4.75953 14.7715C4.43153 14.5185 4.36953 14.0475 4.62253 13.7195L7.61553 9.82945C7.73753 9.67045 7.91853 9.56745 8.11653 9.54245C8.31853 9.51645 8.51653 9.57245 8.67353 9.69745L11.4935 11.9125L13.9605 8.72945C14.2145 8.40045 14.6845 8.33945 15.0125 8.59545C15.3405 8.84945 15.4005 9.32045 15.1465 9.64745L12.2165 13.4275C12.0945 13.5855 11.9145 13.6885 11.7165 13.7125C11.5165 13.7395 11.3185 13.6815 11.1605 13.5585L8.34253 11.3445L5.81153 14.6335C5.66353 14.8255 5.44153 14.9265 5.21653 14.9265" fill="#111111"/>
<mask id="mask0_30020_3011" style="mask-type:luminance" maskUnits="userSpaceOnUse" x="15" y="0" width="6" height="7">
<path fill-rule="evenodd" clip-rule="evenodd" d="M15.2949 0.923828H20.6389V6.26873H15.2949V0.923828Z" fill="white"/>
</mask>
<g mask="url(#mask0_30020_3011)">
<path fill-rule="evenodd" clip-rule="evenodd" d="M17.9669 2.42383C17.3209 2.42383 16.7949 2.94883 16.7949 3.59583C16.7949 4.24183 17.3209 4.76883 17.9669 4.76883C18.6129 4.76883 19.1389 4.24183 19.1389 3.59583C19.1389 2.94883 18.6129 2.42383 17.9669 2.42383M17.9669 6.26883C16.4939 6.26883 15.2949 5.06983 15.2949 3.59583C15.2949 2.12183 16.4939 0.923828 17.9669 0.923828C19.4409 0.923828 20.6389 2.12183 20.6389 3.59583C20.6389 5.06983 19.4409 6.26883 17.9669 6.26883" fill="#111111"/>
</g>
<mask id="mask1_30020_3011" style="mask-type:luminance" maskUnits="userSpaceOnUse" x="0" y="1" width="20" height="21">
<path fill-rule="evenodd" clip-rule="evenodd" d="M0 1.76562H19.8619V21.6266H0V1.76562Z" fill="white"/>
</mask>
<g mask="url(#mask1_30020_3011)">
<path fill-rule="evenodd" clip-rule="evenodd" d="M14.233 21.6266H5.629C2.262 21.6266 0 19.2616 0 15.7416V7.65963C0 4.13462 2.262 1.76562 5.629 1.76562H12.897C13.311 1.76562 13.647 2.10162 13.647 2.51562C13.647 2.92963 13.311 3.26562 12.897 3.26562H5.629C3.121 3.26562 1.5 4.98962 1.5 7.65963V15.7416C1.5 18.4466 3.082 20.1266 5.629 20.1266H14.233C16.741 20.1266 18.362 18.4056 18.362 15.7416V8.70262C18.362 8.28862 18.698 7.95262 19.112 7.95262C19.526 7.95262 19.862 8.28862 19.862 8.70262V15.7416C19.862 19.2616 17.6 21.6266 14.233 21.6266" fill="#111111"/>
</g>
</svg>
