<svg width="40" height="40" viewBox="0 0 40 40" fill="none" xmlns="http://www.w3.org/2000/svg">
<circle cx="20" cy="20" r="19.5" fill="#FEFEFE" stroke="#E3E7EC"/>
<path d="M28 20.2744C28 20.6541 27.7178 20.9678 27.3518 21.0175L27.25 21.0244L14.066 21.0238L18.829 25.7673C19.1225 26.0595 19.1235 26.5344 18.8313 26.8279C18.5656 27.0948 18.149 27.1199 17.8549 26.9027L17.7706 26.8302L11.7206 20.8062C11.6819 20.7677 11.6483 20.726 11.6198 20.682C11.6117 20.6687 11.6035 20.6552 11.5958 20.6413C11.5886 20.6295 11.5822 20.6172 11.5761 20.6047C11.5676 20.5866 11.5593 20.5679 11.5518 20.5488C11.5457 20.5341 11.5406 20.5198 11.536 20.5053C11.5304 20.4875 11.5251 20.4684 11.5204 20.449C11.517 20.4355 11.5143 20.4225 11.5119 20.4094C11.5086 20.39 11.5057 20.3699 11.5037 20.3496C11.502 20.334 11.5009 20.3187 11.5003 20.3033C11.5002 20.2939 11.5 20.2842 11.5 20.2744L11.5004 20.2453C11.5009 20.2306 11.502 20.2159 11.5034 20.2012L11.5 20.2744C11.5 20.227 11.5044 20.1807 11.5128 20.1358C11.5147 20.1251 11.517 20.1141 11.5196 20.1031C11.5249 20.0806 11.5311 20.0588 11.5382 20.0375C11.5416 20.0269 11.5457 20.0156 11.55 20.0044C11.5588 19.9818 11.5683 19.9603 11.5788 19.9393C11.5837 19.9295 11.5891 19.9192 11.5948 19.9089C11.6042 19.8923 11.6139 19.8765 11.6241 19.861C11.6313 19.8501 11.6393 19.8387 11.6476 19.8276L11.6541 19.8189C11.6743 19.7925 11.6962 19.7675 11.7197 19.744L11.7206 19.7433L17.7706 13.7183C18.0641 13.426 18.5389 13.427 18.8312 13.7205C19.0969 13.9873 19.1203 14.4041 18.9018 14.6972L18.829 14.7812L14.068 19.5238L27.25 19.5244C27.6642 19.5244 28 19.8601 28 20.2744Z" fill="#111111"/>
</svg>
