<svg width="18" height="16" viewBox="0 0 18 16" fill="none" xmlns="http://www.w3.org/2000/svg">
<path d="M16 0H2C0.89 0 0 0.9 0 2V14C0 15.1 0.89 16 2 16H16C17.1 16 18 15.1 18 14V2C18 0.9 17.1 0 16 0ZM8 6.5C8 6.78 7.78 7 7.5 7H7C6.72 7 6.5 6.78 6.5 6.5H4.5V9.5H6.5C6.5 9.22 6.72 9 7 9H7.5C7.78 9 8 9.22 8 9.5V10C8 10.55 7.55 11 7 11H4C3.45 11 3 10.55 3 10V6C3 5.45 3.45 5 4 5H7C7.55 5 8 5.45 8 6V6.5ZM15 6.5C15 6.78 14.78 7 14.5 7H14C13.72 7 13.5 6.78 13.5 6.5H11.5V9.5H13.5C13.5 9.22 13.72 9 14 9H14.5C14.78 9 15 9.22 15 9.5V10C15 10.55 14.55 11 14 11H11C10.45 11 10 10.55 10 10V6C10 5.45 10.45 5 11 5H14C14.55 5 15 5.45 15 6V6.5Z" fill="#526EA0"/>
</svg>
