<svg width="21" height="21" viewBox="0 0 21 21" fill="none" xmlns="http://www.w3.org/2000/svg">
<path d="M10.6353 0.394531C5.12525 0.394531 0.635254 4.88453 0.635254 10.3945C0.635254 15.9045 5.12525 20.3945 10.6353 20.3945C16.1453 20.3945 20.6353 15.9045 20.6353 10.3945C20.6353 4.88453 16.1453 0.394531 10.6353 0.394531ZM15.4153 8.09453L9.74525 13.7645C9.60463 13.905 9.414 13.9839 9.21525 13.9839C9.0165 13.9839 8.82588 13.905 8.68525 13.7645L5.85525 10.9345C5.71577 10.7934 5.63755 10.603 5.63755 10.4045C5.63755 10.2061 5.71577 10.0157 5.85525 9.87453C6.14525 9.58453 6.62525 9.58453 6.91525 9.87453L9.21525 12.1745L14.3553 7.03453C14.6453 6.74453 15.1253 6.74453 15.4153 7.03453C15.7053 7.32453 15.7053 7.79453 15.4153 8.09453Z" fill="#FEF9F8"/>
</svg>
