<svg width="18" height="18" viewBox="0 0 18 18" fill="none" xmlns="http://www.w3.org/2000/svg">
<path d="M8.99935 17.0416C8.74102 17.0416 8.49102 17.0083 8.28268 16.9333C5.09935 15.8416 0.0410156 11.9666 0.0410156 6.24158C0.0410156 3.32492 2.39935 0.958252 5.29935 0.958252C6.70768 0.958252 8.02435 1.50825 8.99935 2.49159C9.97435 1.50825 11.291 0.958252 12.6993 0.958252C15.5993 0.958252 17.9577 3.33325 17.9577 6.24158C17.9577 11.9749 12.8993 15.8416 9.71602 16.9333C9.50768 17.0083 9.25768 17.0416 8.99935 17.0416ZM5.29935 2.20825C3.09102 2.20825 1.29102 4.01658 1.29102 6.24158C1.29102 11.9333 6.76602 15.0999 8.69102 15.7583C8.84102 15.8083 9.16602 15.8083 9.31602 15.7583C11.2327 15.0999 16.716 11.9416 16.716 6.24158C16.716 4.01658 14.916 2.20825 12.7077 2.20825C11.441 2.20825 10.266 2.79992 9.50768 3.82492C9.27435 4.14159 8.74102 4.14159 8.50768 3.82492C7.73268 2.79159 6.56602 2.20825 5.29935 2.20825Z" fill="#1C1C1E"/>
</svg>
