<svg width="18" height="18" viewBox="0 0 18 18" fill="none" xmlns="http://www.w3.org/2000/svg">
<g id="bx-message-square-dots 1">
<path id="Vector" d="M11.7393 1.46753H5.8693C3.44132 1.46753 1.4668 3.44205 1.4668 5.87003V14.675C1.4668 14.8696 1.5441 15.0563 1.68171 15.1939C1.81931 15.3315 2.00594 15.4088 2.20055 15.4088H11.7393C14.1673 15.4088 16.1418 13.4343 16.1418 11.0063V5.87003C16.1418 3.44205 14.1673 1.46753 11.7393 1.46753ZM14.6743 11.0063C14.6743 12.6249 13.3579 13.9413 11.7393 13.9413H2.9343V5.87003C2.9343 4.25138 4.25064 2.93503 5.8693 2.93503H11.7393C13.3579 2.93503 14.6743 4.25138 14.6743 5.87003V11.0063Z" fill="#FEFEFE"/>
<path id="Vector_2" d="M6.96977 9.53877C7.57762 9.53877 8.07039 9.04601 8.07039 8.43815C8.07039 7.83029 7.57762 7.33752 6.96977 7.33752C6.36191 7.33752 5.86914 7.83029 5.86914 8.43815C5.86914 9.04601 6.36191 9.53877 6.96977 9.53877Z" fill="#FEFEFE"/>
<path id="Vector_3" d="M10.6397 9.53877C11.2475 9.53877 11.7403 9.04601 11.7403 8.43815C11.7403 7.83029 11.2475 7.33752 10.6397 7.33752C10.0318 7.33752 9.53906 7.83029 9.53906 8.43815C9.53906 9.04601 10.0318 9.53877 10.6397 9.53877Z" fill="#FEFEFE"/>
</g>
</svg>
