<svg width="20" height="20" viewBox="0 0 20 20" fill="none" xmlns="http://www.w3.org/2000/svg">
<path d="M9.99935 19.0084C9.42435 19.0084 8.88268 18.7167 8.49935 18.2084L7.24935 16.5417C7.22435 16.5084 7.12435 16.4667 7.08268 16.4584H6.66602C3.19102 16.4584 1.04102 15.5167 1.04102 10.8334V6.66675C1.04102 2.98341 2.98268 1.04175 6.66602 1.04175H13.3327C17.016 1.04175 18.9577 2.98341 18.9577 6.66675V10.8334C18.9577 14.5167 17.016 16.4584 13.3327 16.4584H12.916C12.8493 16.4584 12.791 16.4917 12.7493 16.5417L11.4993 18.2084C11.116 18.7167 10.5743 19.0084 9.99935 19.0084ZM6.66602 2.29175C3.68268 2.29175 2.29102 3.68341 2.29102 6.66675V10.8334C2.29102 14.6001 3.58268 15.2084 6.66602 15.2084H7.08268C7.50768 15.2084 7.99101 15.4501 8.24935 15.7917L9.49935 17.4584C9.79101 17.8417 10.2077 17.8417 10.4993 17.4584L11.7493 15.7917C12.0243 15.4251 12.4577 15.2084 12.916 15.2084H13.3327C16.316 15.2084 17.7077 13.8167 17.7077 10.8334V6.66675C17.7077 3.68341 16.316 2.29175 13.3327 2.29175H6.66602Z" fill="#1C1C1E"/>
<path d="M9.99935 9.99992C9.53268 9.99992 9.16602 9.62492 9.16602 9.16659C9.16602 8.70825 9.54102 8.33325 9.99935 8.33325C10.4577 8.33325 10.8327 8.70825 10.8327 9.16659C10.8327 9.62492 10.466 9.99992 9.99935 9.99992Z" fill="#1C1C1E"/>
<path d="M13.3333 9.99992C12.8667 9.99992 12.5 9.62492 12.5 9.16659C12.5 8.70825 12.875 8.33325 13.3333 8.33325C13.7917 8.33325 14.1667 8.70825 14.1667 9.16659C14.1667 9.62492 13.8 9.99992 13.3333 9.99992Z" fill="#1C1C1E"/>
<path d="M6.66732 9.99992C6.20065 9.99992 5.83398 9.62492 5.83398 9.16659C5.83398 8.70825 6.20898 8.33325 6.66732 8.33325C7.12565 8.33325 7.50065 8.70825 7.50065 9.16659C7.50065 9.62492 7.13398 9.99992 6.66732 9.99992Z" fill="#1C1C1E"/>
</svg>
