<svg width="24" height="24" viewBox="0 0 24 24" fill="none" xmlns="http://www.w3.org/2000/svg">
<path fill-rule="evenodd" clip-rule="evenodd" d="M12.361 2C18.074 2 22.722 6.648 22.722 12.361C22.722 18.074 18.074 22.722 12.361 22.722C6.648 22.722 2 18.074 2 12.361C2 6.648 6.648 2 12.361 2ZM12.361 3.5C7.475 3.5 3.5 7.476 3.5 12.361C3.5 17.247 7.475 21.222 12.361 21.222C17.247 21.222 21.222 17.247 21.222 12.361C21.222 7.476 17.247 3.5 12.361 3.5ZM16.2326 8.4899C16.4296 8.6879 16.5016 8.9789 16.4176 9.2439L14.8256 14.3329C14.7526 14.5679 14.5676 14.7519 14.3336 14.8249L9.2446 16.4179C9.1706 16.4409 9.0946 16.4519 9.0206 16.4519C8.8246 16.4519 8.6326 16.3749 8.4896 16.2329C8.2926 16.0349 8.2206 15.7439 8.3046 15.4789L9.8976 10.3899C9.9706 10.1539 10.1546 9.9709 10.3886 9.8979L15.4776 8.3049C15.7446 8.2199 16.0346 8.2929 16.2326 8.4899ZM14.5586 10.1639L11.2116 11.2119L10.1646 14.5589L13.5106 13.5109L14.5586 10.1639Z" fill="#BFC6CC"/>
</svg>
