<svg width="90" height="90" viewBox="0 0 90 90" fill="none" xmlns="http://www.w3.org/2000/svg">
<circle cx="45" cy="45" r="45" fill="#ED1D10" fill-opacity="0.19"/>
<path d="M61.1819 39.1095C57.5637 39.1095 56.0845 36.3973 57.8836 33.0706C58.923 31.1425 58.3033 28.6845 56.4843 27.5827L53.026 25.485C51.4468 24.4891 49.4078 25.0824 48.4683 26.7564L48.2484 27.1589C46.4493 30.4856 43.4908 30.4856 41.6717 27.1589L41.4518 26.7564C41.2363 26.3558 40.9478 26.0048 40.6031 25.7235C40.2584 25.4423 39.8644 25.2365 39.444 25.1182C39.0236 24.9999 38.5852 24.9714 38.1543 25.0344C37.7233 25.0974 37.3086 25.2505 36.934 25.485L33.4758 27.5827C31.6567 28.6845 31.037 31.1636 32.0765 33.0918C33.8956 36.3973 32.4163 39.1095 28.7981 39.1095C26.7191 39.1095 25 40.9105 25 43.1354V46.8646C25 49.0683 26.6992 50.8905 28.7981 50.8905C32.4163 50.8905 33.8956 53.6027 32.0765 56.9294C31.037 58.8575 31.6567 61.3155 33.4758 62.4173L36.934 64.515C38.5132 65.5109 40.5522 64.9176 41.4918 63.2436L41.7116 62.8411C43.5107 59.5144 46.4693 59.5144 48.2884 62.8411L48.5082 63.2436C49.4478 64.9176 51.4868 65.5109 53.066 64.515L56.5242 62.4173C58.3433 61.3155 58.963 58.8364 57.9235 56.9294C56.1044 53.6027 57.5837 50.8905 61.2019 50.8905C63.2809 50.8905 65 49.0895 65 46.8646V43.1354C64.9895 42.0674 64.5833 41.0467 63.8689 40.2935C63.1546 39.5402 62.1895 39.115 61.1819 39.1095ZM44.99 51.8864C41.4118 51.8864 38.4933 48.7928 38.4933 45C38.4933 41.2072 41.4118 38.1136 44.99 38.1136C48.5682 38.1136 51.4868 41.2072 51.4868 45C51.4868 48.7928 48.5682 51.8864 44.99 51.8864Z" fill="#E61515" fill-opacity="0.32"/>
</svg>
