<svg width="16" height="16" viewBox="0 0 16 16" fill="none" xmlns="http://www.w3.org/2000/svg">
<path d="M14.2003 5.05333H10.4803C10.2203 5.05333 10.0137 4.84666 10.0137 4.58666C10.0137 4.32666 10.2203 4.12 10.4803 4.12H14.2003C14.4603 4.12 14.667 4.32666 14.667 4.58666C14.667 4.84666 14.4603 5.05333 14.2003 5.05333Z" fill="#111111"/>
<path d="M4.28065 5.05333H1.80065C1.54065 5.05333 1.33398 4.84666 1.33398 4.58666C1.33398 4.32666 1.54065 4.12 1.80065 4.12H4.28065C4.54065 4.12 4.74732 4.32666 4.74732 4.58666C4.74732 4.84666 4.53398 5.05333 4.28065 5.05333Z" fill="#111111"/>
<path d="M6.76029 7.21997C8.21464 7.21997 9.39362 6.04099 9.39362 4.58664C9.39362 3.13229 8.21464 1.95331 6.76029 1.95331C5.30594 1.95331 4.12695 3.13229 4.12695 4.58664C4.12695 6.04099 5.30594 7.21997 6.76029 7.21997Z" fill="#111111"/>
<path d="M14.2006 11.8733H11.7206C11.4606 11.8733 11.2539 11.6667 11.2539 11.4067C11.2539 11.1467 11.4606 10.94 11.7206 10.94H14.2006C14.4606 10.94 14.6672 11.1467 14.6672 11.4067C14.6672 11.6667 14.4606 11.8733 14.2006 11.8733Z" fill="#111111"/>
<path d="M5.52065 11.8733H1.80065C1.54065 11.8733 1.33398 11.6667 1.33398 11.4067C1.33398 11.1467 1.54065 10.94 1.80065 10.94H5.52065C5.78065 10.94 5.98732 11.1467 5.98732 11.4067C5.98732 11.6667 5.77398 11.8733 5.52065 11.8733Z" fill="#111111"/>
<path d="M9.24076 14.0467C10.6951 14.0467 11.8741 12.8677 11.8741 11.4134C11.8741 9.95901 10.6951 8.78003 9.24076 8.78003C7.78641 8.78003 6.60742 9.95901 6.60742 11.4134C6.60742 12.8677 7.78641 14.0467 9.24076 14.0467Z" fill="#111111"/>
</svg>
