<svg width="27" height="18" viewBox="0 0 27 18" fill="none" xmlns="http://www.w3.org/2000/svg">
<path d="M1 0V18" stroke="#E3E7EC"/>
<path fill-rule="evenodd" clip-rule="evenodd" d="M22.0409 10.281C23.3279 10.281 24.3749 11.3227 24.3749 12.603C24.3749 13.8832 23.3279 14.925 22.0409 14.925C20.7532 14.925 19.7054 13.8832 19.7054 12.603C19.7054 11.3227 20.7532 10.281 22.0409 10.281ZM22.0409 11.406C21.3734 11.406 20.8304 11.943 20.8304 12.603C20.8304 13.2637 21.3734 13.8 22.0409 13.8C22.7077 13.8 23.2499 13.2637 23.2499 12.603C23.2499 11.943 22.7077 11.406 22.0409 11.406ZM16.5602 12.0696C16.8707 12.0696 17.1227 12.3216 17.1227 12.6321C17.1227 12.9426 16.8707 13.1946 16.5602 13.1946H11.8345C11.524 13.1946 11.272 12.9426 11.272 12.6321C11.272 12.3216 11.524 12.0696 11.8345 12.0696H16.5602ZM13.5847 3C14.8725 3 15.9195 4.0425 15.9195 5.32275C15.9195 6.603 14.8725 7.644 13.5847 7.644C12.2977 7.644 11.25 6.603 11.25 5.32275C11.25 4.0425 12.2977 3 13.5847 3ZM13.5847 4.125C12.918 4.125 12.375 4.662 12.375 5.32275C12.375 5.98275 12.918 6.519 13.5847 6.519C14.2522 6.519 14.7945 5.98275 14.7945 5.32275C14.7945 4.662 14.2522 4.125 13.5847 4.125ZM23.3933 4.8003C23.7038 4.8003 23.9558 5.0523 23.9558 5.3628C23.9558 5.6733 23.7038 5.9253 23.3933 5.9253H18.6683C18.3578 5.9253 18.1058 5.6733 18.1058 5.3628C18.1058 5.0523 18.3578 4.8003 18.6683 4.8003H23.3933Z" fill="#111111"/>
</svg>
