<svg width="217" height="125" viewBox="0 0 217 125" fill="none" xmlns="http://www.w3.org/2000/svg">
<g filter="url(#filter0_d_75_1905)">
<rect y="13.4309" width="201.544" height="92.7636" rx="5.33891" fill="white"/>
</g>
<path d="M152.826 81.9469V80.1117L150.379 82.5587L152.826 85.0057V83.1704C154.851 83.1704 156.497 84.8161 156.497 86.8409C156.497 87.4588 156.344 88.0461 156.069 88.5538L156.962 89.447C157.439 88.6946 157.72 87.8014 157.72 86.8409C157.72 84.137 155.53 81.9469 152.826 81.9469ZM152.826 90.5115C150.801 90.5115 149.156 88.8658 149.156 86.8409C149.156 86.2231 149.309 85.6358 149.584 85.128L148.691 84.2349C148.214 84.9873 147.932 85.8805 147.932 86.8409C147.932 89.5449 150.122 91.735 152.826 91.735V93.5702L155.273 91.1232L152.826 88.6762V90.5115Z" fill="#B9B8E2"/>
<rect x="12.0123" y="64.818" width="174.849" height="2.00209" fill="#EEEEF8"/>
<g filter="url(#filter1_d_75_1905)">
<rect x="12.0123" y="64.818" width="60.7301" height="2.00209" fill="#514EB6"/>
<circle cx="72.0752" cy="65.4854" r="3.33682" fill="#514EB6"/>
</g>
<path d="M12.7319 34.1089V27.1483H13.8344V33.1279H16.8428V34.1089H12.7319ZM19.1792 34.221C18.8366 34.221 18.5345 34.1618 18.2729 34.0435C18.0175 33.9189 17.8182 33.7507 17.675 33.539C17.5317 33.321 17.4601 33.0656 17.4601 32.7728C17.4601 32.4988 17.5192 32.2527 17.6376 32.0347C17.7622 31.8167 17.9521 31.633 18.2075 31.4835C18.4629 31.334 18.7837 31.2281 19.1698 31.1658L20.9263 30.8762V31.7077L19.3754 31.9787C19.0951 32.0285 18.8896 32.1188 18.7588 32.2496C18.6279 32.3742 18.5625 32.5361 18.5625 32.7355C18.5625 32.9285 18.6342 33.0874 18.7774 33.2119C18.9269 33.3303 19.1169 33.3895 19.3474 33.3895C19.6339 33.3895 19.883 33.3272 20.0948 33.2026C20.3128 33.078 20.481 32.913 20.5993 32.7074C20.7177 32.4956 20.7769 32.2621 20.7769 32.0067V30.708C20.7769 30.4589 20.6834 30.2564 20.4966 30.1007C20.3159 29.9388 20.073 29.8578 19.7678 29.8578C19.4875 29.8578 19.2415 29.9325 19.0297 30.082C18.8242 30.2253 18.6715 30.4121 18.5719 30.6426L17.6936 30.2035C17.7871 29.9543 17.9397 29.7363 18.1514 29.5495C18.3632 29.3564 18.6093 29.2069 18.8896 29.101C19.1761 28.9951 19.4782 28.9422 19.7958 28.9422C20.1945 28.9422 20.5464 29.0169 20.8516 29.1664C21.163 29.3159 21.4028 29.5245 21.571 29.7924C21.7454 30.054 21.8326 30.3592 21.8326 30.708V34.1089H20.8236V33.1933L21.0385 33.2213C20.9201 33.4268 20.7675 33.6044 20.5807 33.7538C20.4 33.9033 20.1914 34.0186 19.9547 34.0995C19.7242 34.1805 19.4657 34.221 19.1792 34.221ZM25.5056 36.1644C25.1381 36.1644 24.7987 36.1052 24.4872 35.9868C24.1758 35.8685 23.908 35.7034 23.6837 35.4917C23.4595 35.2861 23.2913 35.0432 23.1792 34.7629L24.1509 34.3612C24.2381 34.5978 24.3969 34.794 24.6274 34.9498C24.8641 35.1055 25.1537 35.1833 25.4963 35.1833C25.7641 35.1833 26.0039 35.1304 26.2157 35.0245C26.4275 34.9249 26.5957 34.7754 26.7202 34.576C26.8448 34.383 26.9071 34.1494 26.9071 33.8753V32.7355L27.094 32.9503C26.9196 33.2742 26.6766 33.5203 26.3652 33.6884C26.06 33.8566 25.7143 33.9407 25.3281 33.9407C24.861 33.9407 24.4405 33.8317 24.0668 33.6137C23.6931 33.3957 23.3972 33.0967 23.1792 32.7168C22.9674 32.3368 22.8615 31.9101 22.8615 31.4368C22.8615 30.9571 22.9674 30.5305 23.1792 30.1568C23.3972 29.783 23.69 29.4872 24.0575 29.2692C24.4249 29.0512 24.8454 28.9422 25.3188 28.9422C25.705 28.9422 26.0475 29.0262 26.3465 29.1944C26.6517 29.3564 26.9009 29.5931 27.094 29.9045L26.9538 30.1661V29.0543H27.9535V33.8753C27.9535 34.3113 27.8476 34.7006 27.6359 35.0432C27.4303 35.392 27.1438 35.6661 26.7763 35.8654C26.4088 36.0647 25.9852 36.1644 25.5056 36.1644ZM25.4496 32.9597C25.7299 32.9597 25.979 32.8943 26.197 32.7635C26.415 32.6264 26.5863 32.4458 26.7109 32.2216C26.8417 31.9911 26.9071 31.7326 26.9071 31.4461C26.9071 31.1596 26.8417 30.9011 26.7109 30.6706C26.5801 30.4402 26.4057 30.2595 26.1877 30.1287C25.9697 29.9917 25.7236 29.9232 25.4496 29.9232C25.1631 29.9232 24.9077 29.9917 24.6834 30.1287C24.4592 30.2595 24.2817 30.4402 24.1509 30.6706C24.0263 30.8949 23.964 31.1534 23.964 31.4461C23.964 31.7264 24.0263 31.9818 24.1509 32.2122C24.2817 32.4427 24.4592 32.6264 24.6834 32.7635C24.9077 32.8943 25.1631 32.9597 25.4496 32.9597ZM31.6279 34.221C31.1421 34.221 30.6967 34.1058 30.2919 33.8753C29.8932 33.6448 29.5755 33.3303 29.3389 32.9317C29.1022 32.533 28.9838 32.0814 28.9838 31.5769C28.9838 31.0662 29.1022 30.6146 29.3389 30.2222C29.5755 29.8235 29.8932 29.5121 30.2919 29.2878C30.6905 29.0574 31.1358 28.9422 31.6279 28.9422C32.1262 28.9422 32.5716 29.0574 32.964 29.2878C33.3626 29.5121 33.6772 29.8235 33.9076 30.2222C34.1443 30.6146 34.2627 31.0662 34.2627 31.5769C34.2627 32.0877 34.1443 32.5424 33.9076 32.941C33.6709 33.3396 33.3533 33.6542 32.9546 33.8847C32.556 34.1089 32.1138 34.221 31.6279 34.221ZM31.6279 33.24C31.9269 33.24 32.1916 33.1683 32.4221 33.0251C32.6525 32.8818 32.8332 32.6856 32.964 32.4365C33.101 32.1811 33.1695 31.8946 33.1695 31.5769C33.1695 31.2592 33.101 30.9758 32.964 30.7267C32.8332 30.4775 32.6525 30.2813 32.4221 30.1381C32.1916 29.9948 31.9269 29.9232 31.6279 29.9232C31.3352 29.9232 31.0704 29.9948 30.8338 30.1381C30.6033 30.2813 30.4195 30.4775 30.2825 30.7267C30.1517 30.9758 30.0863 31.2592 30.0863 31.5769C30.0863 31.8946 30.1517 32.1811 30.2825 32.4365C30.4195 32.6856 30.6033 32.8818 30.8338 33.0251C31.0704 33.1683 31.3352 33.24 31.6279 33.24ZM37.162 34.221C36.645 34.221 36.1903 34.0933 35.7979 33.8379C35.4117 33.5826 35.1408 33.24 34.9851 32.8102L35.7979 32.4271C35.935 32.7137 36.1218 32.941 36.3585 33.1092C36.6014 33.2774 36.8693 33.3614 37.162 33.3614C37.4112 33.3614 37.6136 33.3054 37.7693 33.1933C37.925 33.0811 38.0029 32.9285 38.0029 32.7355C38.0029 32.6109 37.9686 32.5112 37.9001 32.4365C37.8316 32.3555 37.7444 32.2901 37.6385 32.2403C37.5389 32.1904 37.4361 32.1531 37.3302 32.1282L36.536 31.9039C36.1 31.7793 35.773 31.5925 35.555 31.3433C35.3432 31.088 35.2373 30.7921 35.2373 30.4557C35.2373 30.1505 35.3152 29.8858 35.4709 29.6616C35.6266 29.4311 35.8415 29.2536 36.1156 29.129C36.3897 29.0044 36.698 28.9422 37.0406 28.9422C37.5015 28.9422 37.9126 29.0574 38.2738 29.2878C38.6351 29.5121 38.8905 29.8266 39.04 30.2315L38.2271 30.6146C38.1275 30.3716 37.9686 30.1786 37.7506 30.0353C37.5389 29.892 37.2991 29.8204 37.0312 29.8204C36.8008 29.8204 36.617 29.8765 36.48 29.9886C36.3429 30.0945 36.2744 30.2346 36.2744 30.409C36.2744 30.5274 36.3056 30.627 36.3679 30.708C36.4301 30.7827 36.5111 30.845 36.6108 30.8949C36.7104 30.9385 36.8132 30.9758 36.9191 31.007L37.7413 31.2499C38.1586 31.3682 38.4794 31.5551 38.7036 31.8105C38.9279 32.0596 39.04 32.3586 39.04 32.7074C39.04 33.0064 38.959 33.2711 38.7971 33.5016C38.6413 33.7258 38.4233 33.9033 38.143 34.0341C37.8628 34.1587 37.5357 34.221 37.162 34.221ZM41.8104 34.1089V27.1483H44.0901C44.8127 27.1483 45.4387 27.2947 45.9681 27.5874C46.5038 27.8739 46.918 28.2788 47.2107 28.802C47.5035 29.3252 47.6499 29.9325 47.6499 30.6239C47.6499 31.3091 47.5035 31.9164 47.2107 32.4458C46.918 32.969 46.5038 33.377 45.9681 33.6698C45.4387 33.9625 44.8127 34.1089 44.0901 34.1089H41.8104ZM42.9129 33.1279H44.1088C44.6009 33.1279 45.0276 33.0251 45.3888 32.8195C45.7563 32.614 46.0397 32.3244 46.2391 31.9506C46.4384 31.5769 46.538 31.1347 46.538 30.6239C46.538 30.1132 46.4353 29.674 46.2297 29.3065C46.0304 28.9328 45.7501 28.6432 45.3888 28.4376C45.0276 28.2321 44.6009 28.1293 44.1088 28.1293H42.9129V33.1279ZM51.006 34.221C50.5015 34.221 50.053 34.1058 49.6606 33.8753C49.2744 33.6386 48.9723 33.321 48.7543 32.9223C48.5363 32.5174 48.4273 32.0659 48.4273 31.5676C48.4273 31.0568 48.5363 30.6052 48.7543 30.2128C48.9786 29.8204 49.2775 29.5121 49.6513 29.2878C50.025 29.0574 50.4485 28.9422 50.9219 28.9422C51.3019 28.9422 51.6413 29.0076 51.9403 29.1384C52.2393 29.2692 52.4916 29.4498 52.6971 29.6803C52.9027 29.9045 53.0584 30.163 53.1643 30.4557C53.2764 30.7485 53.3324 31.0599 53.3324 31.39C53.3324 31.471 53.3293 31.5551 53.3231 31.6423C53.3169 31.7295 53.3044 31.8105 53.2857 31.8852H49.2588V31.0444H52.6878L52.1832 31.4274C52.2455 31.1222 52.2237 30.8513 52.1178 30.6146C52.0182 30.3716 51.8625 30.1817 51.6507 30.0446C51.4451 29.9014 51.2022 29.8297 50.9219 29.8297C50.6416 29.8297 50.3925 29.9014 50.1745 30.0446C49.9565 30.1817 49.7883 30.381 49.6699 30.6426C49.5516 30.898 49.5049 31.2094 49.5298 31.5769C49.4987 31.9195 49.5454 32.2185 49.6699 32.4738C49.8007 32.7292 49.9814 32.9285 50.2118 33.0718C50.4485 33.2151 50.7164 33.2867 51.0154 33.2867C51.3206 33.2867 51.5791 33.2182 51.7908 33.0811C52.0088 32.9441 52.1801 32.7666 52.3047 32.5486L53.1643 32.969C53.0646 33.2057 52.9089 33.4206 52.6971 33.6137C52.4916 33.8006 52.2424 33.9501 51.9497 34.0622C51.6631 34.1681 51.3486 34.221 51.006 34.221ZM56.2314 34.221C55.7144 34.221 55.2597 34.0933 54.8673 33.8379C54.4812 33.5826 54.2102 33.24 54.0545 32.8102L54.8673 32.4271C55.0044 32.7137 55.1912 32.941 55.4279 33.1092C55.6708 33.2774 55.9387 33.3614 56.2314 33.3614C56.4806 33.3614 56.683 33.3054 56.8387 33.1933C56.9944 33.0811 57.0723 32.9285 57.0723 32.7355C57.0723 32.6109 57.038 32.5112 56.9695 32.4365C56.901 32.3555 56.8138 32.2901 56.7079 32.2403C56.6083 32.1904 56.5055 32.1531 56.3996 32.1282L55.6054 31.9039C55.1694 31.7793 54.8424 31.5925 54.6244 31.3433C54.4126 31.088 54.3067 30.7921 54.3067 30.4557C54.3067 30.1505 54.3846 29.8858 54.5403 29.6616C54.696 29.4311 54.9109 29.2536 55.185 29.129C55.4591 29.0044 55.7674 28.9422 56.11 28.9422C56.5709 28.9422 56.982 29.0574 57.3433 29.2878C57.7045 29.5121 57.9599 29.8266 58.1094 30.2315L57.2965 30.6146C57.1969 30.3716 57.038 30.1786 56.82 30.0353C56.6083 29.892 56.3685 29.8204 56.1006 29.8204C55.8702 29.8204 55.6864 29.8765 55.5494 29.9886C55.4123 30.0945 55.3438 30.2346 55.3438 30.409C55.3438 30.5274 55.375 30.627 55.4373 30.708C55.4996 30.7827 55.5805 30.845 55.6802 30.8949C55.7798 30.9385 55.8826 30.9758 55.9885 31.007L56.8107 31.2499C57.228 31.3682 57.5488 31.5551 57.773 31.8105C57.9973 32.0596 58.1094 32.3586 58.1094 32.7074C58.1094 33.0064 58.0284 33.2711 57.8665 33.5016C57.7107 33.7258 57.4927 33.9033 57.2125 34.0341C56.9322 34.1587 56.6051 34.221 56.2314 34.221ZM59.1438 34.1089V29.0543H60.1996V34.1089H59.1438ZM59.1438 28.3629V27.1483H60.1996V28.3629H59.1438ZM63.8725 36.1644C63.505 36.1644 63.1656 36.1052 62.8541 35.9868C62.5427 35.8685 62.2749 35.7034 62.0506 35.4917C61.8264 35.2861 61.6582 35.0432 61.5461 34.7629L62.5178 34.3612C62.605 34.5978 62.7638 34.794 62.9943 34.9498C63.231 35.1055 63.5206 35.1833 63.8632 35.1833C64.131 35.1833 64.3708 35.1304 64.5826 35.0245C64.7944 34.9249 64.9626 34.7754 65.0871 34.576C65.2117 34.383 65.274 34.1494 65.274 33.8753V32.7355L65.4609 32.9503C65.2865 33.2742 65.0435 33.5203 64.7321 33.6884C64.4269 33.8566 64.0812 33.9407 63.695 33.9407C63.2279 33.9407 62.8074 33.8317 62.4337 33.6137C62.06 33.3957 61.7641 33.0967 61.5461 32.7168C61.3343 32.3368 61.2284 31.9101 61.2284 31.4368C61.2284 30.9571 61.3343 30.5305 61.5461 30.1568C61.7641 29.783 62.0569 29.4872 62.4244 29.2692C62.7919 29.0512 63.2123 28.9422 63.6857 28.9422C64.0719 28.9422 64.4144 29.0262 64.7134 29.1944C65.0186 29.3564 65.2678 29.5931 65.4609 29.9045L65.3207 30.1661V29.0543H66.3204V33.8753C66.3204 34.3113 66.2145 34.7006 66.0028 35.0432C65.7972 35.392 65.5107 35.6661 65.1432 35.8654C64.7757 36.0647 64.3522 36.1644 63.8725 36.1644ZM63.8165 32.9597C64.0968 32.9597 64.3459 32.8943 64.5639 32.7635C64.7819 32.6264 64.9532 32.4458 65.0778 32.2216C65.2086 31.9911 65.274 31.7326 65.274 31.4461C65.274 31.1596 65.2086 30.9011 65.0778 30.6706C64.947 30.4402 64.7726 30.2595 64.5546 30.1287C64.3366 29.9917 64.0906 29.9232 63.8165 29.9232C63.53 29.9232 63.2746 29.9917 63.0504 30.1287C62.8261 30.2595 62.6486 30.4402 62.5178 30.6706C62.3932 30.8949 62.3309 31.1534 62.3309 31.4461C62.3309 31.7264 62.3932 31.9818 62.5178 32.2122C62.6486 32.4427 62.8261 32.6264 63.0504 32.7635C63.2746 32.8943 63.53 32.9597 63.8165 32.9597ZM67.5563 34.1089V29.0543H68.5653V30.0446L68.4439 29.9138C68.5684 29.5962 68.7678 29.3564 69.0418 29.1944C69.3159 29.0262 69.6336 28.9422 69.9948 28.9422C70.3686 28.9422 70.6987 29.0231 70.9852 29.1851C71.2717 29.347 71.496 29.5713 71.6579 29.8578C71.8198 30.1443 71.9008 30.4744 71.9008 30.8481V34.1089H70.8544V31.1284C70.8544 30.8731 70.8077 30.6582 70.7142 30.4838C70.6208 30.3031 70.4869 30.1661 70.3125 30.0727C70.1443 29.973 69.9512 29.9232 69.7332 29.9232C69.5152 29.9232 69.319 29.973 69.1446 30.0727C68.9764 30.1661 68.8456 30.3031 68.7522 30.4838C68.6588 30.6644 68.6121 30.8793 68.6121 31.1284V34.1089H67.5563ZM75.4039 34.221C74.8994 34.221 74.4509 34.1058 74.0585 33.8753C73.6723 33.6386 73.3702 33.321 73.1522 32.9223C72.9342 32.5174 72.8252 32.0659 72.8252 31.5676C72.8252 31.0568 72.9342 30.6052 73.1522 30.2128C73.3764 29.8204 73.6754 29.5121 74.0491 29.2878C74.4229 29.0574 74.8464 28.9422 75.3198 28.9422C75.6998 28.9422 76.0392 29.0076 76.3382 29.1384C76.6372 29.2692 76.8894 29.4498 77.095 29.6803C77.3005 29.9045 77.4563 30.163 77.5622 30.4557C77.6743 30.7485 77.7303 31.0599 77.7303 31.39C77.7303 31.471 77.7272 31.5551 77.721 31.6423C77.7148 31.7295 77.7023 31.8105 77.6836 31.8852H73.6567V31.0444H77.0857L76.5811 31.4274C76.6434 31.1222 76.6216 30.8513 76.5157 30.6146C76.4161 30.3716 76.2603 30.1817 76.0486 30.0446C75.843 29.9014 75.6001 29.8297 75.3198 29.8297C75.0395 29.8297 74.7904 29.9014 74.5724 30.0446C74.3544 30.1817 74.1862 30.381 74.0678 30.6426C73.9495 30.898 73.9028 31.2094 73.9277 31.5769C73.8965 31.9195 73.9433 32.2185 74.0678 32.4738C74.1986 32.7292 74.3793 32.9285 74.6097 33.0718C74.8464 33.2151 75.1143 33.2867 75.4132 33.2867C75.7184 33.2867 75.9769 33.2182 76.1887 33.0811C76.4067 32.9441 76.578 32.7666 76.7026 32.5486L77.5622 32.969C77.4625 33.2057 77.3068 33.4206 77.095 33.6137C76.8894 33.8006 76.6403 33.9501 76.3475 34.0622C76.061 34.1681 75.7465 34.221 75.4039 34.221ZM78.7607 34.1089V29.0543H79.7697V30.0727L79.6763 29.9232C79.7884 29.5931 79.9691 29.3564 80.2182 29.2131C80.4674 29.0636 80.7663 28.9889 81.1152 28.9889H81.4235V29.9512H80.9844C80.6355 29.9512 80.3521 30.0602 80.1341 30.2782C79.9224 30.49 79.8165 30.7952 79.8165 31.1938V34.1089H78.7607ZM84.0144 34.221C83.4974 34.221 83.0427 34.0933 82.6503 33.8379C82.2641 33.5826 81.9931 33.24 81.8374 32.8102L82.6503 32.4271C82.7873 32.7137 82.9742 32.941 83.2109 33.1092C83.4538 33.2774 83.7216 33.3614 84.0144 33.3614C84.2635 33.3614 84.4659 33.3054 84.6217 33.1933C84.7774 33.0811 84.8552 32.9285 84.8552 32.7355C84.8552 32.6109 84.821 32.5112 84.7525 32.4365C84.684 32.3555 84.5967 32.2901 84.4909 32.2403C84.3912 32.1904 84.2884 32.1531 84.1825 32.1282L83.3884 31.9039C82.9524 31.7793 82.6254 31.5925 82.4073 31.3433C82.1956 31.088 82.0897 30.7921 82.0897 30.4557C82.0897 30.1505 82.1675 29.8858 82.3233 29.6616C82.479 29.4311 82.6939 29.2536 82.9679 29.129C83.242 29.0044 83.5503 28.9422 83.8929 28.9422C84.3538 28.9422 84.7649 29.0574 85.1262 29.2878C85.4875 29.5121 85.7428 29.8266 85.8923 30.2315L85.0795 30.6146C84.9798 30.3716 84.821 30.1786 84.603 30.0353C84.3912 29.892 84.1514 29.8204 83.8836 29.8204C83.6531 29.8204 83.4693 29.8765 83.3323 29.9886C83.1953 30.0945 83.1268 30.2346 83.1268 30.409C83.1268 30.5274 83.1579 30.627 83.2202 30.708C83.2825 30.7827 83.3635 30.845 83.4631 30.8949C83.5628 30.9385 83.6656 30.9758 83.7714 31.007L84.5936 31.2499C85.011 31.3682 85.3317 31.5551 85.556 31.8105C85.7802 32.0596 85.8923 32.3586 85.8923 32.7074C85.8923 33.0064 85.8114 33.2711 85.6494 33.5016C85.4937 33.7258 85.2757 33.9033 84.9954 34.0341C84.7151 34.1587 84.3881 34.221 84.0144 34.221ZM88.6628 34.1089V27.1483H91.1947C91.6619 27.1483 92.073 27.2355 92.428 27.4099C92.7893 27.5781 93.0696 27.8272 93.2689 28.1573C93.4682 28.4812 93.5679 28.8705 93.5679 29.3252C93.5679 29.7737 93.4651 30.1599 93.2596 30.4838C93.0603 30.8077 92.7831 31.0568 92.428 31.2312C92.073 31.4056 91.6619 31.4928 91.1947 31.4928H89.7653V34.1089H88.6628ZM89.7653 30.5118H91.2228C91.4719 30.5118 91.6899 30.462 91.8768 30.3623C92.0637 30.2626 92.21 30.1256 92.3159 29.9512C92.4218 29.7706 92.4748 29.5588 92.4748 29.3159C92.4748 29.073 92.4218 28.8643 92.3159 28.6899C92.21 28.5093 92.0637 28.3722 91.8768 28.2788C91.6899 28.1791 91.4719 28.1293 91.2228 28.1293H89.7653V30.5118ZM96.8562 34.221C96.3704 34.221 95.925 34.1058 95.5202 33.8753C95.1215 33.6448 94.8039 33.3303 94.5672 32.9317C94.3305 32.533 94.2121 32.0814 94.2121 31.5769C94.2121 31.0662 94.3305 30.6146 94.5672 30.2222C94.8039 29.8235 95.1215 29.5121 95.5202 29.2878C95.9188 29.0574 96.3642 28.9422 96.8562 28.9422C97.3545 28.9422 97.7999 29.0574 98.1923 29.2878C98.5909 29.5121 98.9055 29.8235 99.1359 30.2222C99.3726 30.6146 99.491 31.0662 99.491 31.5769C99.491 32.0877 99.3726 32.5424 99.1359 32.941C98.8992 33.3396 98.5816 33.6542 98.1829 33.8847C97.7843 34.1089 97.3421 34.221 96.8562 34.221ZM96.8562 33.24C97.1552 33.24 97.4199 33.1683 97.6504 33.0251C97.8809 32.8818 98.0615 32.6856 98.1923 32.4365C98.3293 32.1811 98.3978 31.8946 98.3978 31.5769C98.3978 31.2592 98.3293 30.9758 98.1923 30.7267C98.0615 30.4775 97.8809 30.2813 97.6504 30.1381C97.4199 29.9948 97.1552 29.9232 96.8562 29.9232C96.5635 29.9232 96.2988 29.9948 96.0621 30.1381C95.8316 30.2813 95.6479 30.4775 95.5108 30.7267C95.38 30.9758 95.3146 31.2592 95.3146 31.5769C95.3146 31.8946 95.38 32.1811 95.5108 32.4365C95.6479 32.6856 95.8316 32.8818 96.0621 33.0251C96.2988 33.1683 96.5635 33.24 96.8562 33.24ZM102.857 34.221C102.372 34.221 101.936 34.1058 101.549 33.8753C101.169 33.6386 100.867 33.321 100.643 32.9223C100.425 32.5237 100.316 32.0752 100.316 31.5769C100.316 31.0786 100.428 30.6301 100.653 30.2315C100.877 29.8329 101.179 29.5183 101.559 29.2878C101.939 29.0574 102.369 28.9422 102.848 28.9422C103.253 28.9422 103.611 29.0231 103.923 29.1851C104.234 29.347 104.48 29.5713 104.661 29.8578L104.502 30.1007V27.0362H105.548V34.1089H104.549V33.0811L104.67 33.2774C104.496 33.5826 104.246 33.8161 103.923 33.9781C103.599 34.14 103.244 34.221 102.857 34.221ZM102.96 33.24C103.253 33.24 103.515 33.1683 103.745 33.0251C103.982 32.8818 104.166 32.6856 104.296 32.4365C104.433 32.1811 104.502 31.8946 104.502 31.5769C104.502 31.2592 104.433 30.9758 104.296 30.7267C104.166 30.4775 103.982 30.2813 103.745 30.1381C103.515 29.9948 103.253 29.9232 102.96 29.9232C102.668 29.9232 102.403 29.9948 102.166 30.1381C101.929 30.2813 101.746 30.4775 101.615 30.7267C101.484 30.9758 101.419 31.2592 101.419 31.5769C101.419 31.8946 101.484 32.1811 101.615 32.4365C101.746 32.6856 101.926 32.8818 102.157 33.0251C102.393 33.1683 102.661 33.24 102.96 33.24ZM109.182 34.221C108.678 34.221 108.229 34.1058 107.837 33.8753C107.45 33.6386 107.142 33.321 106.912 32.9223C106.687 32.5237 106.575 32.0721 106.575 31.5676C106.575 31.0693 106.687 30.6208 106.912 30.2222C107.136 29.8235 107.444 29.5121 107.837 29.2878C108.229 29.0574 108.678 28.9422 109.182 28.9422C109.525 28.9422 109.845 29.0044 110.144 29.129C110.443 29.2474 110.702 29.4124 110.92 29.6242C111.144 29.836 111.309 30.082 111.415 30.3623L110.49 30.7921C110.384 30.5305 110.213 30.3218 109.976 30.1661C109.746 30.0042 109.481 29.9232 109.182 29.9232C108.896 29.9232 108.637 29.9948 108.407 30.1381C108.182 30.2751 108.005 30.4713 107.874 30.7267C107.743 30.9758 107.678 31.2592 107.678 31.5769C107.678 31.8946 107.743 32.1811 107.874 32.4365C108.005 32.6856 108.182 32.8818 108.407 33.0251C108.637 33.1683 108.896 33.24 109.182 33.24C109.487 33.24 109.752 33.1621 109.976 33.0064C110.207 32.8445 110.378 32.6296 110.49 32.3617L111.415 32.8009C111.315 33.0687 111.153 33.3116 110.929 33.5296C110.711 33.7414 110.453 33.9096 110.154 34.0341C109.855 34.1587 109.531 34.221 109.182 34.221ZM113.915 34.221C113.572 34.221 113.27 34.1618 113.009 34.0435C112.753 33.9189 112.554 33.7507 112.411 33.539C112.267 33.321 112.196 33.0656 112.196 32.7728C112.196 32.4988 112.255 32.2527 112.373 32.0347C112.498 31.8167 112.688 31.633 112.943 31.4835C113.199 31.334 113.519 31.2281 113.906 31.1658L115.662 30.8762V31.7077L114.111 31.9787C113.831 32.0285 113.625 32.1188 113.494 32.2496C113.364 32.3742 113.298 32.5361 113.298 32.7355C113.298 32.9285 113.37 33.0874 113.513 33.2119C113.663 33.3303 113.853 33.3895 114.083 33.3895C114.37 33.3895 114.619 33.3272 114.831 33.2026C115.049 33.078 115.217 32.913 115.335 32.7074C115.453 32.4956 115.513 32.2621 115.513 32.0067V30.708C115.513 30.4589 115.419 30.2564 115.232 30.1007C115.052 29.9388 114.809 29.8578 114.504 29.8578C114.223 29.8578 113.977 29.9325 113.765 30.082C113.56 30.2253 113.407 30.4121 113.308 30.6426L112.429 30.2035C112.523 29.9543 112.675 29.7363 112.887 29.5495C113.099 29.3564 113.345 29.2069 113.625 29.101C113.912 28.9951 114.214 28.9422 114.532 28.9422C114.93 28.9422 115.282 29.0169 115.587 29.1664C115.899 29.3159 116.139 29.5245 116.307 29.7924C116.481 30.054 116.568 30.3592 116.568 30.708V34.1089H115.559V33.1933L115.774 33.2213C115.656 33.4268 115.503 33.6044 115.316 33.7538C115.136 33.9033 114.927 34.0186 114.69 34.0995C114.46 34.1805 114.201 34.221 113.915 34.221ZM119.671 34.221C119.154 34.221 118.7 34.0933 118.307 33.8379C117.921 33.5826 117.65 33.24 117.494 32.8102L118.307 32.4271C118.444 32.7137 118.631 32.941 118.868 33.1092C119.111 33.2774 119.379 33.3614 119.671 33.3614C119.921 33.3614 120.123 33.3054 120.279 33.1933C120.434 33.0811 120.512 32.9285 120.512 32.7355C120.512 32.6109 120.478 32.5112 120.41 32.4365C120.341 32.3555 120.254 32.2901 120.148 32.2403C120.048 32.1904 119.945 32.1531 119.84 32.1282L119.045 31.9039C118.609 31.7793 118.282 31.5925 118.064 31.3433C117.853 31.088 117.747 30.7921 117.747 30.4557C117.747 30.1505 117.825 29.8858 117.98 29.6616C118.136 29.4311 118.351 29.2536 118.625 29.129C118.899 29.0044 119.207 28.9422 119.55 28.9422C120.011 28.9422 120.422 29.0574 120.783 29.2878C121.145 29.5121 121.4 29.8266 121.549 30.2315L120.737 30.6146C120.637 30.3716 120.478 30.1786 120.26 30.0353C120.048 29.892 119.808 29.8204 119.541 29.8204C119.31 29.8204 119.126 29.8765 118.989 29.9886C118.852 30.0945 118.784 30.2346 118.784 30.409C118.784 30.5274 118.815 30.627 118.877 30.708C118.94 30.7827 119.021 30.845 119.12 30.8949C119.22 30.9385 119.323 30.9758 119.428 31.007L120.251 31.2499C120.668 31.3682 120.989 31.5551 121.213 31.8105C121.437 32.0596 121.549 32.3586 121.549 32.7074C121.549 33.0064 121.468 33.2711 121.306 33.5016C121.151 33.7258 120.933 33.9033 120.652 34.0341C120.372 34.1587 120.045 34.221 119.671 34.221ZM124.77 34.1649C124.241 34.1649 123.83 34.0155 123.537 33.7165C123.244 33.4175 123.098 32.9971 123.098 32.4552V30.0073H122.21V29.0543H122.35C122.587 29.0543 122.771 28.9858 122.901 28.8487C123.032 28.7117 123.098 28.5248 123.098 28.2881V27.8957H124.153V29.0543H125.303V30.0073H124.153V32.4084C124.153 32.5828 124.181 32.7323 124.238 32.8569C124.294 32.9753 124.384 33.0687 124.509 33.1372C124.633 33.1995 124.795 33.2306 124.994 33.2306C125.044 33.2306 125.1 33.2275 125.163 33.2213C125.225 33.2151 125.284 33.2088 125.34 33.2026V34.1089C125.253 34.1213 125.156 34.1338 125.05 34.1463C124.945 34.1587 124.851 34.1649 124.77 34.1649Z" fill="#1C1916"/>
<path d="M14.9535 51.8992C14.5429 51.8992 14.1669 51.824 13.8257 51.6736C13.4844 51.5174 13.1952 51.3063 12.9581 51.0403C12.721 50.7742 12.5503 50.4763 12.4462 50.1467L13.1837 49.843C13.3398 50.2594 13.5712 50.5804 13.8777 50.806C14.1901 51.0258 14.5544 51.1357 14.9709 51.1357C15.2254 51.1357 15.448 51.0952 15.6389 51.0142C15.8298 50.9333 15.9773 50.8205 16.0814 50.6759C16.1913 50.5255 16.2462 50.352 16.2462 50.1553C16.2462 49.8835 16.1681 49.6695 16.012 49.5133C15.8616 49.3514 15.6389 49.2299 15.3439 49.1489L14.1554 48.7846C13.6869 48.64 13.3283 48.4115 13.0796 48.0992C12.8309 47.7869 12.7065 47.4283 12.7065 47.0234C12.7065 46.6706 12.7904 46.3611 12.9581 46.0951C13.1316 45.8232 13.3688 45.6121 13.6695 45.4618C13.9761 45.3056 14.3231 45.2275 14.7106 45.2275C15.0981 45.2275 15.448 45.2969 15.7604 45.4357C16.0785 45.5745 16.3474 45.7625 16.5672 45.9997C16.787 46.231 16.9489 46.4971 17.0531 46.7978L16.3243 47.1015C16.1855 46.7371 15.9773 46.4624 15.6996 46.2773C15.422 46.0864 15.0952 45.991 14.7193 45.991C14.4879 45.991 14.2826 46.0315 14.1033 46.1124C13.9298 46.1876 13.7939 46.3004 13.6955 46.4508C13.603 46.5954 13.5567 46.7689 13.5567 46.9713C13.5567 47.2085 13.6319 47.4196 13.7823 47.6047C13.9327 47.7897 14.1611 47.9315 14.4677 48.0298L15.5522 48.3508C16.0611 48.5069 16.4458 48.7296 16.706 49.0188C16.9663 49.308 17.0964 49.6666 17.0964 50.0946C17.0964 50.4474 17.0039 50.7597 16.8188 51.0316C16.6395 51.3034 16.3879 51.5174 16.064 51.6736C15.7459 51.824 15.3757 51.8992 14.9535 51.8992ZM20.1458 51.8471C19.6889 51.8471 19.3361 51.717 19.0874 51.4567C18.8445 51.1964 18.723 50.8291 18.723 50.3549V47.891H17.8728V47.1188H18.0463C18.2545 47.1188 18.4193 47.0552 18.5408 46.928C18.6623 46.8007 18.723 46.633 18.723 46.4248V46.043H19.5298V47.1188H20.5796V47.891H19.5298V50.3288C19.5298 50.485 19.553 50.6209 19.5992 50.7366C19.6513 50.8523 19.7352 50.9448 19.8508 51.0142C19.9665 51.0779 20.1198 51.1097 20.3107 51.1097C20.3511 51.1097 20.4003 51.1068 20.4581 51.101C20.5218 51.0952 20.5796 51.0894 20.6317 51.0836V51.795C20.5565 51.8124 20.4726 51.824 20.3801 51.8297C20.2875 51.8413 20.2094 51.8471 20.1458 51.8471ZM21.6856 51.795V47.1188H22.4751V47.9777L22.3884 47.8563C22.4982 47.5902 22.666 47.3936 22.8915 47.2663C23.1171 47.1333 23.3918 47.0668 23.7157 47.0668H24.002V47.8302H23.5943C23.2646 47.8302 22.9985 47.9343 22.7961 48.1426C22.5937 48.345 22.4925 48.6342 22.4925 49.0101V51.795H21.6856ZM24.7187 51.795V47.1188H25.5256V51.795H24.7187ZM24.7187 46.3727V45.3316H25.5256V46.3727H24.7187ZM26.7775 53.5302V47.1188H27.567V48.1252L27.4629 47.9257C27.6364 47.648 27.8736 47.4283 28.1743 47.2663C28.4751 47.0986 28.8192 47.0147 29.2067 47.0147C29.6463 47.0147 30.0396 47.1217 30.3866 47.3357C30.7394 47.5497 31.0171 47.8418 31.2195 48.212C31.4219 48.5763 31.5232 48.9928 31.5232 49.4613C31.5232 49.9182 31.4219 50.3317 31.2195 50.7019C31.0171 51.0721 30.7394 51.3641 30.3866 51.5782C30.0396 51.7922 29.6434 51.8992 29.1981 51.8992C28.8221 51.8992 28.478 51.8153 28.1656 51.6476C27.8591 51.4798 27.622 51.2427 27.4542 50.9361L27.5844 50.7973V53.5302H26.7775ZM29.1373 51.1183C29.4323 51.1183 29.6955 51.046 29.9268 50.9014C30.1582 50.7568 30.3375 50.5602 30.4647 50.3115C30.5977 50.057 30.6643 49.7736 30.6643 49.4613C30.6643 49.1374 30.5977 48.854 30.4647 48.611C30.3375 48.3623 30.1582 48.1657 29.9268 48.0211C29.6955 47.8707 29.4323 47.7955 29.1373 47.7955C28.8424 47.7955 28.5763 47.8678 28.3392 48.0124C28.1078 48.157 27.9227 48.3566 27.7839 48.611C27.6509 48.8598 27.5844 49.1432 27.5844 49.4613C27.5844 49.7736 27.6509 50.057 27.7839 50.3115C27.9227 50.5602 28.1078 50.7568 28.3392 50.9014C28.5763 51.046 28.8424 51.1183 29.1373 51.1183ZM34.7327 51.8992C34.2816 51.8992 33.8796 51.7922 33.5268 51.5782C33.174 51.3641 32.8963 51.0721 32.6939 50.7019C32.4915 50.326 32.3903 49.9066 32.3903 49.4439C32.3903 48.9754 32.4886 48.559 32.6852 48.1946C32.8877 47.8302 33.1595 47.5439 33.5008 47.3357C33.8478 47.1217 34.2353 47.0147 34.6633 47.0147C35.0103 47.0147 35.3169 47.0783 35.5829 47.2056C35.8548 47.327 36.0832 47.4948 36.2683 47.7088C36.4592 47.917 36.6038 48.157 36.7021 48.4289C36.8062 48.6949 36.8583 48.9725 36.8583 49.2617C36.8583 49.3254 36.8525 49.3976 36.8409 49.4786C36.8351 49.5538 36.8264 49.6261 36.8149 49.6955H32.9802V49.0015H36.3464L35.9647 49.3138C36.0167 49.013 35.9878 48.7441 35.8779 48.5069C35.768 48.2698 35.6061 48.0818 35.3921 47.943C35.1781 47.8042 34.9351 47.7348 34.6633 47.7348C34.3915 47.7348 34.1428 47.8042 33.9172 47.943C33.6916 48.0818 33.5152 48.2814 33.388 48.5416C33.2665 48.7961 33.2173 49.0998 33.2405 49.4526C33.2173 49.7938 33.2694 50.0946 33.3966 50.3549C33.5297 50.6094 33.7148 50.8089 33.9519 50.9535C34.1948 51.0923 34.458 51.1617 34.7414 51.1617C35.0537 51.1617 35.3169 51.0894 35.5309 50.9448C35.7449 50.8002 35.9184 50.6151 36.0514 50.3896L36.7281 50.7366C36.6356 50.9506 36.491 51.1473 36.2943 51.3266C36.1035 51.5001 35.875 51.6389 35.609 51.743C35.3487 51.8471 35.0566 51.8992 34.7327 51.8992Z" fill="#1C1916" fill-opacity="0.3"/>
<g clip-path="url(#clip0_75_1905)">
<path d="M191.287 28.4182C191.031 28.1624 190.727 27.9595 190.393 27.8211C190.059 27.6827 189.701 27.6115 189.34 27.6115C188.978 27.6115 188.62 27.6827 188.286 27.8211C187.952 27.9595 187.648 28.1624 187.393 28.4182L186.862 28.9488L186.331 28.4182C185.815 27.9018 185.115 27.6117 184.384 27.6117C183.654 27.6117 182.954 27.9018 182.437 28.4182C181.921 28.9346 181.631 29.635 181.631 30.3652C181.631 31.0955 181.921 31.7959 182.437 32.3123L182.968 32.8428L186.862 36.7369L190.756 32.8428L191.287 32.3123C191.542 32.0566 191.745 31.7531 191.884 31.419C192.022 31.0849 192.093 30.7269 192.093 30.3652C192.093 30.0036 192.022 29.6455 191.884 29.3115C191.745 28.9774 191.542 28.6739 191.287 28.4182Z" stroke="#666666" stroke-width="1.00105" stroke-linecap="round" stroke-linejoin="round"/>
</g>
<path d="M181.69 50.9701H186.695V52.4717L188.697 50.4696L186.695 48.4675V49.9691H180.689V52.9722H181.69V50.9701ZM186.695 55.9754H181.69V54.4738L179.688 56.4759L181.69 58.478V56.9764H187.696V53.9733H186.695V55.9754Z" fill="#666666"/>
<path d="M99.4372 80.8347C95.7533 80.8347 92.7635 83.8245 92.7635 87.5084C92.7635 91.1922 95.7533 94.182 99.4372 94.182C103.121 94.182 106.111 91.1922 106.111 87.5084C106.111 83.8245 103.121 80.8347 99.4372 80.8347ZM98.7698 90.1778H97.4351V84.8389H98.7698V90.1778ZM101.439 90.1778H100.105V84.8389H101.439V90.1778Z" fill="#514EB6"/>
<path d="M75.4121 83.5042L69.7395 87.5084L75.4121 91.5126V83.5042ZM68.7385 91.5126V83.5042H67.4037V91.5126H68.7385Z" fill="#B9B8E2"/>
<path d="M123.462 91.5125L129.135 87.5083L123.462 83.5042V91.5125ZM130.136 83.5042V91.5125H131.471V83.5042H130.136Z" fill="#B9B8E2"/>
<path d="M46.6771 86.0919L44.0844 83.5042L43.3787 84.2099L45.9664 86.7976L46.6771 86.0919ZM48.6342 83.5042L49.6552 84.5252L43.3787 90.8068L44.0844 91.5125L50.366 85.236L51.387 86.257V83.5042H48.6342ZM48.7993 88.2141L48.0936 88.9198L49.6602 90.4864L48.6342 91.5125H51.387V88.7596L50.366 89.7807L48.7993 88.2141Z" fill="#B9B8E2"/>
<defs>
<filter id="filter0_d_75_1905" x="-15.3494" y="0.750992" width="232.243" height="123.462" filterUnits="userSpaceOnUse" color-interpolation-filters="sRGB">
<feFlood flood-opacity="0" result="BackgroundImageFix"/>
<feColorMatrix in="SourceAlpha" type="matrix" values="0 0 0 0 0 0 0 0 0 0 0 0 0 0 0 0 0 0 127 0" result="hardAlpha"/>
<feOffset dy="2.66946"/>
<feGaussianBlur stdDeviation="7.67469"/>
<feComposite in2="hardAlpha" operator="out"/>
<feColorMatrix type="matrix" values="0 0 0 0 0 0 0 0 0 0 0 0 0 0 0 0 0 0 0.12 0"/>
<feBlend mode="normal" in2="BackgroundImageFix" result="effect1_dropShadow_75_1905"/>
<feBlend mode="normal" in="SourceGraphic" in2="effect1_dropShadow_75_1905" result="shape"/>
</filter>
<filter id="filter1_d_75_1905" x="9.34287" y="62.1486" width="68.7386" height="12.0125" filterUnits="userSpaceOnUse" color-interpolation-filters="sRGB">
<feFlood flood-opacity="0" result="BackgroundImageFix"/>
<feColorMatrix in="SourceAlpha" type="matrix" values="0 0 0 0 0 0 0 0 0 0 0 0 0 0 0 0 0 0 127 0" result="hardAlpha"/>
<feOffset dy="2.66946"/>
<feGaussianBlur stdDeviation="1.33473"/>
<feComposite in2="hardAlpha" operator="out"/>
<feColorMatrix type="matrix" values="0 0 0 0 0.996078 0 0 0 0 0.976471 0 0 0 0 0.972549 0 0 0 0.23 0"/>
<feBlend mode="normal" in2="BackgroundImageFix" result="effect1_dropShadow_75_1905"/>
<feBlend mode="normal" in="SourceGraphic" in2="effect1_dropShadow_75_1905" result="shape"/>
</filter>
<clipPath id="clip0_75_1905">
<rect width="12.0126" height="12.0126" fill="white" transform="translate(180.856 26.111)"/>
</clipPath>
</defs>
</svg>
