<svg width="18" height="18" viewBox="0 0 18 18" fill="none" xmlns="http://www.w3.org/2000/svg">
<path d="M16 0H2C0.89 0 0 0.9 0 2V16C0 17.1 0.89 18 2 18H16C17.1 18 18 17.1 18 16V2C18 0.9 17.1 0 16 0ZM7.25 12C6.84 12 6.5 11.66 6.5 11.25V10H4.5V11.25C4.5 11.66 4.16 12 3.75 12C3.34 12 3 11.66 3 11.25V6.75C3 6.34 3.34 6 3.75 6C4.16 6 4.5 6.34 4.5 6.75V8.5H6.5V6.75C6.5 6.34 6.84 6 7.25 6C7.66 6 8 6.34 8 6.75V11.25C8 11.66 7.66 12 7.25 12ZM10.5 6H14C14.55 6 15 6.45 15 7V11C15 11.55 14.55 12 14 12H10.5C10.22 12 10 11.78 10 11.5V6.5C10 6.22 10.22 6 10.5 6ZM11.5 10.5H13.5V7.5H11.5V10.5Z" fill="#526EA0"/>
</svg>
