<svg width="19" height="18" viewBox="0 0 19 18" fill="none" xmlns="http://www.w3.org/2000/svg">
<g clip-path="url(#clip0_75_572)">
<path d="M9.00684 16.5C13.1491 16.5 16.5068 13.1423 16.5068 9C16.5068 4.85775 13.1491 1.5 9.00684 1.5C4.86459 1.5 1.50684 4.85775 1.50684 9C1.50684 13.1423 4.86459 16.5 9.00684 16.5Z" stroke="white" stroke-width="1.5" stroke-linecap="round" stroke-linejoin="round"/>
<path d="M6.58423 9.17247V7.91997C6.58423 6.35997 7.68673 5.72247 9.03673 6.50247L10.1242 7.13247L11.2117 7.76247C12.5617 8.54247 12.5617 9.81747 11.2117 10.5975L10.1242 11.2275L9.03673 11.8575C7.68673 12.6375 6.58423 12 6.58423 10.44V9.17247Z" stroke="white" stroke-width="1.5" stroke-miterlimit="10" stroke-linecap="round" stroke-linejoin="round"/>
</g>
<defs>
<clipPath id="clip0_75_572">
<rect x="0.0292969" width="18" height="18" rx="6" fill="white"/>
</clipPath>
</defs>
</svg>
