<svg width="130" height="37" viewBox="0 0 130 37" fill="none" xmlns="http://www.w3.org/2000/svg">
<path d="M45.392 25.192C44.6453 25.192 43.9413 25.0587 43.28 24.792C42.6293 24.5147 42.064 24.1253 41.584 23.624C41.1147 23.1227 40.7627 22.5307 40.528 21.848L42.56 20.936C42.8587 21.5867 43.2693 22.0987 43.792 22.472C44.3253 22.8453 44.912 23.032 45.552 23.032C45.8933 23.032 46.1867 22.9787 46.432 22.872C46.6773 22.7653 46.8693 22.6213 47.008 22.44C47.1467 22.248 47.216 22.024 47.216 21.768C47.216 21.4907 47.1307 21.256 46.96 21.064C46.7893 20.8613 46.5227 20.7013 46.16 20.584L43.824 19.816C42.8747 19.5067 42.16 19.0693 41.68 18.504C41.2 17.928 40.96 17.24 40.96 16.44C40.96 15.736 41.1307 15.1173 41.472 14.584C41.824 14.0507 42.3093 13.6347 42.928 13.336C43.5573 13.0373 44.2773 12.888 45.088 12.888C45.8027 12.888 46.464 13.0107 47.072 13.256C47.68 13.5013 48.2027 13.848 48.64 14.296C49.088 14.744 49.424 15.2827 49.648 15.912L47.632 16.824C47.408 16.2693 47.072 15.8373 46.624 15.528C46.176 15.208 45.664 15.048 45.088 15.048C44.7573 15.048 44.464 15.1013 44.208 15.208C43.952 15.3147 43.7547 15.4693 43.616 15.672C43.4773 15.864 43.408 16.088 43.408 16.344C43.408 16.6213 43.4987 16.8667 43.68 17.08C43.8613 17.2827 44.1333 17.4427 44.496 17.56L46.784 18.296C47.744 18.6053 48.4587 19.0373 48.928 19.592C49.408 20.1467 49.648 20.824 49.648 21.624C49.648 22.3173 49.4667 22.936 49.104 23.48C48.7413 24.0133 48.24 24.4347 47.6 24.744C46.9707 25.0427 46.2347 25.192 45.392 25.192ZM51.2394 25V12.888H53.6394V20.648L52.7434 20.36L56.5994 16.264H59.5594L56.3914 19.784L59.5434 25H56.8234L54.1834 20.568L55.5754 20.216L52.9034 23.128L53.6394 21.736V25H51.2394ZM61.9744 28.552C61.7184 28.552 61.4677 28.5307 61.2224 28.488C60.9877 28.4453 60.7797 28.376 60.5984 28.28V26.312C60.7477 26.3547 60.9237 26.392 61.1264 26.424C61.329 26.456 61.5157 26.472 61.6864 26.472C62.1557 26.472 62.4917 26.36 62.6944 26.136C62.897 25.912 63.0624 25.656 63.1904 25.368L63.7824 24.008L63.7504 26.008L59.9104 16.264H62.4864L65.0304 23.192H64.0704L66.6144 16.264H69.1904L65.4464 25.816C65.2117 26.424 64.9237 26.9307 64.5824 27.336C64.241 27.7413 63.8517 28.0453 63.4144 28.248C62.9877 28.4507 62.5077 28.552 61.9744 28.552ZM70.2394 25V12.888H72.6394V25H70.2394ZM74.3956 25V16.264H76.7956V25H74.3956ZM74.3956 15.48V13.08H76.7956V15.48H74.3956ZM78.5519 25V16.264H80.7919V17.992L80.6639 17.608C80.8665 17.0853 81.1919 16.7013 81.6399 16.456C82.0985 16.2 82.6319 16.072 83.2399 16.072C83.9012 16.072 84.4772 16.2107 84.9679 16.488C85.4692 16.7653 85.8585 17.1547 86.1359 17.656C86.4132 18.1467 86.5519 18.7227 86.5519 19.384V25H84.1519V19.896C84.1519 19.5547 84.0825 19.2613 83.9439 19.016C83.8159 18.7707 83.6292 18.5787 83.3839 18.44C83.1492 18.3013 82.8719 18.232 82.5519 18.232C82.2425 18.232 81.9652 18.3013 81.7199 18.44C81.4745 18.5787 81.2825 18.7707 81.1439 19.016C81.0159 19.2613 80.9519 19.5547 80.9519 19.896V25H78.5519ZM92.338 25.192C91.41 25.192 90.6047 24.9893 89.922 24.584C89.2393 24.168 88.7113 23.6133 88.338 22.92C87.9647 22.2267 87.778 21.4587 87.778 20.616C87.778 19.7413 87.97 18.9627 88.354 18.28C88.7487 17.5973 89.2767 17.0587 89.938 16.664C90.5993 16.2693 91.346 16.072 92.178 16.072C92.8713 16.072 93.4847 16.184 94.018 16.408C94.5513 16.6213 94.9993 16.9253 95.362 17.32C95.7353 17.7147 96.018 18.1733 96.21 18.696C96.402 19.208 96.498 19.768 96.498 20.376C96.498 20.5467 96.4873 20.7173 96.466 20.888C96.4553 21.048 96.4287 21.1867 96.386 21.304H89.842V19.544H95.026L93.89 20.376C93.9967 19.9173 93.9913 19.512 93.874 19.16C93.7567 18.7973 93.5487 18.5147 93.25 18.312C92.962 18.0987 92.6047 17.992 92.178 17.992C91.762 17.992 91.4047 18.0933 91.106 18.296C90.8073 18.4987 90.5833 18.7973 90.434 19.192C90.2847 19.5867 90.226 20.0667 90.258 20.632C90.2153 21.1227 90.274 21.5547 90.434 21.928C90.594 22.3013 90.8393 22.5947 91.17 22.808C91.5007 23.0107 91.9007 23.112 92.37 23.112C92.7967 23.112 93.1593 23.0267 93.458 22.856C93.7673 22.6853 94.0073 22.4507 94.178 22.152L96.098 23.064C95.9273 23.4907 95.6553 23.864 95.282 24.184C94.9193 24.504 94.4873 24.7547 93.986 24.936C93.4847 25.1067 92.9353 25.192 92.338 25.192ZM102.119 25.096C101.063 25.096 100.242 24.8133 99.6553 24.248C99.0793 23.672 98.7913 22.872 98.7913 21.848V18.344H97.3193V16.264H97.3993C97.8473 16.264 98.1886 16.152 98.4233 15.928C98.6686 15.704 98.7913 15.368 98.7913 14.92V14.28H101.191V16.264H103.239V18.344H101.191V21.688C101.191 21.9867 101.245 22.2373 101.351 22.44C101.458 22.632 101.623 22.776 101.847 22.872C102.071 22.968 102.349 23.016 102.679 23.016C102.754 23.016 102.839 23.0107 102.935 23C103.031 22.9893 103.133 22.9787 103.239 22.968V25C103.079 25.0213 102.898 25.0427 102.695 25.064C102.493 25.0853 102.301 25.096 102.119 25.096ZM107.35 25.192C106.72 25.192 106.176 25.0907 105.718 24.888C105.259 24.6853 104.907 24.3973 104.662 24.024C104.416 23.64 104.294 23.1867 104.294 22.664C104.294 22.1733 104.406 21.7413 104.63 21.368C104.854 20.984 105.195 20.664 105.654 20.408C106.123 20.152 106.704 19.9707 107.398 19.864L110.07 19.432V21.192L107.83 21.592C107.488 21.656 107.227 21.768 107.046 21.928C106.864 22.0773 106.774 22.296 106.774 22.584C106.774 22.8507 106.875 23.0587 107.078 23.208C107.28 23.3573 107.531 23.432 107.83 23.432C108.224 23.432 108.571 23.3467 108.87 23.176C109.168 23.0053 109.398 22.776 109.558 22.488C109.728 22.1893 109.814 21.864 109.814 21.512V19.24C109.814 18.9093 109.68 18.632 109.414 18.408C109.158 18.184 108.806 18.072 108.358 18.072C107.931 18.072 107.552 18.1893 107.222 18.424C106.902 18.6587 106.667 18.968 106.518 19.352L104.598 18.44C104.768 17.9493 105.04 17.528 105.414 17.176C105.787 16.824 106.235 16.552 106.758 16.36C107.28 16.168 107.851 16.072 108.47 16.072C109.206 16.072 109.856 16.2053 110.422 16.472C110.987 16.7387 111.424 17.112 111.734 17.592C112.054 18.0613 112.214 18.6107 112.214 19.24V25H109.974V23.592L110.518 23.496C110.262 23.88 109.979 24.2 109.67 24.456C109.36 24.7013 109.014 24.8827 108.63 25C108.246 25.128 107.819 25.192 107.35 25.192ZM113.974 25V12.888H116.374V25H113.974ZM118.13 25V12.888H120.53V20.648L119.634 20.36L123.49 16.264H126.45L123.282 19.784L126.434 25H123.714L121.074 20.568L122.466 20.216L119.794 23.128L120.53 21.736V25H118.13Z" fill="#514EB6"/>
<path d="M25.9567 10.1634C25.6188 4.50279 20.8315 0 14.9951 0C9.15862 0 4.37133 4.50279 4.03347 10.1634C2.92427 10.2219 1.88185 10.7116 1.12861 11.5279C0.37537 12.3442 -0.0290514 13.4225 0.00162603 14.5329C0.0323035 15.6432 0.495651 16.6975 1.29282 17.471C2.08998 18.2445 3.15785 18.6759 4.26859 18.673H6.30166V10.8035C6.30166 6.10317 10.2058 2.27807 15.0049 2.27807C19.8041 2.27807 23.7082 6.10317 23.7082 10.8035V18.673H25.7314C26.8422 18.6759 27.91 18.2445 28.7072 17.471C29.5044 16.6975 29.9677 15.6432 29.9984 14.5329C30.0291 13.4225 29.6246 12.3442 28.8714 11.5279C28.1181 10.7116 27.0757 10.2219 25.9665 10.1634H25.9567ZM4.01371 16.3772C3.5318 16.322 3.08704 16.0914 2.76416 15.7294C2.44128 15.3674 2.26284 14.8993 2.26284 14.4143C2.26284 13.9292 2.44128 13.4611 2.76416 13.0991C3.08704 12.7371 3.5318 12.5065 4.01371 12.4513V16.3772ZM25.9764 16.3772V12.4612C26.4583 12.5164 26.9031 12.747 27.226 13.109C27.5488 13.471 27.7273 13.9391 27.7273 14.4241C27.7273 14.9092 27.5488 15.3773 27.226 15.7393C26.9031 16.1013 26.4583 16.3319 25.9764 16.3871V16.3772Z" fill="#514EB6"/>
<path style="mix-blend-mode:multiply" d="M25.7215 18.6731H23.6983V10.8036C23.6983 6.60511 20.5845 3.10997 16.5006 2.40857C21.6376 3.10404 25.6484 7.30454 25.9566 12.4692H25.9764V18.6613C25.8914 18.6692 25.8065 18.6731 25.7215 18.6731ZM13.4895 2.40857C8.35247 3.10404 4.34165 7.30454 4.03343 12.4692H4.01367V18.6613C4.09863 18.6613 4.18359 18.6712 4.26855 18.6712H6.30162V10.8036C6.30162 6.60511 9.40556 3.10997 13.4895 2.40857Z" fill="#514EB6"/>
<path d="M23.6983 20.2004V20.6707C23.6983 25.371 19.7942 29.1961 14.995 29.1961C10.1959 29.1961 6.30162 25.371 6.30162 20.6707V20.2004H4.01367V20.6707C4.01367 26.2503 8.33469 30.8538 13.855 31.4169V34.345H13.2307C12.6265 34.345 12.047 34.585 11.6198 35.0122C11.1926 35.4395 10.9526 36.0189 10.9526 36.6231H19.0375C19.0375 36.0189 18.7975 35.4395 18.3702 35.0122C17.943 34.585 17.3636 34.345 16.7594 34.345H16.135V31.4169C21.6554 30.8538 25.9764 26.2503 25.9764 20.6707V20.2004H23.6983Z" fill="#514EB6"/>
<path style="mix-blend-mode:multiply" d="M13.8552 31.4169V36.623H16.1353V31.4169C16.1353 31.4169 15.2798 31.4722 14.9952 31.4722C14.7107 31.4722 13.8552 31.4169 13.8552 31.4169Z" fill="#514EB6"/>
<path d="M18.4786 14.8974H22.1456V12.9532H18.5181C18.2944 12.9571 18.0779 12.874 17.9143 12.7214C17.7506 12.5688 17.6526 12.3587 17.6409 12.1353C17.6377 12.0233 17.657 11.9118 17.6977 11.8074C17.7384 11.703 17.7996 11.6078 17.8777 11.5275C17.9558 11.4472 18.0492 11.3833 18.1524 11.3398C18.2556 11.2962 18.3666 11.2738 18.4786 11.2738H22.1456C22.1446 9.37812 21.3908 7.56042 20.0499 6.22033C18.7091 4.88023 16.891 4.12744 14.9953 4.12744C13.0993 4.12744 11.2808 4.88051 9.93995 6.22102C8.59906 7.56154 7.84549 9.37975 7.84497 11.2758H11.3441C11.5668 11.2724 11.7822 11.3552 11.9453 11.5069C12.1084 11.6586 12.2066 11.8674 12.2193 12.0898C12.2225 12.2022 12.2031 12.314 12.1624 12.4187C12.1216 12.5235 12.0603 12.619 11.982 12.6996C11.9038 12.7803 11.8102 12.8445 11.7067 12.8884C11.6032 12.9323 11.492 12.955 11.3796 12.9552H7.84497V14.8994H11.3441C11.5668 14.8959 11.7822 14.9787 11.9453 15.1304C12.1084 15.2821 12.2066 15.491 12.2193 15.7134C12.2225 15.8257 12.2031 15.9376 12.1624 16.0423C12.1216 16.147 12.0603 16.2426 11.982 16.3232C11.9038 16.4039 11.8102 16.468 11.7067 16.5119C11.6032 16.5558 11.492 16.5785 11.3796 16.5788H7.84497V18.5229H11.3441C11.5668 18.5195 11.7822 18.6023 11.9453 18.754C12.1084 18.9057 12.2066 19.1146 12.2193 19.337C12.2225 19.4493 12.2031 19.5611 12.1624 19.6659C12.1216 19.7706 12.0603 19.8661 11.982 19.9468C11.9038 20.0274 11.8102 20.0916 11.7067 20.1355C11.6032 20.1794 11.492 20.2021 11.3796 20.2023H7.84497C7.84654 22.0977 8.60057 23.9149 9.94135 25.2546C11.2821 26.5942 13.0999 27.3467 14.9953 27.3467C16.891 27.3467 18.7091 26.5939 20.0499 25.2539C21.3908 23.9138 22.1446 22.0961 22.1456 20.2004H18.4786C18.2559 20.2004 18.0423 20.1119 17.8848 19.9544C17.7274 19.7969 17.6389 19.5834 17.6389 19.3607C17.6389 19.138 17.7274 18.9244 17.8848 18.7669C18.0423 18.6094 18.2559 18.521 18.4786 18.521H22.1456V16.5768H18.5181C18.2944 16.5807 18.0779 16.4976 17.9143 16.345C17.7506 16.1924 17.6526 15.9823 17.6409 15.7588C17.6377 15.6468 17.657 15.5353 17.6977 15.431C17.7384 15.3266 17.7996 15.2314 17.8777 15.1511C17.9558 15.0708 18.0492 15.0069 18.1524 14.9633C18.2556 14.9198 18.3666 14.8973 18.4786 14.8974Z" fill="#514EB6"/>
<path style="mix-blend-mode:multiply" d="M29.4342 16.4939C29.8688 14.5181 28.7545 12.4514 25.9766 12.4514C26.4585 12.5066 26.9032 12.7372 27.2261 13.0992C27.549 13.4612 27.7274 13.9293 27.7274 14.4143C27.7274 14.8994 27.549 15.3675 27.2261 15.7295C26.9032 16.0915 26.4585 16.3221 25.9766 16.3773V18.6633C26.6886 18.6205 27.3784 18.3994 27.9826 18.0204C28.5868 17.6413 29.0859 17.1163 29.4342 16.4939Z" fill="#514EB6"/>
<path style="mix-blend-mode:multiply" d="M0.556254 16.4939C0.121584 14.5181 1.23592 12.4514 4.01386 12.4514C3.53195 12.5066 3.08719 12.7372 2.76431 13.0992C2.44143 13.4612 2.26299 13.9293 2.26299 14.4143C2.26299 14.8994 2.44143 15.3675 2.76431 15.7295C3.08719 16.0915 3.53195 16.3221 4.01386 16.3773V18.6633C3.30187 18.6205 2.61205 18.3994 2.00785 18.0204C1.40366 17.6413 0.904487 17.1163 0.556254 16.4939Z" fill="#514EB6"/>
</svg>
