<svg width="30" height="37" viewBox="0 0 30 37" fill="none" xmlns="http://www.w3.org/2000/svg">
<path d="M25.9567 10.1634C25.6188 4.50279 20.8315 0 14.9951 0C9.15862 0 4.37132 4.50279 4.03347 10.1634C2.92427 10.2219 1.88185 10.7116 1.12861 11.5279C0.37537 12.3442 -0.0290514 13.4225 0.00162603 14.5329C0.0323035 15.6432 0.495651 16.6975 1.29282 17.471C2.08998 18.2445 3.15785 18.6759 4.26859 18.673H6.30166V10.8035C6.30166 6.10317 10.2058 2.27807 15.0049 2.27807C19.8041 2.27807 23.7082 6.10317 23.7082 10.8035V18.673H25.7314C26.8422 18.6759 27.91 18.2445 28.7072 17.471C29.5044 16.6975 29.9677 15.6432 29.9984 14.5329C30.029 13.4225 29.6246 12.3442 28.8714 11.5279C28.1181 10.7116 27.0757 10.2219 25.9665 10.1634H25.9567ZM4.01371 16.3772C3.5318 16.322 3.08704 16.0914 2.76416 15.7294C2.44128 15.3674 2.26284 14.8993 2.26284 14.4143C2.26284 13.9292 2.44128 13.4611 2.76416 13.0991C3.08704 12.7371 3.5318 12.5065 4.01371 12.4513V16.3772ZM25.9764 16.3772V12.4612C26.4583 12.5164 26.9031 12.747 27.226 13.109C27.5488 13.471 27.7273 13.9391 27.7273 14.4241C27.7273 14.9092 27.5488 15.3773 27.226 15.7393C26.9031 16.1013 26.4583 16.3319 25.9764 16.3871V16.3772Z" fill="#514EB6"/>
<path style="mix-blend-mode:multiply" d="M25.7215 18.6733H23.6983V10.8038C23.6983 6.60524 20.5845 3.11009 16.5006 2.40869C21.6376 3.10416 25.6484 7.30466 25.9566 12.4693H25.9764V18.6614C25.8914 18.6693 25.8065 18.6733 25.7215 18.6733ZM13.4895 2.40869C8.35247 3.10416 4.34165 7.30466 4.03343 12.4693H4.01367V18.6614C4.09863 18.6614 4.18359 18.6713 4.26855 18.6713H6.30162V10.8038C6.30162 6.60524 9.40556 3.11009 13.4895 2.40869Z" fill="#514EB6"/>
<path d="M23.6983 20.2004V20.6707C23.6983 25.371 19.7942 29.1961 14.995 29.1961C10.1959 29.1961 6.30162 25.371 6.30162 20.6707V20.2004H4.01367V20.6707C4.01367 26.2503 8.33469 30.8538 13.855 31.4169V34.345H13.2307C12.6265 34.345 12.047 34.585 11.6198 35.0122C11.1926 35.4395 10.9526 36.0189 10.9526 36.6231H19.0375C19.0375 36.0189 18.7975 35.4395 18.3702 35.0122C17.943 34.585 17.3636 34.345 16.7594 34.345H16.135V31.4169C21.6554 30.8538 25.9764 26.2503 25.9764 20.6707V20.2004H23.6983Z" fill="#514EB6"/>
<path style="mix-blend-mode:multiply" d="M13.8552 31.417V36.6232H16.1353V31.417C16.1353 31.417 15.2798 31.4723 14.9952 31.4723C14.7107 31.4723 13.8552 31.417 13.8552 31.417Z" fill="#514EB6"/>
<path d="M18.4786 14.8974H22.1456V12.9532H18.5181C18.2944 12.9571 18.0779 12.874 17.9143 12.7214C17.7506 12.5688 17.6526 12.3587 17.6409 12.1353C17.6377 12.0233 17.657 11.9118 17.6977 11.8074C17.7384 11.703 17.7996 11.6078 17.8777 11.5275C17.9558 11.4472 18.0492 11.3833 18.1524 11.3398C18.2556 11.2962 18.3666 11.2738 18.4786 11.2738H22.1456C22.1446 9.37812 21.3908 7.56042 20.0499 6.22033C18.7091 4.88023 16.891 4.12744 14.9953 4.12744C13.0993 4.12744 11.2808 4.88051 9.93995 6.22102C8.59906 7.56154 7.84549 9.37975 7.84497 11.2758H11.3441C11.5668 11.2724 11.7822 11.3552 11.9453 11.5069C12.1084 11.6586 12.2066 11.8674 12.2193 12.0898C12.2225 12.2022 12.2031 12.314 12.1624 12.4187C12.1216 12.5235 12.0603 12.619 11.982 12.6996C11.9038 12.7803 11.8102 12.8445 11.7067 12.8884C11.6032 12.9323 11.492 12.955 11.3796 12.9552H7.84497V14.8994H11.3441C11.5668 14.8959 11.7822 14.9787 11.9453 15.1304C12.1084 15.2821 12.2066 15.491 12.2193 15.7134C12.2225 15.8257 12.2031 15.9376 12.1624 16.0423C12.1216 16.147 12.0603 16.2426 11.982 16.3232C11.9038 16.4039 11.8102 16.468 11.7067 16.5119C11.6032 16.5558 11.492 16.5785 11.3796 16.5788H7.84497V18.5229H11.3441C11.5668 18.5195 11.7822 18.6023 11.9453 18.754C12.1084 18.9057 12.2066 19.1146 12.2193 19.337C12.2225 19.4493 12.2031 19.5611 12.1624 19.6659C12.1216 19.7706 12.0603 19.8661 11.982 19.9468C11.9038 20.0274 11.8102 20.0916 11.7067 20.1355C11.6032 20.1794 11.492 20.2021 11.3796 20.2023H7.84497C7.84654 22.0977 8.60057 23.9149 9.94135 25.2546C11.2821 26.5942 13.0999 27.3467 14.9953 27.3467C16.891 27.3467 18.7091 26.5939 20.0499 25.2539C21.3908 23.9138 22.1446 22.0961 22.1456 20.2004H18.4786C18.2559 20.2004 18.0423 20.1119 17.8848 19.9544C17.7274 19.7969 17.6389 19.5834 17.6389 19.3607C17.6389 19.138 17.7274 18.9244 17.8848 18.7669C18.0423 18.6094 18.2559 18.521 18.4786 18.521H22.1456V16.5768H18.5181C18.2944 16.5807 18.0779 16.4976 17.9143 16.345C17.7506 16.1924 17.6526 15.9823 17.6409 15.7588C17.6377 15.6468 17.657 15.5353 17.6977 15.431C17.7384 15.3266 17.7996 15.2314 17.8777 15.1511C17.9558 15.0708 18.0492 15.0069 18.1524 14.9633C18.2556 14.9198 18.3666 14.8973 18.4786 14.8974Z" fill="#514EB6"/>
<path style="mix-blend-mode:multiply" d="M29.4342 16.4939C29.8688 14.5181 28.7545 12.4514 25.9766 12.4514C26.4585 12.5066 26.9032 12.7372 27.2261 13.0992C27.549 13.4612 27.7274 13.9293 27.7274 14.4143C27.7274 14.8994 27.549 15.3675 27.2261 15.7295C26.9032 16.0915 26.4585 16.3221 25.9766 16.3773V18.6633C26.6886 18.6205 27.3784 18.3995 27.9826 18.0204C28.5868 17.6413 29.0859 17.1163 29.4342 16.4939Z" fill="#514EB6"/>
<path style="mix-blend-mode:multiply" d="M0.556254 16.4939C0.121584 14.5181 1.23592 12.4514 4.01386 12.4514C3.53195 12.5066 3.08719 12.7372 2.76431 13.0992C2.44143 13.4612 2.26299 13.9293 2.26299 14.4143C2.26299 14.8994 2.44143 15.3675 2.76431 15.7295C3.08719 16.0915 3.53195 16.3221 4.01386 16.3773V18.6633C3.30187 18.6205 2.61205 18.3995 2.00785 18.0204C1.40366 17.6413 0.904487 17.1163 0.556254 16.4939Z" fill="#514EB6"/>
</svg>
