<svg width="112" height="37" viewBox="0 0 112 37" fill="none" xmlns="http://www.w3.org/2000/svg">
<path d="M45.392 25.192C44.6453 25.192 43.9413 25.0587 43.28 24.792C42.6293 24.5147 42.064 24.1253 41.584 23.624C41.1147 23.1227 40.7627 22.5307 40.528 21.848L42.56 20.936C42.8587 21.5867 43.2693 22.0987 43.792 22.472C44.3253 22.8453 44.912 23.032 45.552 23.032C45.8933 23.032 46.1867 22.9787 46.432 22.872C46.6773 22.7653 46.8693 22.6213 47.008 22.44C47.1467 22.248 47.216 22.024 47.216 21.768C47.216 21.4907 47.1307 21.256 46.96 21.064C46.7893 20.8613 46.5227 20.7013 46.16 20.584L43.824 19.816C42.8747 19.5067 42.16 19.0693 41.68 18.504C41.2 17.928 40.96 17.24 40.96 16.44C40.96 15.736 41.1307 15.1173 41.472 14.584C41.824 14.0507 42.3093 13.6347 42.928 13.336C43.5573 13.0373 44.2773 12.888 45.088 12.888C45.8027 12.888 46.464 13.0107 47.072 13.256C47.68 13.5013 48.2027 13.848 48.64 14.296C49.088 14.744 49.424 15.2827 49.648 15.912L47.632 16.824C47.408 16.2693 47.072 15.8373 46.624 15.528C46.176 15.208 45.664 15.048 45.088 15.048C44.7573 15.048 44.464 15.1013 44.208 15.208C43.952 15.3147 43.7547 15.4693 43.616 15.672C43.4773 15.864 43.408 16.088 43.408 16.344C43.408 16.6213 43.4987 16.8667 43.68 17.08C43.8613 17.2827 44.1333 17.4427 44.496 17.56L46.784 18.296C47.744 18.6053 48.4587 19.0373 48.928 19.592C49.408 20.1467 49.648 20.824 49.648 21.624C49.648 22.3173 49.4667 22.936 49.104 23.48C48.7413 24.0133 48.24 24.4347 47.6 24.744C46.9707 25.0427 46.2347 25.192 45.392 25.192ZM51.2394 25V12.888H53.6394V20.648L52.7434 20.36L56.5994 16.264H59.5594L56.3914 19.784L59.5434 25H56.8234L54.1834 20.568L55.5754 20.216L52.9034 23.128L53.6394 21.736V25H51.2394ZM61.9744 28.552C61.7184 28.552 61.4677 28.5307 61.2224 28.488C60.9877 28.4453 60.7797 28.376 60.5984 28.28V26.312C60.7477 26.3547 60.9237 26.392 61.1264 26.424C61.329 26.456 61.5157 26.472 61.6864 26.472C62.1557 26.472 62.4917 26.36 62.6944 26.136C62.897 25.912 63.0624 25.656 63.1904 25.368L63.7824 24.008L63.7504 26.008L59.9104 16.264H62.4864L65.0304 23.192H64.0704L66.6144 16.264H69.1904L65.4464 25.816C65.2117 26.424 64.9237 26.9307 64.5824 27.336C64.241 27.7413 63.8517 28.0453 63.4144 28.248C62.9877 28.4507 62.5077 28.552 61.9744 28.552ZM74.3711 25.192C73.4965 25.192 72.7071 24.9947 72.0031 24.6C71.3098 24.1947 70.7551 23.6453 70.3391 22.952C69.9338 22.2587 69.7311 21.48 69.7311 20.616C69.7311 19.752 69.9338 18.9787 70.3391 18.296C70.7445 17.6027 71.2991 17.0587 72.0031 16.664C72.7071 16.2693 73.4965 16.072 74.3711 16.072C75.0218 16.072 75.6245 16.184 76.1791 16.408C76.7338 16.632 77.2085 16.9467 77.6031 17.352C77.9978 17.7467 78.2805 18.216 78.4511 18.76L76.3711 19.656C76.2218 19.2187 75.9658 18.872 75.6031 18.616C75.2511 18.36 74.8405 18.232 74.3711 18.232C73.9551 18.232 73.5818 18.3333 73.2511 18.536C72.9311 18.7387 72.6751 19.0213 72.4831 19.384C72.3018 19.7467 72.2111 20.1627 72.2111 20.632C72.2111 21.1013 72.3018 21.5173 72.4831 21.88C72.6751 22.2427 72.9311 22.5253 73.2511 22.728C73.5818 22.9307 73.9551 23.032 74.3711 23.032C74.8511 23.032 75.2671 22.904 75.6191 22.648C75.9711 22.392 76.2218 22.0453 76.3711 21.608L78.4511 22.52C78.2911 23.032 78.0138 23.4907 77.6191 23.896C77.2245 24.3013 76.7498 24.6213 76.1951 24.856C75.6405 25.08 75.0325 25.192 74.3711 25.192ZM82.5684 25.192C81.939 25.192 81.395 25.0907 80.9364 24.888C80.4777 24.6853 80.1257 24.3973 79.8804 24.024C79.635 23.64 79.5124 23.1867 79.5124 22.664C79.5124 22.1733 79.6244 21.7413 79.8484 21.368C80.0724 20.984 80.4137 20.664 80.8724 20.408C81.3417 20.152 81.923 19.9707 82.6164 19.864L85.2884 19.432V21.192L83.0484 21.592C82.707 21.656 82.4457 21.768 82.2644 21.928C82.083 22.0773 81.9924 22.296 81.9924 22.584C81.9924 22.8507 82.0937 23.0587 82.2964 23.208C82.499 23.3573 82.7497 23.432 83.0484 23.432C83.443 23.432 83.7897 23.3467 84.0884 23.176C84.387 23.0053 84.6164 22.776 84.7764 22.488C84.947 22.1893 85.0324 21.864 85.0324 21.512V19.24C85.0324 18.9093 84.899 18.632 84.6324 18.408C84.3764 18.184 84.0244 18.072 83.5764 18.072C83.1497 18.072 82.771 18.1893 82.4404 18.424C82.1204 18.6587 81.8857 18.968 81.7364 19.352L79.8164 18.44C79.987 17.9493 80.259 17.528 80.6324 17.176C81.0057 16.824 81.4537 16.552 81.9764 16.36C82.499 16.168 83.0697 16.072 83.6884 16.072C84.4244 16.072 85.075 16.2053 85.6404 16.472C86.2057 16.7387 86.643 17.112 86.9524 17.592C87.2724 18.0613 87.4324 18.6107 87.4324 19.24V25H85.1924V23.592L85.7364 23.496C85.4804 23.88 85.1977 24.2 84.8884 24.456C84.579 24.7013 84.2324 24.8827 83.8484 25C83.4644 25.128 83.0377 25.192 82.5684 25.192ZM92.6165 25.192C91.6565 25.192 90.8192 24.968 90.1045 24.52C89.4005 24.0613 88.9205 23.448 88.6645 22.68L90.4245 21.848C90.6485 22.3173 90.9525 22.6853 91.3365 22.952C91.7205 23.2187 92.1472 23.352 92.6165 23.352C92.9578 23.352 93.2192 23.2827 93.4005 23.144C93.5818 23.0053 93.6725 22.8133 93.6725 22.568C93.6725 22.44 93.6405 22.3333 93.5765 22.248C93.5125 22.152 93.4165 22.0667 93.2885 21.992C93.1605 21.9173 93.0005 21.8533 92.8085 21.8L91.3205 21.384C90.6058 21.1813 90.0565 20.856 89.6725 20.408C89.2885 19.9493 89.0965 19.4107 89.0965 18.792C89.0965 18.248 89.2352 17.7733 89.5125 17.368C89.7898 16.9627 90.1792 16.648 90.6805 16.424C91.1818 16.1893 91.7578 16.072 92.4085 16.072C93.2618 16.072 94.0085 16.2747 94.6485 16.68C95.2992 17.0747 95.7578 17.6347 96.0245 18.36L94.2485 19.192C94.1205 18.8293 93.8858 18.5413 93.5445 18.328C93.2138 18.104 92.8352 17.992 92.4085 17.992C92.0992 17.992 91.8538 18.056 91.6725 18.184C91.5018 18.312 91.4165 18.488 91.4165 18.712C91.4165 18.8293 91.4485 18.936 91.5125 19.032C91.5765 19.128 91.6778 19.2133 91.8165 19.288C91.9658 19.3627 92.1472 19.432 92.3605 19.496L93.7525 19.912C94.4778 20.1253 95.0325 20.4507 95.4165 20.888C95.8005 21.3147 95.9925 21.8427 95.9925 22.472C95.9925 23.016 95.8485 23.4907 95.5605 23.896C95.2832 24.3013 94.8938 24.6213 94.3925 24.856C93.8912 25.08 93.2992 25.192 92.6165 25.192ZM101.635 25.096C100.579 25.096 99.7575 24.8133 99.1709 24.248C98.5949 23.672 98.3069 22.872 98.3069 21.848V18.344H96.8349V16.264H96.9149C97.3629 16.264 97.7042 16.152 97.9389 15.928C98.1842 15.704 98.3069 15.368 98.3069 14.92V14.28H100.707V16.264H102.755V18.344H100.707V21.688C100.707 21.9867 100.76 22.2373 100.867 22.44C100.974 22.632 101.139 22.776 101.363 22.872C101.587 22.968 101.864 23.016 102.195 23.016C102.27 23.016 102.355 23.0107 102.451 23C102.547 22.9893 102.648 22.9787 102.755 22.968V25C102.595 25.0213 102.414 25.0427 102.211 25.064C102.008 25.0853 101.816 25.096 101.635 25.096Z" fill="#FEFEFE"/>
<path d="M25.9567 10.1634C25.6188 4.50279 20.8315 0 14.9951 0C9.15862 0 4.37132 4.50279 4.03347 10.1634C2.92427 10.2219 1.88185 10.7116 1.12861 11.5279C0.37537 12.3442 -0.0290514 13.4225 0.00162603 14.5329C0.0323035 15.6432 0.495651 16.6975 1.29282 17.471C2.08998 18.2445 3.15785 18.6759 4.26859 18.673H6.30166V10.8035C6.30166 6.10317 10.2058 2.27807 15.0049 2.27807C19.8041 2.27807 23.7082 6.10317 23.7082 10.8035V18.673H25.7314C26.8422 18.6759 27.91 18.2445 28.7072 17.471C29.5044 16.6975 29.9677 15.6432 29.9984 14.5329C30.029 13.4225 29.6246 12.3442 28.8714 11.5279C28.1181 10.7116 27.0757 10.2219 25.9665 10.1634H25.9567ZM4.01371 16.3772C3.5318 16.322 3.08704 16.0914 2.76416 15.7294C2.44128 15.3674 2.26284 14.8993 2.26284 14.4143C2.26284 13.9292 2.44128 13.4611 2.76416 13.0991C3.08704 12.7371 3.5318 12.5065 4.01371 12.4513V16.3772ZM25.9764 16.3772V12.4612C26.4583 12.5164 26.9031 12.747 27.226 13.109C27.5488 13.471 27.7273 13.9391 27.7273 14.4241C27.7273 14.9092 27.5488 15.3773 27.226 15.7393C26.9031 16.1013 26.4583 16.3319 25.9764 16.3871V16.3772Z" fill="#FEFEFE"/>
<path style="mix-blend-mode:multiply" d="M25.7215 18.6733H23.6983V10.8038C23.6983 6.60524 20.5845 3.11009 16.5006 2.40869C21.6376 3.10416 25.6484 7.30466 25.9566 12.4693H25.9764V18.6614C25.8914 18.6693 25.8065 18.6733 25.7215 18.6733ZM13.4895 2.40869C8.35247 3.10416 4.34165 7.30466 4.03343 12.4693H4.01367V18.6614C4.09863 18.6614 4.18359 18.6713 4.26855 18.6713H6.30162V10.8038C6.30162 6.60524 9.40556 3.11009 13.4895 2.40869Z" fill="#FEFEFE"/>
<path d="M23.6983 20.2004V20.6707C23.6983 25.371 19.7942 29.1961 14.995 29.1961C10.1959 29.1961 6.30162 25.371 6.30162 20.6707V20.2004H4.01367V20.6707C4.01367 26.2503 8.33469 30.8538 13.855 31.4169V34.345H13.2307C12.6265 34.345 12.047 34.585 11.6198 35.0122C11.1926 35.4395 10.9526 36.0189 10.9526 36.6231H19.0375C19.0375 36.0189 18.7975 35.4395 18.3702 35.0122C17.943 34.585 17.3636 34.345 16.7594 34.345H16.135V31.4169C21.6554 30.8538 25.9764 26.2503 25.9764 20.6707V20.2004H23.6983Z" fill="#FEFEFE"/>
<path style="mix-blend-mode:multiply" d="M13.8552 31.417V36.6232H16.1353V31.417C16.1353 31.417 15.2798 31.4723 14.9952 31.4723C14.7107 31.4723 13.8552 31.417 13.8552 31.417Z" fill="#FEFEFE"/>
<path d="M18.4786 14.8974H22.1456V12.9532H18.5181C18.2944 12.9571 18.0779 12.874 17.9143 12.7214C17.7506 12.5688 17.6526 12.3587 17.6409 12.1353C17.6377 12.0233 17.657 11.9118 17.6977 11.8074C17.7384 11.703 17.7996 11.6078 17.8777 11.5275C17.9558 11.4472 18.0492 11.3833 18.1524 11.3398C18.2556 11.2962 18.3666 11.2738 18.4786 11.2738H22.1456C22.1446 9.37812 21.3908 7.56042 20.0499 6.22033C18.7091 4.88023 16.891 4.12744 14.9953 4.12744C13.0993 4.12744 11.2808 4.88051 9.93995 6.22102C8.59906 7.56154 7.84549 9.37975 7.84497 11.2758H11.3441C11.5668 11.2724 11.7822 11.3552 11.9453 11.5069C12.1084 11.6586 12.2066 11.8674 12.2193 12.0898C12.2225 12.2022 12.2031 12.314 12.1624 12.4187C12.1216 12.5235 12.0603 12.619 11.982 12.6996C11.9038 12.7803 11.8102 12.8445 11.7067 12.8884C11.6032 12.9323 11.492 12.955 11.3796 12.9552H7.84497V14.8994H11.3441C11.5668 14.8959 11.7822 14.9787 11.9453 15.1304C12.1084 15.2821 12.2066 15.491 12.2193 15.7134C12.2225 15.8257 12.2031 15.9376 12.1624 16.0423C12.1216 16.147 12.0603 16.2426 11.982 16.3232C11.9038 16.4039 11.8102 16.468 11.7067 16.5119C11.6032 16.5558 11.492 16.5785 11.3796 16.5788H7.84497V18.5229H11.3441C11.5668 18.5195 11.7822 18.6023 11.9453 18.754C12.1084 18.9057 12.2066 19.1146 12.2193 19.337C12.2225 19.4493 12.2031 19.5611 12.1624 19.6659C12.1216 19.7706 12.0603 19.8661 11.982 19.9468C11.9038 20.0274 11.8102 20.0916 11.7067 20.1355C11.6032 20.1794 11.492 20.2021 11.3796 20.2023H7.84497C7.84654 22.0977 8.60057 23.9149 9.94135 25.2546C11.2821 26.5942 13.0999 27.3467 14.9953 27.3467C16.891 27.3467 18.7091 26.5939 20.0499 25.2539C21.3908 23.9138 22.1446 22.0961 22.1456 20.2004H18.4786C18.2559 20.2004 18.0423 20.1119 17.8848 19.9544C17.7274 19.7969 17.6389 19.5834 17.6389 19.3607C17.6389 19.138 17.7274 18.9244 17.8848 18.7669C18.0423 18.6094 18.2559 18.521 18.4786 18.521H22.1456V16.5768H18.5181C18.2944 16.5807 18.0779 16.4976 17.9143 16.345C17.7506 16.1924 17.6526 15.9823 17.6409 15.7588C17.6377 15.6468 17.657 15.5353 17.6977 15.431C17.7384 15.3266 17.7996 15.2314 17.8777 15.1511C17.9558 15.0708 18.0492 15.0069 18.1524 14.9633C18.2556 14.9198 18.3666 14.8973 18.4786 14.8974Z" fill="#FEFEFE"/>
<path style="mix-blend-mode:multiply" d="M29.4342 16.4939C29.8688 14.5181 28.7545 12.4514 25.9766 12.4514C26.4585 12.5066 26.9032 12.7372 27.2261 13.0992C27.549 13.4612 27.7274 13.9293 27.7274 14.4143C27.7274 14.8994 27.549 15.3675 27.2261 15.7295C26.9032 16.0915 26.4585 16.3221 25.9766 16.3773V18.6633C26.6886 18.6205 27.3784 18.3995 27.9826 18.0204C28.5868 17.6413 29.0859 17.1163 29.4342 16.4939Z" fill="#FEFEFE"/>
<path style="mix-blend-mode:multiply" d="M0.556254 16.4939C0.121584 14.5181 1.23592 12.4514 4.01386 12.4514C3.53195 12.5066 3.08719 12.7372 2.76431 13.0992C2.44143 13.4612 2.26299 13.9293 2.26299 14.4143C2.26299 14.8994 2.44143 15.3675 2.76431 15.7295C3.08719 16.0915 3.53195 16.3221 4.01386 16.3773V18.6633C3.30187 18.6205 2.61205 18.3995 2.00785 18.0204C1.40366 17.6413 0.904487 17.1163 0.556254 16.4939Z" fill="#FEFEFE"/>
</svg>
