<svg width="281" height="70" viewBox="0 0 281 70" fill="none" xmlns="http://www.w3.org/2000/svg">
<path fill-rule="evenodd" clip-rule="evenodd" d="M279.368 38.2211C276.792 38.2569 274.22 38.229 271.645 38.2211L262.905 38.2676C260.947 38.3473 258.99 38.4252 257.032 38.5014C256.993 38.5014 256.953 38.4177 256.913 38.3685L256.384 38.3831C256.324 38.4947 256.265 38.7033 256.202 38.706C253.294 38.8149 250.381 38.896 247.478 39.0023C245.838 39.062 244.199 39.1351 242.561 39.2587C242.148 39.2906 241.547 39.8631 241.366 39.6466C240.184 38.2343 239.266 39.248 238.368 40.0651L237.223 38.8601L235.028 40.3866C234.701 39.7994 234.399 39.2613 233.991 38.5266C232.834 41.2196 231.656 39.6891 230.451 38.7366L229.805 40.3654L227.304 39.2693L226.446 40.4464C225.983 38.9783 224.896 41.2302 224.388 39.8127C224.38 39.7914 223.8 40.3308 223.499 40.3082C223.168 40.2843 222.85 39.9097 222.468 39.6532C222.358 40.2232 222.258 40.7493 222.172 41.193C221.365 41.4415 220.805 41.3259 220.718 40.1089C220.05 40.841 220.027 39.2175 219.373 39.527C219.278 39.8539 219.162 40.2936 219.036 40.7347C218.978 40.7137 218.922 40.687 218.868 40.655V37.8411C218.777 37.829 218.686 37.8316 218.596 37.8491C218.547 39.1856 218.494 40.5235 218.444 41.86C217.525 40.6377 216.714 39.903 215.546 40.7971C215.404 41.3671 215.238 42.0314 215.095 42.6119L213.387 40.1289C212.898 40.9194 212.395 41.7231 211.916 42.4937C211.378 41.6793 211.013 41.0934 210.383 40.178V37.8624C210.312 37.8503 210.241 37.8476 210.169 37.8544C210.054 39.4367 209.941 41.019 209.788 43.0676C209.439 41.9662 209.255 41.3764 209.024 40.651L208.356 43.3347L208.043 43.2363C207.975 42.5853 207.907 41.9357 207.802 40.9353C207.645 41.6554 207.576 41.9729 207.5 42.3197L206.793 41.5159C206.729 43.0929 206.679 44.3324 206.628 45.5719H206.423L205.85 40.6988C205.503 42.0885 205.273 42.9839 205.049 43.8794C204.975 43.8687 204.922 43.8568 204.822 43.8462V40.5022L204.637 40.4889C204.523 41.3923 204.412 42.2957 204.298 43.1991L204.056 43.1274C203.899 41.9512 203.742 40.7763 203.585 39.6028C203.454 42.1642 203.864 44.7841 203.09 47.4718C202.952 45.3062 202.825 43.3254 202.698 41.3458L202.383 41.3697C202.213 42.1934 202.039 43.0171 201.869 43.8408L201.574 43.7943V40.3972L201.176 40.4078C201.125 41.7298 201.076 43.053 201.021 44.4652C200.812 44.2075 200.692 44.0574 200.543 43.8767C200.37 45.9399 200.205 47.9075 200.002 50.3162C199.837 47.8624 199.704 45.8669 199.57 43.8714L199.198 40.8689L198.953 40.91C198.911 41.8865 198.871 42.863 198.818 44.0866C198.493 42.7142 198.257 41.654 197.992 40.5939V44.4692C196.964 43.991 197.026 44.9223 197.018 45.7075C197.002 47.509 197.013 49.3091 197.013 51.1107C196.541 48.1188 196.308 45.1322 196.09 42.1456C196.04 41.4813 196.04 40.7985 196.017 40.1249L195.9 40.1408L195.511 43.9298L195.196 43.8727L195.093 41.3631L194.889 41.3565L194.76 45.4364L194.333 45.4152C194.259 44.2301 194.185 43.0455 194.112 41.8613L193.683 41.8892V52.4272L193.344 52.418C193.122 48.0107 192.902 43.6035 192.684 39.1962L192.358 39.2201V42.6266C191.066 42.9733 190.496 43.8289 190.476 45.4457C190.452 47.3642 190.466 49.2839 190.466 51.2023C189.709 48.3845 190.043 45.1973 188.549 42.7474C188.414 43.5725 188.278 44.3975 188.141 45.2318C187.95 44.7735 187.749 44.3111 187.555 43.8475C187.468 43.8674 187.386 43.8873 187.287 43.9059V51.7564C186.856 49.2786 186.428 47.0134 185.925 44.254C185.804 45.2465 185.748 45.7234 185.656 46.49C185.179 45.3168 184.791 44.3776 184.268 43.1008C184.117 45.8908 184.337 48.2941 184.112 50.6364L183.68 50.6178C183.629 49.3025 183.578 47.9872 183.525 46.672L183.238 46.7039V50.7785C183.205 50.7785 183.143 50.7852 183.094 50.7878C182.988 49.9655 182.883 49.1418 182.738 48.0244C182.411 48.6356 182.284 48.8734 182.22 48.9943C181.884 47.1795 181.548 45.3487 181.171 43.3068C179.394 47.4 180.611 51.8387 179.966 55.8881C179.818 55.8762 179.66 55.8655 179.527 55.8536V47.5568C179.432 47.5634 179.373 47.5701 179.298 47.5767C179.231 48.6303 179.163 49.6851 179.097 50.74L178.61 50.7054C178.396 46.8526 178.182 42.9999 177.968 39.1471C177.866 40.0518 177.682 40.9539 177.675 41.8586C177.641 45.4139 177.666 48.9691 177.666 52.5256H177.34V40.5168H177.065C176.912 45.3713 176.757 50.2263 176.601 55.0817H176.428C176.334 52.2174 176.24 49.3525 176.146 46.4873L175.907 46.0595C175.88 46.1153 175.829 46.1698 175.829 46.2269C175.829 47.7707 175.829 49.3145 175.829 50.8596L175.429 50.8742C175.338 49.3955 175.258 47.9168 175.154 46.4395C174.972 43.8807 174.772 41.3232 174.581 38.7644C174.554 43.3701 174.527 47.9757 174.499 52.5814L173.972 52.604C173.822 49.337 173.972 46.0356 173.872 42.7634C173.759 42.7634 173.661 42.7753 173.529 42.7807V59.8273C173.164 55.7978 173.072 51.7696 172.956 47.7375C172.932 46.8992 172.765 46.0701 172.67 45.2371V48.2251L172.257 48.2543C172.077 46.823 171.897 45.3921 171.717 43.9617C171.616 44.6499 171.474 45.3328 171.423 46.0276C171.259 48.2025 171.123 50.3839 170.981 52.5628L170.814 52.5508V37.8172H170.432C170.444 43.9471 170.474 50.0757 170.458 56.2057C170.458 57.0028 170.241 57.7919 170.124 58.5851C169.855 55.0551 169.876 51.5969 169.838 48.1387C169.829 47.3057 169.647 46.4767 169.539 45.6463L169.187 49.1099L168.959 49.062C168.838 47.5059 168.718 45.9492 168.599 44.3922C168.498 45.2225 168.335 46.0502 168.313 46.8845C168.265 48.3566 168.299 49.8326 168.299 51.3073L167.884 51.3232C167.419 47.307 167.841 43.2031 167.481 39.1697L167.026 58.1374C166.74 54.3019 166.753 50.4769 166.723 46.6534C166.715 45.7327 166.545 44.8147 166.45 43.8953C166.338 44.6313 166.151 45.3567 166.128 46.102C166.079 47.7082 166.113 49.3185 166.113 50.926H165.784C165.784 49.8751 165.808 48.8216 165.757 47.776C165.749 47.6259 165.375 47.5103 165.176 47.3775C165.072 48.2105 164.89 49.0408 164.88 49.8751C164.839 52.2253 164.866 54.5782 164.866 56.9297H164.638C164.472 52.3312 164.306 47.7326 164.14 43.134L163.919 43.1433V45.2783C163.919 50.8503 163.925 56.4209 163.908 61.9928C163.908 62.673 163.773 63.3533 163.702 64.0335L163.294 63.9551V61.8294C163.294 57.4877 163.311 53.146 163.283 48.8096C163.283 48.051 163.092 47.2964 162.988 46.5391C162.907 49.7489 162.828 52.9587 162.748 56.1685H162.441C162.314 52.3785 162.184 48.5891 162.051 44.8C161.945 45.6277 161.754 46.4554 161.749 47.2844C161.721 52.6425 161.737 58.0005 161.737 63.3599V66.0529C161.339 62.0964 161.184 58.144 161.126 54.1889C161.068 50.2338 161.113 46.2668 161.113 42.3064L160.899 42.313C160.74 49.6563 160.581 57.0001 160.422 64.3444H160.145V45.7832H159.941C159.777 49.5031 159.614 53.2266 159.45 56.9536L159.369 56.9603C159.225 54.2243 159.082 51.4893 158.939 48.7551C158.333 52.7807 159.063 56.9018 158.134 60.8569C158.041 60.5928 157.993 60.3022 157.994 60.008C157.885 55.463 157.786 50.918 157.658 46.3731C157.643 45.8284 157.46 45.2916 157.361 44.7509V60.7932H157.053C157.053 58.5585 157.116 56.3199 157.044 54.0893C156.973 51.8586 157.394 49.5137 156.433 47.3588V58.7392H156.253C156.101 56.2592 155.949 53.7815 155.799 51.306C155.252 54.1863 155.902 57.1981 154.809 59.9907V44.9781L154.278 44.9674C154.19 50.6669 154.288 56.3784 154.056 62.0765C153.802 58.4775 153.722 54.8811 153.609 51.2874C153.582 50.4491 153.418 49.6187 153.323 48.7857V55.6198L152.925 55.6078V46.6281C151.532 50.2152 152.303 54.1105 151.8 57.8305C151.216 51.8919 151.595 45.9094 151.239 39.9588C151.111 45.2013 150.98 50.4433 150.844 55.6849H150.472V48.6435C150.207 49.357 150.186 50.0638 150.186 50.7692C150.186 54.8877 150.207 59.0182 150.173 63.1434C150.164 64.1371 149.982 65.1269 149.873 66.118L149.67 66.0728C149.542 60.8427 149.415 55.6127 149.288 50.3826H149.058C148.91 54.1708 148.762 57.9585 148.615 61.7457H148.315V59.7077C148.315 53.4848 148.328 47.2605 148.304 41.0376C148.304 39.9668 148.134 38.8986 148.043 37.8291C148.008 37.6957 148.008 37.5494 148.043 37.416C147.995 37.2021 147.947 36.9868 147.816 36.385C147.729 37.1609 147.689 37.4996 147.656 37.8464V57.319H147.324V47.8624C146.86 52.2067 147.456 56.6188 146.544 60.9047C146.438 56.6534 146.456 52.402 146.426 48.1613C146.42 47.3336 146.235 46.5099 146.14 45.6836C146.14 47.6405 146.204 49.6014 146.12 51.5504C145.941 55.7114 145.686 59.8671 145.462 64.0242C145.284 63.7465 145.189 63.3831 145.199 63.0105C145.105 54.4794 145.014 45.9488 144.926 37.4186L144.811 35.5586H144.642C144.606 36.3159 144.575 37.0732 144.541 37.8305V52.5428H144.21V49.5975L143.866 49.6054C143.758 55.9824 143.649 62.3595 143.538 68.7365H143.315V47.7601H143.016V63.4981L142.719 63.506V59.1218C142.42 59.7369 142.317 59.996 142.198 60.2551L141.857 60.2644V52.2452C141.762 52.2559 141.666 52.2678 141.583 52.2785C141.433 53.5897 141.273 54.901 141.124 56.211C141.019 56.199 140.933 56.1871 140.797 56.1751V46.4767H140.465V64.7137L140.134 64.7044V61.3285C140.068 61.3285 140.038 61.3378 139.989 61.3418C139.82 63.8094 139.651 66.2756 139.481 68.7405H139.265V66.6029C139.265 60.7387 139.277 54.8731 139.25 49.0076C139.25 48.1825 139.059 47.3575 138.95 46.5325L138.939 53.0238L138.505 53.041C138.321 50.9889 138.139 48.9371 137.957 46.8859L137.714 46.9071V53.1354L137.524 53.1832C137.437 52.8245 137.348 52.4671 137.261 52.1097H137.03C136.809 58.0732 136.586 64.0366 136.362 70C136.274 63.3971 136.278 56.8128 134.953 50.4969C134.916 50.8662 134.857 51.3804 134.768 52.3103C134.577 50.2484 134.429 48.6409 134.264 47.0333V66.0183H133.733V48.6834H133.302V59.2348C132.905 54.8506 133.381 50.3653 132.181 46.2575C132.033 52.2359 131.889 58.3632 131.737 64.4586H131.413V50.0186H131.082V55.2093C131.049 55.2093 130.987 55.2013 130.941 55.1986C130.776 52.7302 130.612 50.2613 130.448 47.7919C130.203 48.5147 130.24 49.2268 130.194 49.9296C130.148 50.6324 130.024 51.3007 129.933 51.9849L129.582 51.945C129.425 51.2462 129.266 50.5474 129.105 49.8485L128.802 49.8578C128.72 51.6833 128.639 53.5083 128.557 55.3328C128.322 52.6757 128.345 50.0279 128.31 47.3801C128.299 46.5444 128.132 45.7128 128.038 44.8798C127.925 52.3126 127.811 59.7463 127.695 67.1808C127.678 67.5435 127.646 67.9046 127.6 68.2622L127.364 68.2383V48.6994H127.188C127.075 54.0764 126.963 59.454 126.853 64.8319L126.503 64.824V37.8185C126.468 37.6872 126.468 37.5433 126.503 37.412C126.455 37.1875 126.407 36.9629 126.271 36.3319C126.183 37.1356 126.143 37.4851 126.105 37.8358C126.117 39.644 126.137 41.4521 126.14 43.2602C126.14 45.9373 126.079 48.6183 126.151 51.2914C126.226 54.0215 124.66 56.1419 124.782 58.8641C124.787 58.9903 124.584 59.1298 124.252 59.5284V46.9071H123.998C123.84 52.1558 123.684 57.4054 123.528 62.6558H123.443C123.278 58.1582 123.114 53.661 122.952 49.1643L122.665 49.1776V68.3088H122.475C122.309 64.0866 122.143 59.8645 121.963 55.2531C121.772 57.2791 121.625 58.892 121.476 60.5062C121.359 62.2333 121.738 64.0561 120.776 66.118V51.3711L120.511 51.379V65.2119H120.336C120.174 62.4397 120.01 59.6674 119.845 56.8952L119.696 56.8805C119.623 57.4864 119.549 58.0927 119.476 58.6994C119.228 57.2938 119.572 55.6569 119.147 54.6194C118.517 53.0649 118.681 51.5823 118.656 50.0585C118.609 47.0905 118.662 44.1185 118.636 41.1492C118.63 40.3746 118.486 39.6014 118.404 38.8282C118.382 40.922 118.394 43.0171 118.326 45.1083C118.26 47.1503 118.119 49.1869 118.008 51.2276L117.694 51.2023V44.7589L117.509 44.7482C117.335 46.8102 117.161 48.8712 116.986 50.9313L116.766 50.9154V43.4024H116.593C116.437 47.5121 116.281 51.6217 116.127 55.7314H115.805V49.5284L115.606 49.5443C115.554 49.8233 115.501 50.101 115.45 50.3786C115.374 51.2329 115.308 52.0898 115.215 52.9414C115.12 53.8581 114.984 54.7695 114.871 55.6835C114.754 55.6676 114.645 55.6503 114.512 55.6344V48.3274L114.396 48.3433C114.238 51.7745 114.082 55.2066 113.928 58.6395C113.653 53.5658 113.673 48.508 113.642 43.4502C113.642 42.7288 113.416 42.0114 113.316 41.2914V54.3191H113.096C113.057 53.2829 113.016 52.2466 112.958 50.732C112.76 51.5743 112.672 51.9277 112.589 52.2904L112.33 52.2771C112.127 48.7441 111.924 45.2119 111.721 41.6806L111.416 41.6354C111.181 43.2908 110.946 44.9475 110.688 46.7543L110.331 45.2929C110.155 49.81 109.995 54.0282 109.83 58.245L109.604 58.233V49.5842C108.179 49.636 108.986 51.5278 108.445 52.3741C108.322 52.1801 108.135 52.026 108.135 51.8693C108.104 47.1874 108.09 42.5056 108.074 37.8238C108.034 37.1038 107.994 36.3841 107.953 35.6649L107.778 35.6849L107.682 37.8252C107.686 44.126 107.686 50.4278 107.682 56.7304C107.682 56.9271 107.587 57.129 107.521 57.319C107.491 57.3771 107.448 57.4204 107.399 57.4425C107.298 57.4797 107.195 57.5081 107.092 57.5276C107.092 54.3895 107.112 51.29 107.078 48.1905C107.069 47.3588 106.892 46.5298 106.792 45.7008C106.785 47.3602 106.841 49.0222 106.745 50.6776C106.697 51.5026 106.37 52.2944 106.173 53.1022C106.034 53.0583 105.886 53.0145 105.756 52.9693V45.5919C105.631 45.7622 105.548 45.9824 105.518 46.2216C105.478 46.3777 105.43 46.5292 105.373 46.6746L105.148 46.6468L104.796 41.7484L104.707 41.767C104.546 44.8146 104.387 47.8632 104.23 50.9127C103.974 47.8132 103.995 44.723 103.961 41.6354C103.951 40.8104 103.77 39.9894 103.668 39.1657L103.381 50.8915L102.927 50.914C102.858 49.4579 102.788 48.0014 102.717 46.5444C101.827 46.7358 102.115 47.7401 102.102 48.4363C102.061 50.5394 102.086 52.6452 102.086 54.7496L101.64 54.7735C101.554 53.0198 101.469 51.2665 101.385 49.5137H101.182V57.408H100.908C100.746 52.6252 100.584 47.846 100.422 43.0703L100.35 43.0822C100.196 47.4399 100.042 51.7966 99.8876 56.1525L99.4353 56.1804C99.0889 53.4104 99.4582 50.5434 98.9582 47.7587V51.7058H98.7673C98.6585 49.0859 98.5574 46.4647 98.4495 43.8448L98.0325 43.8661V53.4981C97.6021 50.546 97.6508 47.5023 96.7719 44.7296L96.4093 44.7868V49.1099C96.2432 49.8964 95.9569 50.6656 95.8682 51.4734C95.6993 52.9985 95.6334 54.545 95.5246 56.0834C95.2508 55.4457 95.2603 54.3297 95.0943 54.2766C93.8652 53.886 94.3814 52.6531 94.3413 51.6899C94.1896 51.6275 93.9091 51.4959 93.9043 51.5119C93.7067 52.228 93.4119 52.9481 93.3813 53.6881C93.3069 55.4816 93.3575 57.2844 93.3575 59.0833C93.2562 58.9941 93.1739 58.8689 93.119 58.7206C93.0642 58.5723 93.0388 58.4062 93.0454 58.2397C93.0235 56.3598 93.4004 54.2434 92.9051 52.6505C91.9862 49.6958 92.157 46.7357 92.0883 43.7319C92.0759 43.1487 91.9623 42.5694 91.8974 41.9875C91.7562 42.0021 91.6359 42.0167 91.4709 42.0327V50.3839L91.2056 50.376V37.8252H90.8076V42.7142C90.5757 42.0194 90.5089 41.8267 90.3515 41.3671C90.1454 43.0942 89.9698 44.5994 89.7923 46.0994L89.548 46.0728V41.763C89.2836 43.5047 89.338 45.2345 89.2779 46.9589C89.2216 48.5824 89.548 50.2936 89.0384 51.84L88.6567 51.8055V46.9071H88.4811C88.1719 49.7866 87.864 52.6651 87.5573 55.5427L87.397 55.5308V47.3469C87.0983 48.6223 87.1632 49.9043 87.0983 51.1744C87.0373 52.3874 86.854 53.5884 86.6908 55.1096C86.0286 52.0088 87.2634 48.8999 85.6898 46.1592C85.5839 46.7623 85.5095 47.1795 85.4465 47.5382C84.3233 45.6556 84.6411 43.4436 84.6105 41.3126C84.5943 40.1541 84.5981 38.9956 84.5924 37.8371C84.5015 37.8222 84.4095 37.8321 84.3214 37.8663C84.0383 40.2577 83.7539 42.6469 83.4682 45.0339L83.0865 45.0246V39.1789L82.6886 39.1922V49.9721H82.5159C82.2779 48.5372 82.0406 47.1033 81.804 45.6703C81.7897 46.1034 81.8994 46.6972 81.741 46.9417C80.9776 48.0989 81.282 49.4898 81.1551 50.7945C81.0482 51.8998 80.7151 52.9587 80.5672 54.06C80.4775 54.7243 80.551 55.4271 80.551 56.1127L80.1941 56.1512C80.1063 55.3328 79.9546 54.5157 79.9431 53.696C79.904 50.8024 79.9135 47.9089 79.8964 45.0153C79.8964 44.9329 79.7943 44.8519 79.7895 44.8452L78.9077 46.3598C78.6329 44.6021 78.4373 43.3546 78.2178 41.9503C78.0393 43.7585 77.8742 45.3952 77.713 47.032C77.6051 47.0214 77.5221 47.0108 77.3856 47.0001V42.5641H77.0879V46.9629L76.9409 46.9536C76.8064 45.7792 76.6757 44.6047 76.5411 43.4303L76.1269 43.4954V47.3668L75.9361 47.3548C75.8865 46.4953 75.8407 45.6357 75.7958 44.7761C75.7004 44.7761 75.5973 44.7881 75.5305 44.7947V49.1417H75.3158C75.271 48.1148 75.2204 47.0891 75.1755 46.0622C74.9207 47.7893 74.7995 49.4925 74.5886 51.1824C74.5486 51.5052 74.1468 51.7431 73.913 52.0207L73.4798 51.0814C73.2803 51.6261 73.0876 52.1443 72.8967 52.6757L72.6839 52.6133V46.11L72.5035 46.1166C72.4565 46.7198 72.41 47.323 72.3642 47.9261C71.4939 44.6048 71.9052 41.1997 71.8498 37.8291C71.8146 37.6958 71.8146 37.5493 71.8498 37.416C71.8193 36.4133 71.7875 35.4107 71.7544 34.4081C71.6533 35.5516 71.5524 36.6959 71.4519 37.8411V48.9531L70.9805 48.9903C70.9213 47.4253 70.8625 45.8598 70.804 44.2939L70.6684 44.3058C70.5911 44.6659 70.5129 45.0246 70.407 45.5148C70.2781 44.9967 70.1923 44.6406 70.1045 44.2846L69.8936 44.3244V53.5047C69.7981 53.5233 69.718 53.5406 69.6302 53.5592C69.2052 51.7825 68.7802 50.0071 68.3553 48.233C67.3256 51.1306 68.0318 54.3643 67.6262 57.5555C67.4239 56.6361 67.2502 55.8655 67.0803 55.0937L66.7788 55.1588V61.7776C66.6461 61.7882 66.5345 61.7989 66.4114 61.8108C66.3341 60.926 66.1957 60.0412 66.1919 59.1537C66.169 54.4453 66.1814 49.7356 66.1814 45.0272V43.0756L65.8169 43.0889V55.6968C65.7844 55.6968 65.7214 55.6968 65.6747 55.6968C65.5268 51.4455 65.3884 47.1941 65.23 42.7713C63.747 43.8568 64.6498 45.6942 64.144 46.9842C63.9474 46.187 63.7623 45.4749 63.5848 44.7589L63.3319 44.7961V52.2134L63.1277 52.2346C62.8166 51.3604 62.5027 50.4876 62.0723 49.256V53.0676C60.68 52.859 61.5446 54.7376 61.118 55.1933C60.8183 55.1402 60.4691 55.0605 60.4653 55.0804C60.3698 55.7075 60.2744 56.3425 60.262 56.9802C60.2353 58.5598 60.2534 60.1422 60.2534 61.7231L60.0501 61.7098C59.8831 59.3835 59.7152 57.0599 59.5339 54.5357L59.0567 55.5985C58.8916 50.8038 58.7371 46.2987 58.5796 41.7975L58.4164 41.8081C58.3891 42.654 58.3617 43.5003 58.3343 44.347L58.1435 44.355C58.1009 43.1788 58.0576 42.0026 58.0137 40.8264H57.8228C57.777 41.8662 57.7309 42.9073 57.6845 43.9498H57.4325V39.5988H57.1005V49.4673L56.9153 49.454C56.7474 46.8925 56.5781 44.3306 56.4076 41.7683L56.2884 41.7909C55.691 47.9997 55.0914 54.2071 54.4895 60.4132H54.2834V42.6226C54.1934 42.7219 54.1214 42.8493 54.0732 42.9944C54.025 43.1396 54.0019 43.2984 54.0057 43.4582C53.8982 50.9769 53.7926 58.4956 53.6889 66.0143C53.6822 66.4607 53.6307 66.9058 53.5992 67.3522C53.3845 65.5374 53.3969 63.7372 53.3768 61.9383C53.3711 61.4548 53.2967 60.5673 53.1974 60.5513C52.0943 60.38 52.4655 59.2294 52.4607 58.4323C52.434 53.5791 52.4493 48.7246 52.4426 43.8714C52.4426 43.324 52.3978 42.7754 52.3729 42.228C52.1344 42.9693 52.1544 43.6894 52.1286 44.4041C52.1029 45.099 52.0332 45.7911 51.9788 46.486L51.5656 46.4262V41.3126C49.8097 44.3324 51.0026 47.5754 50.3069 50.4079V37.8424C50.2735 36.9536 50.2353 36.0648 50.1991 35.176H50.0082C49.9732 36.0617 49.9386 36.9505 49.9042 37.8424C49.9128 40.2338 50.0779 42.6252 49.7992 44.9821L49.408 44.9688C49.3545 44.4506 49.2973 43.9338 49.2429 43.4157L48.9757 43.4436V55.7181H48.7114V52.1217H48.5348C48.3783 53.4436 48.2275 54.7655 48.071 56.0874L47.7494 56.0383V50.8835H47.5662C47.4002 55.4962 47.2322 60.1098 47.0624 64.7243L46.7885 64.7084V49.992C46.2255 52.3927 46.9679 55.0179 45.9783 57.323C45.8829 53.3373 45.9 49.3517 45.8714 45.378C45.8657 44.618 45.6882 43.8621 45.5909 43.1035C45.5374 43.6659 45.4843 44.2274 45.4315 44.7881C44.399 42.3635 44.6891 39.8499 44.6681 37.3827C44.5392 37.5342 44.4075 37.6857 44.2749 37.8371V52.5428H44.0163C43.8687 50.5314 43.7214 48.5196 43.5745 46.5072H43.4657L43.2996 49.1232L43.1383 49.1072C43.1002 48.0638 43.0623 47.0218 43.0248 45.9811L42.7881 45.8177C42.6841 46.2163 42.582 46.6149 42.478 47.0055C42.3577 46.8939 42.2194 46.7836 42.1201 46.672V43.4835L41.8606 43.4728C41.6061 48.6595 41.3535 53.8457 41.1029 59.0315C41.0237 59.0315 40.9273 59.0222 40.8614 59.0169V48.2237H40.6286V52.41C40.099 52.8856 39.7697 53.2071 39.3365 53.5897V43.1101C39.0712 45.2677 38.8221 47.4253 38.5511 49.7277C38.1074 47.9182 38.8059 45.9625 37.7457 44.4267V56.5046C37.4804 55.467 37.74 54.0255 37.342 53.4569C36.5786 52.3621 36.6187 51.1984 36.5853 49.9641V44.5171C34.8953 45.014 35.9917 46.8952 35.36 48.0244C35.3008 46.8407 35.2455 45.7965 35.193 44.7522L34.8619 44.7708C34.7578 49.4314 34.6529 54.0933 34.5641 58.0856L32.7872 41.6354L32.563 41.666C32.4917 42.4551 32.4195 43.2434 32.3464 44.0308L31.9198 44.0401L31.8082 37.3748L31.5887 37.4107L31.4875 37.8185C31.4608 39.9083 31.7433 42.0353 31.3176 44.0747L30.9216 44.0587V39.0859L30.6239 39.0953V42.8736C30.1601 42.6372 29.871 42.4751 29.5217 42.2904C29.3862 43.1952 29.2678 43.9671 29.1524 44.7403L28.8146 44.6977C28.7592 43.4316 28.6981 42.1655 28.6237 40.4836C28.0989 42.5814 28.8661 44.529 27.7066 46.0436V43.0623L27.5158 43.0756C27.4814 43.8315 27.449 44.5875 27.4146 45.3421L27.1379 45.3859C26.8841 43.5977 26.6312 41.8095 26.3745 39.9761L25.4803 40.4836C25.3687 39.8592 25.278 39.353 25.1864 38.8481L24.9764 39.3052L24.2874 38.9876C23.9821 39.5098 23.7578 40.267 23.4343 40.36C22.8932 40.5142 22.7491 42.1257 21.9514 41.1333C21.5296 42.964 20.853 41.6872 20.5018 41.209C19.4884 39.8259 18.6066 38.8668 17.8031 38.6754C17.5006 39.1139 17.1895 39.5682 16.8059 40.1262L16.3946 39.1245C15.2876 39.9216 14.9775 39.8512 13.7178 39.2573C12.9191 38.8814 12.0316 38.5266 11.2157 38.6329C9.37106 38.8747 7.55983 38.7432 5.73619 38.411C5.22081 38.3233 4.69914 38.3367 4.18644 38.4509C3.12241 38.6781 2.08702 39.1351 1.01249 38.3924C0.770106 38.2237 0.331136 38.5798 0 38.694V36.9549C1.52685 36.2721 3.02317 36.2561 4.58056 36.8221C5.25714 37.0705 6.01866 36.9403 6.73628 36.8659C7.06265 36.8327 7.51975 36.6361 7.66098 36.3026C8.03411 35.4231 8.5351 35.7168 9.01129 35.839C10.227 36.1525 11.4352 36.5272 12.6481 36.8593C13.3161 37.044 13.8276 36.8766 14.1654 35.8669C14.299 35.4683 15.0242 34.9781 15.1416 35.1083C16.0195 36.114 17.1189 34.7854 17.994 35.7141C18.1085 35.835 18.5465 35.3687 18.6562 35.2943L20.2108 37.2565C20.5925 35.7114 20.8692 34.5769 21.165 33.3812C21.2099 33.8966 21.2547 34.4148 21.333 35.3182C21.4952 34.5928 21.5697 34.2647 21.6689 33.8196C22.0821 33.8674 22.6537 35.1933 22.9495 33.1274L23.19 35.0179L23.4334 35.2318C23.4486 34.9382 23.4687 34.6446 23.4849 34.351C23.567 34.4307 23.6347 34.5131 23.734 34.5941V35.657C23.9 34.7376 24.0632 33.8182 24.3189 32.41C24.5441 33.5074 24.6787 34.1743 24.9058 35.285C24.9726 33.9471 25.0156 33.0743 25.0528 32.3316L26.9613 35.4205C27.1894 34.1225 27.3946 32.9175 27.6064 31.7125L27.8116 31.7603V37.3522H27.949L28.0855 37.3349C28.2611 35.459 27.7448 33.4516 28.7726 31.7058V35.2783H28.8947C29.0522 33.5074 29.2087 31.7377 29.3805 29.814C29.7164 31.3232 29.996 32.5867 30.2765 33.8501C30.4263 32.1124 30.5809 30.376 30.7308 28.6382H30.9216V33.0636L31.1125 33.0716C31.2868 31.4773 31.4608 29.8831 31.6345 28.2888C31.8253 29.6373 31.7862 30.9791 31.8396 32.313C31.8845 33.4197 32.041 34.5197 32.1488 35.6224C32.3206 33.9391 31.6488 32.0021 32.9581 30.6151C33.1537 31.5624 33.3398 32.4977 33.5306 33.4343C33.6127 33.4157 33.7034 33.3971 33.7692 33.3785V26.8128C34.7302 28.4815 34.0431 30.4357 34.5097 32.4033C34.7006 29.5828 34.8685 26.9815 35.0403 24.3789L35.3266 24.4028V28.6954L35.6243 28.6861V22.9813H35.923V29.5549H36.1616C36.1978 28.799 36.2322 28.043 36.2685 27.2871C36.528 28.1227 36.4918 28.9584 36.5357 29.7861C36.5996 30.9818 36.7179 32.1775 36.8219 33.3732V23.8913L37.239 23.8847C37.3026 28.5187 37.3662 33.1531 37.4298 37.788C37.469 38.2516 37.509 38.7179 37.5482 39.1789L37.7209 39.1856L37.8163 37.8291C37.8879 33.3121 37.4842 28.7671 38.3106 24.2926C38.3889 24.9907 38.4209 25.6973 38.4061 26.4036C38.4061 29.7316 38.4003 33.0596 38.4146 36.3863C38.4146 37.0147 38.5005 37.6418 38.5473 38.2702C38.6089 38.1869 38.6666 38.0981 38.72 38.0045C38.7434 37.9398 38.7592 37.8703 38.7668 37.7986C38.8476 35.4692 38.9284 33.1398 39.0092 30.8104H39.2382C39.4157 32.557 39.5922 34.3036 39.7678 36.0502L40.0436 36.017V26.7796C40.4081 28.6263 40.7316 30.2046 41.0179 31.6301C41.5113 29.3543 42.0247 26.9802 42.5391 24.6061C42.8789 25.29 43.0664 26.0982 43.0782 26.9297C43.1135 28.7392 43.0649 30.5514 43.1107 32.3595C43.1374 33.4157 43.292 34.4653 43.3912 35.5175V20.4424H43.6336C43.8006 23.9245 43.96 27.4053 44.127 30.8875H44.3522V23.9418H44.6938C44.7873 27.0922 44.8828 30.2418 44.9801 33.3905C45.2359 31.6727 45.4935 29.9535 45.7693 28.1028C45.9134 31.4455 46.0499 34.6353 46.1873 37.8252C46.2242 38.5337 46.2617 39.2423 46.2999 39.9508L46.4822 39.9283C46.5114 39.2197 46.5432 38.5111 46.5776 37.8026V22.115C47.0089 24.893 46.736 27.7069 47.3859 30.5128C47.9069 32.7713 47.7227 35.3381 47.8515 37.768L47.9403 37.7614H48.03C48.0519 35.4484 48.05 33.1327 48.113 30.821C48.1292 30.2232 48.2609 29.2188 48.4947 29.1231C49.1914 28.8349 49.0139 28.1786 49.0215 27.5966C49.0415 26.0755 49.0282 24.553 49.0282 23.0318L49.2563 23.0517L49.4471 23.9604L49.762 23.9219V12.5415H50.2258V28.6475L50.6237 28.6356V15.6742L50.8375 15.6517C51.1352 18.431 51.4311 21.2116 51.724 23.9378L52.1544 22.948C52.3224 25.1242 52.4607 26.9337 52.6001 28.7339H52.7136C52.7556 27.5541 52.7973 26.3735 52.8386 25.192C53.6975 29.3742 53.3215 33.619 53.3702 37.8358L53.4656 40.5115H53.6565L53.7519 37.8265C53.7986 33.7518 53.853 29.6758 53.8988 25.6038H54.3636V35.2717H54.6613V23.9498L55.0182 23.9352C55.1432 26.114 55.2606 28.2915 55.3856 30.469H55.5898V20.4862H55.8055C55.8694 21.1997 55.9429 21.9118 56.0069 22.6239L56.2855 22.5973V16.6188L56.3991 16.6441C56.546 17.9341 56.6853 19.2241 56.8313 20.5141C56.9506 20.5022 57.0814 20.4889 57.1806 20.4756V16.5923L57.5118 16.6016V22.7195C57.7436 22.0128 57.8305 21.7723 57.9288 21.4813L58.258 22.4817L58.5366 21.4999L58.8869 21.5345C59.2037 26.0197 58.904 30.542 59.0501 35.0379C59.1455 34.2753 59.3087 33.5153 59.3153 32.7528C59.3449 29.5124 59.3278 26.2708 59.3278 23.0304C60.4156 27.0387 59.6713 31.2276 60.1017 35.75C60.5941 32.1416 59.7992 28.8149 60.8594 25.7367V43.0185L61.2573 43.0105V23.9896L61.6037 23.9817C61.731 26.3828 61.8617 28.783 61.9959 31.1824C62.7727 29.345 61.9864 27.2526 63.1134 25.0844V31.7364C63.3777 30.0093 63.3472 28.2822 63.4216 26.5657C63.4932 24.9209 63.0466 23.1699 64.0076 21.6501V26.5777C64.9361 23.1859 64.9905 19.6599 64.9723 16.122L65.3006 16.1406V23.0052C65.5659 22.2811 65.7052 21.957 65.9486 21.3246C66.0793 21.945 66.1757 22.2014 66.1814 22.4618C66.2902 27.5838 66.392 32.7067 66.4868 37.8305C66.6137 37.6896 66.7378 37.5488 66.8685 37.4067C66.9286 32.8989 66.4973 28.3606 67.4582 23.8927V33.4994H67.7569V19.9641L68.1883 19.9468C68.3314 24.7642 68.4841 29.5815 68.6272 34.3988L69.049 34.3842V23.4688H69.1903C69.3153 24.0773 69.4374 24.6871 69.5624 25.2969C69.6798 25.277 69.7781 25.2571 69.9107 25.2385V18.6808H70.2753V27.877H70.5263C70.5657 27.125 70.6051 26.3722 70.6446 25.6184H70.9051V29.6041L71.2038 29.5948V15.273H71.597C71.6695 19.5815 71.7382 23.8913 71.8327 28.1998C71.8508 29.0434 71.9987 29.8804 72.098 30.7241V22.1589H72.3461C72.66 24.6366 72.9721 27.1144 73.3109 29.7861C73.3662 28.3101 73.4206 26.9895 73.4702 25.6676L73.7565 25.6862V34.3816H74.0218V19.9934L74.2651 19.9734C74.5101 22.1824 74.755 24.3913 74.9999 26.6002L75.2175 26.5511C75.2509 26.122 75.2834 25.6928 75.3129 25.265C75.417 24.0879 75.5143 22.9122 75.6183 21.7351L75.9046 21.763V28.6861C76.4676 23.9338 75.7386 19.0979 76.8322 14.3975V19.9774C77.0975 19.4632 77.1843 19.264 77.4324 18.7511C77.4324 22.123 77.4162 25.1402 77.4505 28.1573C77.4591 28.9119 77.6414 29.6625 77.7473 30.4158C77.9057 26.6069 77.1929 22.6252 79.0079 18.7724C79.549 24.0282 80.0471 28.9558 80.5443 33.6748V23.4476H80.7056C80.8659 24.909 81.025 26.3704 81.1827 27.8318C81.992 27.3004 81.7467 26.2588 81.8059 25.3607C81.8775 24.2859 81.9605 23.2124 82.0349 22.1376C82.1866 22.1522 82.3307 22.1682 82.4968 22.1828V32.0832L82.7945 32.0712V17.036C83.1591 18.2809 83.2717 19.5443 83.3728 20.8064C83.4129 21.29 83.4625 21.7696 83.5093 22.2519C83.5711 22.1685 83.6291 22.0797 83.683 21.9862C83.707 21.9223 83.7241 21.8538 83.7335 21.7829C83.9365 19.7228 84.1394 17.6617 84.3424 15.5998L84.5695 15.6291L84.6725 17.489H84.8052C84.9006 16.9084 85.0037 16.3279 85.1001 15.7473L85.4818 15.7672V28.2304H85.7623C85.9265 23.7505 86.082 19.2706 86.2462 14.7908L86.5086 14.7974V32.6146C86.9399 30.0279 86.604 27.3615 87.1012 24.8054C87.8847 28.3924 86.6746 32.2904 88.3647 36.098V23.8754H88.6634V27.0347L88.837 27.0533L89.3915 24.2633L89.5699 24.2978L89.6902 27.7521H90.1072C90.2872 24.5839 90.4666 21.4149 90.6454 18.245H90.8506V23.1433C91.0166 23.1606 91.154 23.1779 91.3039 23.1965C91.4031 21.5571 91.5023 19.9185 91.6016 18.2809L91.7695 18.3034C91.928 21.3485 92.087 24.3931 92.2467 27.4372H92.3078C92.428 25.2611 92.5559 23.0849 92.6761 20.9087L93.1399 20.9459V28.6821L93.4052 28.6715V22.9162L93.7926 22.8683C93.9778 25.5564 94.1635 28.2441 94.3499 30.9313L94.5408 30.9207C94.7068 27.7375 94.8738 24.5538 95.0418 21.3697C95.0904 21.3697 95.1258 21.3764 95.1926 21.379V37.8345C95.1926 38.8535 95.1926 39.8738 95.1926 40.8901C95.3243 39.868 95.455 38.8468 95.5848 37.8265C95.5848 35.9466 95.5495 34.0654 95.579 32.1855C95.6086 30.3056 95.4254 28.4084 95.7441 26.4049C96.1573 26.8553 96.3902 27.1011 96.854 27.6126V15.7008H97.1526V22.1669L97.4256 22.1815C97.6909 20.2737 97.9568 18.3663 98.2234 16.4594C98.9391 19.2719 98.5965 22.1562 98.6585 24.998C98.7205 27.8398 98.6728 30.6563 98.6728 33.4861H98.9896C98.9896 29.8818 98.9744 26.2787 99.002 22.6757C99.0078 21.9051 99.17 21.1372 99.2616 20.3693C99.3885 20.3893 99.5059 20.4105 99.6376 20.4305V28.7233C100.202 24.3802 100.202 24.3802 100.864 23.3758V37.3788L101.013 37.4027L101.163 37.3854V19.9934L101.677 19.9681C101.957 23.9963 101.682 28.0816 101.856 32.1204L102.19 32.1071V26.9257L102.422 26.9457V28.6409C103.281 28.803 102.995 27.885 103.03 27.3469C103.19 25.0286 103.324 22.7062 103.477 20.1873C103.668 21.2634 103.816 22.131 103.967 22.9998C104.242 20.8742 104.519 18.7392 104.765 16.8327L105.546 23.0689C105.65 23.7133 105.819 24.3523 105.844 25.002C105.892 26.2455 105.866 27.4957 105.866 28.7432H106.2V24.2766C106.234 24.2766 106.29 24.2833 106.336 24.2872C106.489 25.7486 106.632 27.1994 106.797 28.6542V15.2916H107.148C107.278 19.5944 107.408 23.8984 107.536 28.2038H107.791V17.4824L107.938 17.4957C108.047 19.5328 108.156 21.5721 108.265 23.6137H108.552L108.751 22.495C109.001 23.6163 109.28 24.8638 109.557 26.1113L109.698 28.3167C110.05 24.7509 110.31 21.2143 110.578 17.6764C110.585 17.586 110.665 17.5063 110.764 17.3243C110.829 18.0497 110.885 18.6422 110.939 19.2334L111.205 19.2082V7.85703C111.471 8.71129 111.453 9.56821 111.475 10.4225C111.57 14.2407 111.627 18.0616 111.803 21.8719C111.909 24.157 112.206 26.4262 112.416 28.7033C112.575 26.521 112.734 24.339 112.894 22.1576C112.938 22.1576 112.997 22.1469 113.029 22.1403V26.1259L113.395 26.1339V19.179L113.692 19.1976V29.1125C114.256 26.854 113.56 24.3709 114.551 21.8055V41.7112L114.949 41.6952V22.6093L115.132 22.5987C115.201 23.0836 115.272 23.5685 115.376 24.3045C115.521 23.6615 115.6 23.3347 115.673 23.0092C115.761 23.0371 115.844 23.0636 115.943 23.0902V30.356L116.054 30.3401C116.216 26.8859 116.379 23.4316 116.541 19.9774L116.703 20C116.77 20.3162 116.838 20.6324 116.904 20.9499L117.136 20.9366V14.6659C117.232 14.6552 117.307 14.6446 117.393 14.634C117.563 15.1322 117.727 15.6317 117.896 16.1312L118.097 16.0781V8.31275C119.058 16.0834 118.393 23.9166 118.989 31.6952C119.126 26.924 119.264 22.1531 119.404 17.3828C120.576 24.1438 120.138 31.0031 120.175 37.8291C120.213 38.4491 120.251 39.0736 120.29 39.7024H120.462C120.501 39.078 120.55 38.4549 120.583 37.8305V16.5391L120.869 16.5325C120.979 20.4003 121.088 24.2677 121.196 28.1347C121.875 29.2361 121.278 31.0575 122.371 32.0154C122.606 32.2227 122.456 33.2802 122.484 33.9458C122.713 30.3135 122.706 26.7025 122.717 23.0915C122.711 22.1525 122.741 21.2138 122.805 20.279C123.186 15.354 123.616 10.4371 123.95 5.5055C124.073 3.68539 123.976 1.83605 123.976 -3.3063e-06H124.298V9.20553L124.466 9.21484C124.557 8.86809 124.644 8.51999 124.734 8.17324L124.938 8.21311L125.333 25.1787L125.59 25.172V16.0794L125.686 16.0994C126.09 19.7015 126.496 23.3037 126.902 26.9058C126.982 26.8965 127.044 26.8885 127.144 26.8792V18.7073H127.409V35.6782H127.588C127.748 30.0186 127.907 24.359 128.065 18.6993L128.361 18.7087V26.4288C129.719 24.5237 129.176 22.3954 129.248 20.4504C129.322 18.4203 129.261 16.381 129.261 14.3457H129.592V23.1141L129.826 23.1234C130.017 20.6576 130.208 18.1927 130.399 15.7287C130.549 15.746 130.685 15.7633 130.853 15.7805V25.2132L131.185 25.2013V10.8529H131.332C131.452 13.0592 131.572 15.2668 131.693 17.4758L132.027 17.4439C132.064 16.6866 132.102 15.9293 132.14 15.172H132.35C132.382 16.0794 132.416 16.9882 132.446 17.8956H132.707V13.886L132.834 13.8953C133.193 17.9881 133.552 22.0814 133.913 26.1751L134.294 26.1259V22.5163H134.593V32.8883C134.688 31.4003 134.846 29.9136 134.866 28.4243C134.908 25.3062 134.881 22.1802 134.881 19.0674H135.111L135.618 29.1205L135.769 29.1112C135.81 28.2038 135.854 27.2951 135.895 26.3877L136.181 26.3956V33.0384L136.52 33.0291C136.634 30.1258 136.748 27.2224 136.861 24.3191H137.018C137.054 25.0737 137.09 25.8288 137.126 26.5843H137.279L137.775 14.2168C138.892 19.2321 138.526 24.4148 138.667 29.5337L138.998 29.5151V8.29945C139.297 10.3946 139.059 12.5508 139.328 14.5675C139.901 18.8946 139.308 23.2815 140.079 27.6511C140.621 30.7214 140.162 34.1344 140.151 37.3934C140.188 37.5253 140.19 37.6714 140.156 37.8052C140.193 38.8322 140.238 39.8592 140.274 40.8861L140.523 40.8742V38.9544C140.523 32.4498 140.523 25.9453 140.523 19.4407C140.523 18.8707 140.507 17.8305 140.611 17.8012C142.009 17.4213 141.388 15.9067 141.418 14.9196C141.503 12.1204 141.447 9.31314 141.447 6.50989L141.752 6.50192V8.77242C141.752 15.858 141.752 22.941 141.752 30.0213C141.752 32.3343 141.752 34.6473 141.771 36.9603C141.771 37.303 141.924 37.6431 142.005 37.9846C142.037 37.9301 142.076 37.8743 142.109 37.8185C141.871 33.6774 142.381 29.6718 143.408 25.7287V29.0634L143.522 29.0461C143.679 22.7284 143.832 16.4111 143.983 10.0943L144.269 10.105V32.224H144.568V6.98154C144.928 9.52691 145.129 12.1108 145.169 14.7044C145.232 18.6143 145.169 22.5282 145.199 26.4408C145.205 27.1954 145.39 27.9474 145.5 28.6993C145.701 26.3332 144.928 23.7359 146.49 21.4295V25.9559C146.585 25.1866 146.729 24.4174 146.737 23.6455C146.769 20.9685 146.706 18.2875 146.765 15.6105C146.815 13.3147 146.979 11.023 147.095 8.7299L147.419 8.74985V33.4369H147.683V31.0774C147.683 23.9112 147.675 16.7437 147.701 9.57753C147.701 8.55986 147.892 7.54352 147.987 6.52186L148.307 6.56302V8.70067C148.307 14.2022 148.274 19.7051 148.338 25.2053C148.352 26.3664 148.725 27.5209 148.933 28.6781C149.038 25.2053 149.143 21.732 149.249 18.2583L149.424 18.2862C149.565 19.8246 149.706 21.3626 149.847 22.9002C149.994 20.9118 150.141 18.9221 150.289 16.931L150.412 16.8952C150.466 17.5302 150.519 18.1657 150.573 18.8016H150.865L151.247 13.9219C151.438 16.2362 151.38 18.5359 151.448 20.8303C151.517 23.0889 151.116 25.4112 151.847 27.8079C152.835 25.7805 152.038 23.5911 152.595 21.6793C152.69 22.4605 152.656 23.2403 152.7 24.0109C152.765 25.1282 152.891 26.2375 152.987 27.3509C153.096 21.5743 153.205 15.7982 153.314 10.0226C153.309 9.95037 153.311 9.8775 153.32 9.80604C153.403 9.48054 153.494 9.1577 153.581 8.83486L153.932 8.9066C153.932 11.4176 153.878 13.9325 153.95 16.4395C154.008 18.4894 153.557 20.6125 154.554 22.5654C154.897 23.239 154.847 24.3669 154.859 25.2916C154.896 27.9686 154.865 30.6497 154.885 33.328C154.885 33.8183 155.017 34.3058 155.085 34.7894C155.225 34.7695 155.372 34.7509 155.507 34.731V20.1076L155.838 20.1156V27.396L156.065 27.4107C156.335 24.5312 156.605 21.6527 156.875 18.7751C156.949 18.7844 157.031 18.7923 157.098 18.8016V33.9259C157.595 29.3251 156.965 24.6326 157.993 20.081V31.751C158.088 31.7643 158.166 31.7789 158.252 31.7922C158.729 27.6374 159.206 23.4839 159.683 19.3317L160.059 19.3503C160.244 21.8892 160.441 24.4267 160.621 26.9656H160.806V19.5509H161.155C161.287 23.6256 161.415 27.699 161.558 32.131C161.742 30.1555 161.891 28.5439 162.041 26.9324L162.136 26.0502L162.3 26.0874C162.347 26.9483 162.393 27.8092 162.439 28.6701L162.602 28.6475C162.84 24.622 163.077 20.5961 163.313 16.5697C163.393 16.5763 163.489 16.5843 163.555 16.5923V37.416C163.591 37.5495 163.61 37.6914 163.61 37.8345L163.764 37.8411L163.919 37.8278V16.672H164.386C164.465 22.3918 164.543 28.1117 164.619 33.8315L164.758 33.8183C164.865 32.0469 164.971 30.279 165.078 28.5147L165.384 28.4788C165.575 29.0262 165.768 29.5731 165.963 30.1196L166.233 30.1116C166.33 27.1888 166.425 24.266 166.519 21.3431H166.735V30.8303C166.831 30.0797 166.981 29.3331 167.03 28.5718C167.195 26.0476 167.327 23.5074 167.47 20.9738L167.608 20.9884L167.99 29.5204C168.151 29.0873 168.314 28.6542 168.62 27.8345C168.62 29.1843 168.566 30.1089 168.647 31.011C168.678 31.3657 169.009 31.6687 169.203 31.9955C169.371 29.3384 169.537 26.6813 169.702 24.0242H170.021V35.1455H170.451V20.93L170.728 20.9074C170.896 22.6478 171.067 24.3909 171.238 26.1366C171.362 25.9492 171.479 25.7779 171.62 25.5666C171.77 28.2237 171.917 30.8038 172.062 33.3798C172.761 33.5751 172.645 32.8484 172.655 32.317C172.689 30.546 172.699 28.7737 172.718 27.0028C172.725 26.9308 172.736 26.8599 172.754 26.7915C172.781 26.7322 172.813 26.6773 172.849 26.6281C172.991 27.1595 173.245 27.691 173.259 28.2357C173.307 30.2391 173.278 32.2453 173.278 34.25C173.838 30.2471 173.233 26.1738 174.226 22.2293V30.3959H174.558V24.0401L174.654 24.0786C174.934 27.3363 175.215 30.5934 175.496 33.8501L175.762 33.8209C175.918 31.9835 176.079 30.1461 176.239 28.3088H176.385V37.8119C176.385 38.3765 176.415 38.9412 176.433 39.5058C176.543 38.9398 176.652 38.3739 176.763 37.8092C176.736 37.6764 176.736 37.5355 176.763 37.4027C176.75 33.9219 176.503 30.4212 177.204 26.8394C177.325 27.3708 177.412 27.7388 177.49 28.1042C177.561 28.0869 177.64 28.0709 177.706 28.0537V23.1221L178.026 23.0915C178.112 24.2009 178.217 25.3076 178.278 26.4129C178.397 28.6223 178.491 30.833 178.596 33.0437C178.917 32.1137 179.236 31.1983 179.727 29.7874C179.801 31.7245 179.857 33.2005 179.918 34.6778C180.437 31.8082 179.547 28.6993 180.979 26.0914C181.333 28.4031 181.69 30.7267 182.124 33.5313C182.364 31.8653 182.533 30.7413 182.696 29.628C182.812 29.6453 182.917 29.6625 183.05 29.6811V35.5374C183.05 35.5294 183.082 35.5215 183.103 35.5135C183.345 32.3843 183.585 29.2551 183.823 26.1259H184.263C184.463 28.7033 184.661 31.2767 184.859 33.8462C185.208 33.805 185.388 33.8302 185.401 33.7757C185.624 32.8643 185.827 31.945 186.129 30.6018C186.32 31.6527 186.446 32.2997 186.628 33.3001C186.85 29.535 186.828 29.535 188.12 29.6041V34.1663L188.394 34.1783C188.556 33.1712 188.714 32.1629 188.877 31.1558C189.04 30.5208 189.2 29.8844 189.402 29.0939C189.565 30.4371 189.696 31.5292 189.84 32.7195L190.761 31.2581C190.787 30.8596 190.81 30.461 190.836 30.0545L191.07 30.0624V36.0409L191.367 36.0728C191.529 34.4905 191.694 32.9082 191.866 31.2356C191.967 31.4747 192.034 31.6461 192.114 31.8055C192.13 31.8347 192.202 31.8055 192.243 31.8055L192.518 30.3441L192.748 30.3813C192.929 31.8374 193.109 33.2944 193.288 34.7522C193.55 33.2085 193.806 31.666 194.069 30.1222H194.284V34.4746C194.417 34.4892 194.506 34.5038 194.614 34.5184C194.97 33.1646 195.33 31.8095 195.688 30.449C197.099 31.6381 195.813 34.1849 196.955 35.645C197.022 34.5211 197.087 33.4542 197.146 32.3861L197.519 32.4087L197.728 35.2797L199.036 30.8795L200.167 34.2009C200.365 33.2935 200.478 32.778 200.678 31.864C200.751 33.1593 200.798 33.9737 200.869 35.2664C201.051 34.436 201.124 34.1039 201.197 33.7664L201.854 34.2819C201.998 33.5818 202.119 32.9959 202.29 32.1655L203.486 33.4343C203.543 33.2191 203.633 32.867 203.773 32.3196C204.345 33.1566 204.817 33.8515 205.251 34.4905L206.16 32.5548C206.256 32.5774 206.339 32.6 206.438 32.6226V35.9439L206.629 35.916C206.689 35.014 206.749 34.1132 206.82 33.0597C207.825 34.3444 208.442 35.6184 208.294 37.3775L208.413 37.3894L208.534 37.3801L209.165 32.5043C210.105 32.4791 210.437 32.9706 210.658 33.9737C210.816 34.6898 211.37 35.2385 211.803 35.9665L212.443 32.5535C213.906 33.5844 214.681 34.9621 214.804 37.0041C215.177 35.5666 215.55 34.1278 215.941 32.6199C216.031 33.1513 216.107 33.6004 216.188 34.0813L216.685 33.6615L218.313 36.5272C218.599 35.1521 218.823 34.068 219.098 32.7421C219.479 33.4901 219.79 34.1238 220.122 34.7349C220.703 35.7978 221.568 35.7168 221.978 34.5556C222.147 34.0733 222.264 33.5565 222.359 33.2151L223.514 35.7021L225.32 35.3713C225.372 35.1282 225.458 34.727 225.562 34.2394C225.858 34.8678 226.122 35.4351 226.491 36.2216C227.205 34.3815 228.15 35.2916 229.028 35.4882C229.431 35.5812 229.879 36.2854 230.166 35.2225C230.205 35.079 230.6 34.994 230.789 35.0737C231.492 35.3727 232.177 35.7513 232.947 36.1366L233.359 35.0339C234.6 35.192 235.712 36.9284 237.081 35.5892C237.146 35.5329 237.22 35.4974 237.296 35.4855C237.372 35.4735 237.449 35.4854 237.522 35.5201C238.966 36.5325 240.576 36.0515 242.029 36.0622C245.337 36.0781 248.645 37.0347 251.954 36.2402C252.108 36.2256 252.262 36.2368 252.414 36.2734C253.904 36.4258 255.393 36.5794 256.883 36.7344C257.742 36.8261 258.601 36.931 259.46 37.0294C260.678 36.9908 261.896 36.9138 263.114 36.9191C268.045 36.9394 272.975 36.9771 277.905 37.032C278.356 37.032 278.805 37.2432 279.256 37.3562C279.837 37.23 280.401 37.1051 281 36.9802V37.8491C280.452 37.97 279.918 38.2131 279.368 38.2211Z" fill="url(#paint0_linear_297_19)"/>
<defs>
<linearGradient id="paint0_linear_297_19" x1="251.895" y1="46.4145" x2="37.0376" y2="47.5548" gradientUnits="userSpaceOnUse">
<stop offset="0.359222" stop-color="#514EB6"/>
<stop offset="0.595772" stop-color="white"/>
</linearGradient>
</defs>
</svg>
