<svg width="517" height="135" viewBox="0 0 517 135" fill="none" xmlns="http://www.w3.org/2000/svg">
<path fill-rule="evenodd" clip-rule="evenodd" d="M528.244 73.9818C523.375 74.0505 518.515 73.9971 513.65 73.9818L497.134 74.0709C493.435 74.2235 489.735 74.3727 486.036 74.5185C485.962 74.5185 485.887 74.3583 485.811 74.2642L484.812 74.2921C484.698 74.5057 484.586 74.9051 484.467 74.9101C478.973 75.1187 473.467 75.2738 467.982 75.4773C464.884 75.5917 461.786 75.7316 458.691 75.9681C457.91 76.0291 456.774 77.1252 456.432 76.7107C454.199 74.0073 452.464 75.9478 450.767 77.5119L448.604 75.2051L444.456 78.1273C443.837 77.0032 443.268 75.9732 442.496 74.5668C440.31 79.7219 438.083 76.7921 435.806 74.9686L434.585 78.0866L429.86 75.9885L428.237 78.2417C427.363 75.4315 425.309 79.7422 424.349 77.0286C424.335 76.9879 423.238 78.0205 422.669 77.9772C422.043 77.9314 421.442 77.2143 420.721 76.7234C420.514 77.8145 420.324 78.8216 420.162 79.6711C418.636 80.1466 417.578 79.9253 417.414 77.5957C416.152 78.9971 416.108 75.8893 414.873 76.4818C414.693 77.1075 414.473 77.9493 414.235 78.7937C414.126 78.7534 414.02 78.7024 413.917 78.641V73.2545C413.746 73.2313 413.574 73.2363 413.403 73.2697C413.311 75.8282 413.21 78.3893 413.117 80.9478C411.38 78.608 409.847 77.2016 407.64 78.9132C407.373 80.0042 407.059 81.2758 406.789 82.3872L403.561 77.6339C402.636 79.1471 401.686 80.6858 400.78 82.1609C399.765 80.6019 399.074 79.4803 397.884 77.728V73.2952C397.75 73.272 397.615 73.2669 397.48 73.2799C397.262 76.3089 397.049 79.3379 396.759 83.2595C396.101 81.1512 395.753 80.022 395.316 78.6334L394.054 83.7707L393.463 83.5825C393.335 82.3363 393.205 81.0927 393.006 79.1776C392.711 80.556 392.579 81.1639 392.436 81.8277L391.1 80.289C390.979 83.3078 390.884 85.6807 390.788 88.0535H390.401L389.319 78.725C388.662 81.3852 388.228 83.0993 387.804 84.8134C387.665 84.7931 387.564 84.7702 387.376 84.7499V78.3486L387.027 78.3231C386.81 80.0525 386.601 81.7819 386.385 83.5113L385.928 83.3739C385.632 81.1223 385.335 78.8733 385.038 76.6268C384.791 81.5302 385.566 86.5454 384.104 91.6903C383.842 87.5449 383.602 83.7529 383.362 79.9635L382.767 80.0093C382.446 81.5861 382.116 83.1629 381.795 84.7397L381.238 84.6506V78.1477L380.486 78.168C380.389 80.6985 380.297 83.2315 380.192 85.935C379.797 85.4416 379.572 85.1542 379.291 84.8084C378.962 88.758 378.65 92.5245 378.268 97.1354C377.956 92.438 377.704 88.6181 377.451 84.7982L376.748 79.0505L376.284 79.1293C376.205 80.9986 376.129 82.8679 376.03 85.2102C375.415 82.5831 374.97 80.5536 374.469 78.5241V85.9426C372.526 85.0271 372.644 86.8099 372.629 88.3129C372.599 91.7615 372.618 95.2076 372.618 98.6562C371.728 92.9289 371.288 87.2117 370.875 81.4945C370.781 80.2229 370.781 78.9157 370.738 77.6263L370.516 77.6568L369.78 84.9101L369.185 84.8007L368.99 79.9966L368.606 79.9839L368.363 87.7941L367.555 87.7534C367.414 85.4849 367.275 83.2172 367.136 80.9503L366.327 81.0037V101.177L365.687 101.159C365.267 92.722 364.851 84.2853 364.439 75.8486L363.822 75.8943V82.4152C361.38 83.079 360.304 84.7168 360.266 87.8119C360.221 91.4843 360.248 95.1593 360.248 98.8317C358.818 93.4375 359.449 87.3363 356.625 82.6466C356.369 84.226 356.113 85.8053 355.853 87.4024C355.493 86.525 355.114 85.64 354.746 84.7524C354.582 84.7906 354.427 84.8287 354.239 84.8643V99.8922C353.426 95.1491 352.616 90.8129 351.666 85.5307C351.437 87.4304 351.332 88.3434 351.157 89.8109C350.256 87.5652 349.524 85.7671 348.535 83.3231C348.251 88.6639 348.665 93.2645 348.24 97.7483L347.425 97.7127C347.328 95.1949 347.23 92.6771 347.131 90.1593L346.59 90.2203V98.0204C346.527 98.0204 346.409 98.0331 346.317 98.0382C346.115 96.464 345.917 94.8871 345.645 92.7483C345.026 93.9182 344.786 94.3734 344.666 94.6049C344.031 91.1308 343.394 87.6262 342.682 83.7173C339.324 91.553 341.625 100.05 340.406 107.802C340.127 107.779 339.827 107.758 339.577 107.736V91.8531C339.396 91.8658 339.285 91.8785 339.144 91.8913C339.018 93.908 338.888 95.9273 338.763 97.9466L337.844 97.8805C337.439 90.5052 337.034 83.1298 336.63 75.7544C336.437 77.4864 336.089 79.2133 336.077 80.9452C336.012 87.7509 336.06 94.5566 336.06 101.365H335.444V78.3765H334.924C334.634 87.6695 334.342 96.9633 334.048 106.258H333.72C333.543 100.775 333.366 95.2907 333.188 89.8058L332.735 88.9869C332.685 89.0937 332.589 89.1979 332.589 89.3073C332.589 92.2625 332.589 95.2178 332.589 98.1756L331.832 98.2035C331.66 95.3729 331.509 92.5423 331.312 89.7142C330.97 84.816 330.591 79.9203 330.23 75.022C330.179 83.8385 330.127 92.6551 330.075 101.472L329.08 101.515C328.795 95.261 329.08 88.9411 328.89 82.6771C328.676 82.6771 328.492 82.7 328.241 82.7102V115.342C327.552 107.629 327.377 99.9177 327.159 92.199C327.114 90.5942 326.799 89.0072 326.618 87.4126V93.1323L325.837 93.1883C325.498 90.4484 325.159 87.7093 324.819 84.9711C324.627 86.2885 324.359 87.5957 324.261 88.9258C323.953 93.0891 323.695 97.265 323.426 101.436L323.111 101.413V73.2087H322.39C322.413 84.9431 322.469 96.6751 322.438 108.409C322.438 109.935 322.029 111.446 321.807 112.964C321.299 106.207 321.338 99.5871 321.266 92.967C321.25 91.3724 320.905 89.7855 320.702 88.1959L320.036 94.8261L319.605 94.7346C319.378 91.7556 319.151 88.7758 318.925 85.7951C318.734 87.3846 318.428 88.969 318.384 90.5662C318.294 93.3841 318.359 96.2096 318.359 99.0326L317.575 99.0631C316.697 91.375 317.494 83.519 316.814 75.7977L315.954 112.107C315.413 104.765 315.438 97.4431 315.38 90.1237C315.366 88.3612 315.045 86.6038 314.864 84.8439C314.653 86.2529 314.3 87.6415 314.257 89.0683C314.163 92.143 314.228 95.2254 314.228 98.3027H313.606C313.606 96.291 313.651 94.2743 313.555 92.2727C313.541 91.9854 312.834 91.7641 312.457 91.5098C312.26 93.1044 311.916 94.6938 311.898 96.291C311.82 100.79 311.871 105.294 311.871 109.796H311.44C311.126 100.993 310.813 92.1896 310.5 83.3867L310.082 83.4045V87.4915C310.082 98.1578 310.093 108.821 310.06 119.488C310.06 120.79 309.806 122.092 309.673 123.394L308.901 123.244V119.175C308.901 110.864 308.933 102.552 308.879 94.2513C308.879 92.7991 308.519 91.3546 308.322 89.905C308.171 96.0494 308.02 102.194 307.869 108.338H307.289C307.048 101.083 306.803 93.8292 306.551 86.5759C306.351 88.1603 305.99 89.7447 305.981 91.3317C305.929 101.589 305.958 111.845 305.958 122.105V127.26C305.206 119.686 304.914 112.12 304.804 104.549C304.694 96.9777 304.779 89.3836 304.779 81.8022L304.375 81.815C304.075 95.8722 303.775 109.93 303.473 123.989H302.95V88.4579H302.564C302.255 95.5789 301.946 102.707 301.637 109.841L301.484 109.854C301.212 104.617 300.941 99.381 300.671 94.1471C299.526 101.853 300.905 109.742 299.151 117.313C298.975 116.808 298.884 116.251 298.885 115.688C298.68 106.988 298.492 98.2875 298.251 89.5871C298.222 88.5444 297.877 87.5169 297.69 86.4818V117.191H297.107C297.107 112.914 297.227 108.628 297.091 104.358C296.956 100.088 297.751 95.5993 295.935 91.4741V113.259H295.596C295.308 108.512 295.022 103.769 294.738 99.0301C293.705 104.544 294.933 110.309 292.866 115.655V86.9167L291.863 86.8963C291.698 97.8068 291.883 108.74 291.443 119.648C290.964 112.758 290.812 105.874 290.599 98.9945C290.549 97.3897 290.239 95.8002 290.058 94.2056V107.288L289.306 107.265V90.0754C286.675 96.9421 288.131 104.399 287.18 111.52C286.077 100.152 286.794 88.6995 286.12 77.3084C285.88 87.344 285.631 97.3786 285.375 107.413H284.672V93.9334C284.171 95.2991 284.131 96.6521 284.131 98.0026C284.131 105.887 284.171 113.793 284.106 121.69C284.09 123.593 283.745 125.487 283.54 127.384L283.155 127.298C282.915 117.286 282.675 107.274 282.434 97.2625H282C281.719 104.514 281.44 111.765 281.163 119.015H280.595V115.113C280.595 103.201 280.62 91.2859 280.575 79.3735C280.575 77.3236 280.254 75.2789 280.081 73.2316C280.015 72.9761 280.015 72.6961 280.081 72.4406C279.991 72.0312 279.9 71.6192 279.652 70.4671C279.488 71.9523 279.412 72.6008 279.35 73.2646V110.541H278.723V92.438C277.847 100.754 278.972 109.2 277.25 117.405C277.049 109.267 277.082 101.128 277.026 93.0103C277.015 91.4258 276.665 89.8491 276.485 88.2672C276.485 92.0133 276.606 95.7671 276.447 99.498C276.11 107.463 275.627 115.419 275.205 123.376C274.867 122.845 274.689 122.149 274.707 121.436C274.53 105.105 274.358 88.7749 274.191 72.4457L273.975 68.8852H273.654C273.587 70.3348 273.528 71.7845 273.465 73.2341V101.398H272.839V95.7595L272.188 95.7747C271.985 107.982 271.778 120.19 271.569 132.397H271.147V92.2422H270.583V122.369L270.02 122.385V113.992C269.456 115.169 269.261 115.665 269.036 116.161L268.392 116.179V100.828C268.212 100.848 268.031 100.871 267.874 100.892C267.591 103.402 267.288 105.912 267.007 108.42C266.809 108.397 266.646 108.374 266.388 108.351V89.7855H265.761V124.696L265.135 124.679V118.216C265.011 118.216 264.955 118.234 264.863 118.242C264.543 122.965 264.223 127.686 263.902 132.405H263.494V128.313C263.494 117.087 263.516 105.859 263.465 94.6303C263.465 93.0509 263.105 91.4716 262.899 89.8923L262.877 102.318L262.057 102.352C261.711 98.4231 261.366 94.4955 261.022 90.5687L260.564 90.6095V102.532L260.203 102.624C260.039 101.937 259.871 101.253 259.707 100.569H259.271C258.852 111.984 258.432 123.4 258.009 134.816C257.843 122.176 257.85 109.572 255.345 97.4813C255.277 98.1883 255.165 99.1725 254.995 100.953C254.635 97.0057 254.355 93.9284 254.043 90.8511V127.194H253.041V94.0097H252.225V114.208C251.475 105.815 252.375 97.2294 250.107 89.3658C249.827 100.81 249.555 112.54 249.268 124.208H248.657V96.5657H248.031V106.502C247.968 106.502 247.851 106.487 247.764 106.482C247.453 101.756 247.142 97.0302 246.832 92.3032C246.37 93.6867 246.439 95.0499 246.352 96.3953C246.266 97.7407 246.031 99.0199 245.86 100.33L245.196 100.253C244.899 98.9156 244.599 97.5779 244.295 96.2401L243.723 96.258C243.568 99.7524 243.413 103.246 243.259 106.739C242.816 101.652 242.859 96.5835 242.792 91.5148C242.771 89.9151 242.457 88.3231 242.278 86.7285C242.066 100.957 241.85 115.187 241.631 129.419C241.599 130.113 241.538 130.805 241.451 131.489L241.005 131.443V94.0403H240.672C240.459 104.334 240.248 114.628 240.039 124.923L239.377 124.907V73.2112C239.312 72.9599 239.312 72.6844 239.377 72.433C239.287 72.0032 239.197 71.5734 238.939 70.3654C238.773 71.904 238.697 72.5729 238.625 73.2443C238.648 76.7056 238.686 80.1669 238.692 83.6283C238.692 88.7529 238.576 93.8851 238.713 99.0021C238.854 104.228 235.895 108.287 236.126 113.498C236.135 113.74 235.751 114.007 235.125 114.77V90.6095H234.643C234.346 100.657 234.051 110.706 233.756 120.757H233.596C233.283 112.147 232.974 103.538 232.667 94.9304L232.126 94.9558V131.578H231.765C231.453 123.496 231.14 115.413 230.799 106.586C230.438 110.464 230.16 113.552 229.879 116.642C229.657 119.948 230.373 123.437 228.555 127.384V99.1547L228.054 99.1699V125.65H227.724C227.418 120.343 227.109 115.036 226.797 109.729L226.514 109.701C226.376 110.861 226.238 112.022 226.099 113.183C225.631 110.492 226.28 107.359 225.477 105.373C224.287 102.397 224.597 99.5591 224.55 96.642C224.46 90.9604 224.561 85.2712 224.512 79.5871C224.5 78.1044 224.228 76.6243 224.072 75.1441C224.031 79.1522 224.054 83.1629 223.926 87.1659C223.802 91.0749 223.535 94.9736 223.324 98.88L222.731 98.8317V86.497L222.383 86.4767C222.053 90.4238 221.724 94.3692 221.395 98.3129L220.978 98.2824V83.9004H220.652C220.356 91.7674 220.062 99.6345 219.77 107.502H219.162V95.6272L218.785 95.6577C218.688 96.1918 218.587 96.7234 218.491 97.2549C218.347 98.8902 218.223 100.531 218.048 102.161C217.867 103.916 217.611 105.66 217.397 107.41C217.177 107.379 216.969 107.346 216.719 107.316V93.3282L216.499 93.3586C216.201 99.9269 215.906 106.497 215.615 113.069C215.096 103.356 215.134 93.674 215.074 83.992C215.074 82.611 214.647 81.2377 214.459 79.8592V104.798H214.043C213.969 102.814 213.891 100.831 213.783 97.9314C213.408 99.5438 213.242 100.22 213.085 100.915L212.595 100.889C212.212 94.1259 211.829 87.3643 211.444 80.6044L210.869 80.5179C210.423 83.6868 209.98 86.8582 209.493 90.317L208.818 87.5194C208.485 96.1664 208.184 104.241 207.872 112.313L207.444 112.29V95.734C204.752 95.8332 206.276 99.4548 205.253 101.075C205.021 100.704 204.669 100.408 204.667 100.108C204.61 91.146 204.583 82.1837 204.554 73.2214C204.478 71.843 204.402 70.4654 204.325 69.0887L203.993 69.1269L203.813 73.224C203.82 85.2856 203.82 97.349 203.813 109.414C203.813 109.79 203.632 110.177 203.508 110.541C203.451 110.652 203.37 110.735 203.277 110.777C203.086 110.848 202.892 110.903 202.696 110.94C202.696 104.933 202.734 98.9995 202.671 93.0662C202.653 91.4741 202.319 89.8872 202.13 88.3002C202.117 91.4767 202.222 94.6583 202.042 97.8271C201.952 99.4065 201.333 100.922 200.96 102.468C200.698 102.385 200.419 102.301 200.172 102.214V88.0916C199.937 88.4177 199.78 88.8392 199.723 89.2971C199.648 89.596 199.556 89.886 199.449 90.1644L199.023 90.111L198.358 80.7341L198.19 80.7697C197.887 86.6038 197.586 92.4397 197.288 98.2773C196.805 92.3439 196.845 86.4284 196.78 80.5179C196.762 78.9386 196.419 77.3669 196.226 75.7901L195.685 98.2366L194.827 98.2798C194.696 95.4924 194.563 92.7042 194.43 89.9152C192.748 90.2814 193.292 92.2041 193.267 93.5367C193.189 97.5626 193.238 101.594 193.238 105.622L192.394 105.668C192.232 102.311 192.071 98.9546 191.913 95.5992H191.529V110.711H191.011C190.704 101.556 190.398 92.4066 190.093 83.2646L189.958 83.2875C189.666 91.6293 189.374 99.9693 189.083 108.308L188.229 108.361C187.574 103.059 188.272 97.5703 187.327 92.2397V99.7956H186.966C186.761 94.7803 186.569 89.7626 186.366 84.7473L185.578 84.788V103.226C184.764 97.5753 184.856 91.7488 183.196 86.4411L182.51 86.5505V94.8261C182.197 96.3317 181.656 97.8042 181.488 99.3505C181.169 102.27 181.044 105.23 180.839 108.175C180.321 106.955 180.339 104.818 180.025 104.717C177.703 103.969 178.678 101.609 178.603 99.7651C178.316 99.6455 177.786 99.3937 177.777 99.4243C177.403 100.795 176.846 102.174 176.788 103.59C176.648 107.023 176.743 110.475 176.743 113.918C176.552 113.747 176.396 113.508 176.293 113.224C176.189 112.94 176.141 112.622 176.154 112.303C176.112 108.704 176.825 104.653 175.889 101.604C174.152 95.9477 174.475 90.2814 174.345 84.5311C174.322 83.4146 174.107 82.3058 173.984 81.1919C173.717 81.2199 173.49 81.2478 173.178 81.2783V97.2651L172.677 97.2498V73.224H171.925V82.583C171.487 81.2529 171.361 80.8841 171.063 80.0042C170.674 83.3104 170.342 86.1919 170.006 89.0632L169.545 89.0123V80.7621C169.045 84.0963 169.148 87.4075 169.034 90.7086C168.928 93.8164 169.545 97.0921 168.582 100.052L167.86 99.9863V90.6095H167.529C166.944 96.1215 166.362 101.632 165.783 107.14L165.48 107.118V91.4512C164.916 93.8927 165.038 96.347 164.916 98.7783C164.8 101.1 164.454 103.399 164.146 106.311C162.894 100.375 165.228 94.4243 162.254 89.1776C162.054 90.3322 161.913 91.1308 161.794 91.8175C159.672 88.2137 160.272 83.9793 160.214 79.8999C160.184 77.6822 160.191 75.4646 160.18 73.2469C160.008 73.2183 159.835 73.2373 159.668 73.3028C159.133 77.8806 158.596 82.4542 158.056 87.0235L157.335 87.0057V75.8155L156.583 75.8409V96.4766H156.256C155.807 93.73 155.358 90.985 154.911 88.2417C154.884 89.0708 155.091 90.2076 154.792 90.6756C153.349 92.8907 153.925 95.5535 153.685 98.0509C153.483 100.167 152.853 102.194 152.574 104.302C152.404 105.574 152.543 106.919 152.543 108.231L151.869 108.305C151.703 106.739 151.416 105.174 151.395 103.605C151.321 98.0662 151.339 92.5271 151.306 86.9879C151.306 86.8302 151.113 86.6751 151.104 86.6624L149.438 89.5616C148.919 86.1969 148.549 83.8089 148.134 81.1207C147.797 84.582 147.485 87.7153 147.18 90.8485C146.976 90.8282 146.82 90.8078 146.562 90.7875V82.2956H145.999V90.7163L145.721 90.6984C145.467 88.4502 145.22 86.202 144.966 83.9538L144.183 84.0784V91.4894L143.823 91.4665C143.729 89.821 143.642 88.1756 143.557 86.5301C143.377 86.5301 143.182 86.553 143.056 86.5657V94.8871H142.65C142.566 92.9212 142.47 90.9579 142.385 88.9919C141.904 92.2981 141.675 95.5586 141.276 98.7935C141.201 99.4116 140.441 99.8668 140 100.398L139.181 98.6003C138.804 99.643 138.44 100.635 138.079 101.652L137.677 101.533V89.0835L137.336 89.0962C137.247 90.2508 137.159 91.4055 137.073 92.5601C135.428 86.202 136.205 79.6838 136.101 73.2316C136.034 72.9763 136.034 72.6959 136.101 72.4406C136.043 70.5213 135.983 68.6021 135.921 66.6828C135.729 68.8717 135.539 71.0622 135.349 73.2545V94.526L134.458 94.5972C134.346 91.6013 134.235 88.6045 134.124 85.6069L133.868 85.6298C133.722 86.319 133.574 87.0057 133.374 87.9442C133.131 86.9523 132.969 86.2707 132.803 85.5891L132.404 85.6654V103.239C132.224 103.275 132.072 103.308 131.906 103.343C131.103 99.9422 130.3 96.5437 129.497 93.1476C127.551 98.6944 128.886 104.885 128.119 110.993C127.737 109.233 127.409 107.758 127.088 106.281L126.518 106.405V119.076C126.268 119.096 126.057 119.116 125.824 119.139C125.678 117.446 125.416 115.752 125.409 114.053C125.366 105.04 125.389 96.024 125.389 87.0108V83.2748L124.7 83.3002V107.435C124.639 107.435 124.52 107.435 124.432 107.435C124.152 99.2971 123.891 91.1588 123.591 82.6924C120.789 84.7702 122.495 88.2875 121.539 90.7569C121.168 89.231 120.818 87.8678 120.483 86.497L120.005 86.5682V100.767L119.619 100.808C119.031 99.1343 118.438 97.4634 117.624 95.1059V102.402C114.993 102.003 116.627 105.599 115.821 106.472C115.255 106.37 114.595 106.217 114.588 106.255C114.407 107.456 114.227 108.671 114.204 109.892C114.153 112.916 114.187 115.945 114.187 118.972L113.803 118.946C113.488 114.493 113.17 110.045 112.828 105.213L111.926 107.247C111.614 98.0687 111.322 89.4447 111.024 80.8282L110.716 80.8485C110.664 82.4677 110.613 84.0878 110.561 85.7087L110.2 85.7239C110.12 83.4723 110.038 81.2207 109.955 78.9691H109.594C109.508 80.9596 109.421 82.9527 109.333 84.9482H108.857V76.6192H108.229V95.5103L107.879 95.4848C107.562 90.5815 107.242 85.6773 106.92 80.7722L106.695 80.8155C105.566 92.7008 104.433 104.584 103.295 116.464H102.906V82.4076C102.736 82.5978 102.6 82.8416 102.509 83.1194C102.418 83.3972 102.374 83.7013 102.381 84.0073C102.178 98.4002 101.978 112.793 101.782 127.186C101.77 128.041 101.672 128.893 101.613 129.747C101.207 126.273 101.231 122.827 101.193 119.383C101.182 118.458 101.041 116.759 100.854 116.728C98.7692 116.4 99.4706 114.198 99.4616 112.672C99.4111 103.382 99.44 94.0886 99.4274 84.7982C99.4274 83.7504 99.3426 82.7 99.2957 81.6522C98.8449 83.0714 98.8828 84.4498 98.8341 85.818C98.7854 87.1481 98.6538 88.4731 98.551 89.8032L97.7701 89.6888V79.8999C94.4521 85.6807 96.7062 91.8887 95.3916 97.3108V73.257C95.3285 71.5556 95.2564 69.8542 95.1878 68.1528H94.8272C94.761 69.8483 94.6955 71.5497 94.6306 73.257C94.6468 77.8349 94.9588 82.4127 94.4323 86.9243L93.6929 86.8989C93.5919 85.907 93.4837 84.9177 93.3809 83.9259L92.876 83.9793V107.476H92.3765V100.592H92.0429C91.7472 103.122 91.4622 105.653 91.1665 108.183L90.5588 108.089V98.2213H90.2126C89.8988 107.051 89.5814 115.883 89.2604 124.717L88.7429 124.686V96.5148C87.6789 101.11 89.0819 106.136 87.2119 110.548C87.0316 102.919 87.064 95.289 87.0099 87.6822C86.9991 86.2275 86.6637 84.7804 86.4798 83.3282C86.3788 84.4048 86.2784 85.4797 86.1786 86.553C84.2274 81.9116 84.7756 77.0998 84.736 72.377C84.4925 72.667 84.2437 72.9569 83.993 73.2469V101.398H83.5043C83.2254 97.5474 82.9471 93.6961 82.6694 89.844H82.4638L82.1501 94.8516L81.8453 94.821C81.7732 92.8237 81.7016 90.829 81.6307 88.8368L81.1835 88.524C80.9869 89.2869 80.794 90.05 80.5974 90.7977C80.3702 90.584 80.1087 90.3729 79.9212 90.1593V84.0556L79.4307 84.0352C78.9498 93.964 78.4725 103.892 77.9989 113.819C77.8492 113.819 77.6671 113.801 77.5426 113.791V93.1298H77.1026V101.143C76.1018 102.054 75.4797 102.669 74.661 103.402V83.3409C74.1597 87.4711 73.689 91.6013 73.1769 96.0087C72.3384 92.5449 73.6584 88.8012 71.6549 85.8612V108.982C71.1536 106.995 71.6441 104.236 70.8921 103.148C69.4495 101.052 69.5252 98.8241 69.4621 96.4614V86.0342C66.2685 86.9854 68.3405 90.5866 67.1467 92.7483C67.0349 90.4823 66.9303 88.4833 66.8311 86.4844L66.2054 86.5199C66.0088 95.4416 65.8105 104.366 65.6428 112.008L62.285 80.5179L61.8613 80.5764C61.7266 82.0871 61.5902 83.5961 61.4519 85.1033L60.6458 85.1212L60.4349 72.3618L60.0201 72.4305L59.8289 73.2112C59.7785 77.2117 60.3122 81.2834 59.508 85.1873L58.7596 85.1567V75.6375L58.197 75.6553V82.8882C57.3206 82.4355 56.7742 82.1253 56.1142 81.7718C55.8581 83.5037 55.6345 84.9813 55.4163 86.4615L54.7779 86.3801C54.6733 83.9564 54.5579 81.5327 54.4173 78.313C53.4255 82.3287 54.8753 86.0571 52.6843 88.9564V83.2493L52.3237 83.2748C52.2587 84.7219 52.1974 86.169 52.1325 87.6135L51.6096 87.6974C51.1299 84.2742 50.652 80.8511 50.1669 77.3414L48.4772 78.313C48.2663 77.1176 48.0949 76.1486 47.9218 75.1822L47.5251 76.0571L46.2231 75.4493C45.6461 76.4488 45.2223 77.8984 44.611 78.0764C43.5885 78.3715 43.3162 81.4564 41.8087 79.5566C41.0116 83.0612 39.7331 80.6171 39.0695 79.7015C37.1544 77.054 35.4882 75.2179 33.9698 74.8517C33.3981 75.6909 32.8103 76.5607 32.0854 77.6288L31.3081 75.7112C29.2163 77.2372 28.6303 77.1024 26.2499 75.9656C24.7406 75.2458 23.0635 74.5668 21.5217 74.7703C18.0359 75.2331 14.6133 74.9813 11.1672 74.3455C10.1933 74.1775 9.2075 74.2032 8.23866 74.4218C6.228 74.8567 4.27143 75.7316 2.24093 74.3099C1.78289 73.9869 0.953378 74.6685 0.327637 74.8872V71.5581C3.2129 70.2509 6.04045 70.2204 8.98342 71.3038C10.262 71.7794 11.701 71.5302 13.0571 71.3878C13.6738 71.3242 14.5376 70.9478 14.8044 70.3094C15.5095 68.6258 16.4562 69.1879 17.3561 69.4218C19.6535 70.022 21.9364 70.7392 24.2284 71.375C25.4907 71.7285 26.4573 71.4081 27.0957 69.4752C27.3481 68.7123 28.7186 67.7738 28.9404 68.0231C30.5994 69.9483 32.6768 67.4051 34.3304 69.1828C34.5468 69.4142 35.3745 68.5215 35.5819 68.3791L38.5195 72.1354C39.2408 69.1777 39.7638 67.0058 40.3228 64.7169C40.4075 65.7036 40.4923 66.6955 40.6402 68.4249C40.9467 67.0363 41.0874 66.4081 41.2749 65.5562C42.0557 65.6477 43.1359 68.1859 43.6949 64.2311L44.1494 67.8501L44.6092 68.2596C44.638 67.6975 44.6759 67.1355 44.7066 66.5734C44.8617 66.726 44.9897 66.8837 45.1772 67.0388V69.0734C45.491 67.3135 45.7994 65.5536 46.2826 62.8578C46.7082 64.9585 46.9625 66.2352 47.3917 68.3613C47.5179 65.8003 47.599 64.1294 47.6694 62.7078L51.276 68.6208C51.7069 66.136 52.0946 63.8293 52.495 61.5226L52.8827 61.6142V72.3186H53.1424L53.4002 72.2855C53.732 68.6945 52.7565 64.8516 54.6986 61.5098V68.3486H54.9294C55.227 64.9585 55.5227 61.5709 55.8473 57.8883C56.482 60.7774 57.0104 63.196 57.5406 65.6146C57.8237 62.2881 58.1158 58.9641 58.3989 55.6376H58.7596V64.109L59.1203 64.1243C59.4497 61.0724 59.7785 58.0205 60.1067 54.9687C60.4673 57.55 60.3934 60.1187 60.4944 62.6721C60.5791 64.7906 60.8749 66.8964 61.0786 69.0073C61.4032 65.785 60.1337 62.077 62.6078 59.4219C62.9775 61.2352 63.3291 63.0256 63.6898 64.8186C63.8449 64.783 64.0162 64.7474 64.1406 64.7118V52.1432C65.9565 55.3375 64.6582 59.0785 65.54 62.845C65.9006 57.4458 66.218 52.4662 66.5426 47.484L67.0836 47.5297V55.7469L67.6462 55.7291V44.8085H68.2106V57.3924H68.6615C68.73 55.9453 68.7949 54.4982 68.8634 53.0511C69.3539 54.6508 69.2854 56.2505 69.3683 57.8349C69.4892 60.1238 69.7128 62.4127 69.9093 64.7016V46.5506L70.6974 46.5379C70.8176 55.4087 70.9378 64.2803 71.058 73.1527C71.132 74.0403 71.2077 74.933 71.2816 75.8155L71.608 75.8282L71.7884 73.2316C71.9236 64.5846 71.1608 55.8843 72.7225 47.3187C72.8704 48.6551 72.9308 50.0078 72.9028 51.3599C72.9028 57.7306 72.892 64.1014 72.919 70.4696C72.919 71.6726 73.0813 72.873 73.1697 74.076C73.2861 73.9164 73.3951 73.7465 73.4961 73.5673C73.5402 73.4434 73.5701 73.3103 73.5844 73.1731C73.7371 68.714 73.8898 64.2548 74.0425 59.7957H74.4753C74.8107 63.1392 75.1443 66.4827 75.4761 69.8262L75.9972 69.7627V52.0796C76.6861 55.6147 77.2974 58.636 77.8384 61.3649C78.7707 57.0084 79.7409 52.4636 80.7128 47.9189C81.355 49.2281 81.7094 50.7753 81.7317 52.367C81.7984 55.8308 81.7064 59.2998 81.793 62.7612C81.8435 64.783 82.1356 66.7922 82.3232 68.8064V39.9484H82.7812C83.0968 46.6142 83.3979 53.2774 83.7135 59.9432H84.1391V46.6472H84.7847C84.9614 52.6781 85.1417 58.7073 85.3256 64.7347C85.8089 61.4463 86.2958 58.1554 86.817 54.6126C87.0893 61.0114 87.3471 67.1177 87.6068 73.224C87.6765 74.5803 87.7475 75.9367 87.8196 77.2931L88.164 77.2499C88.2193 75.8935 88.2794 74.5371 88.3444 73.1807V43.1503C89.1594 48.4682 88.6437 53.8547 89.8717 59.226C90.8563 63.5495 90.5083 68.4631 90.7517 73.1146L90.9194 73.1019H91.089C91.1304 68.6741 91.1268 64.2413 91.2458 59.8161C91.2765 58.6716 91.5254 56.7489 91.9672 56.5658C93.2836 56.0139 92.9482 54.7576 92.9626 53.6437C93.0004 50.7317 92.9752 47.8172 92.9752 44.9052L93.4062 44.9433L93.7668 46.6829L94.3619 46.6091V24.8238H95.2383V55.6553L95.9903 55.6325V30.8208L96.3942 30.7775C96.9569 36.098 97.5159 41.4209 98.0695 46.6396L98.8828 44.7449C99.2001 48.9107 99.4616 52.3746 99.7249 55.8207H99.9395C100.019 53.5623 100.098 51.3022 100.176 49.0404C101.799 57.0465 101.088 65.1721 101.18 73.2443L101.36 78.3663H101.721L101.901 73.2265C101.99 65.4264 102.093 57.6238 102.179 49.8288H103.057V68.3359H103.62V46.6625L104.294 46.6345C104.531 50.8054 104.752 54.9738 104.989 59.1421H105.375V40.0323H105.782C105.903 41.398 106.042 42.7612 106.163 44.1244L106.689 44.0735V32.629L106.904 32.6773C107.182 35.1468 107.445 37.6162 107.721 40.0857C107.946 40.0628 108.193 40.0374 108.381 40.0119V32.5781L109.006 32.5959V44.3075C109.445 42.9545 109.609 42.4942 109.794 41.9372L110.417 43.8522L110.943 41.9728L111.605 42.039C112.204 50.6249 111.637 59.282 111.913 67.8883C112.094 66.4285 112.402 64.9737 112.415 63.5139C112.471 57.311 112.438 51.1056 112.438 44.9026C114.494 52.5755 113.087 60.5943 113.901 69.2515C114.831 62.3441 113.329 55.9758 115.332 50.0831V83.1654L116.084 83.1502V46.7388L116.739 46.7236C116.979 51.32 117.226 55.9148 117.48 60.5078C118.948 56.9905 117.462 52.985 119.592 48.8344V61.5683C120.091 58.2621 120.034 54.956 120.174 51.6701C120.309 48.5216 119.465 45.1696 121.281 42.2602V51.693C123.036 45.2002 123.139 38.4505 123.105 31.6779L123.725 31.7134V44.8543C124.226 43.4682 124.489 42.8477 124.949 41.6371C125.196 42.8248 125.378 43.3157 125.389 43.8141C125.595 53.6191 125.787 63.4258 125.966 73.2341C126.206 72.9646 126.441 72.695 126.688 72.4229C126.801 63.7937 125.986 55.106 127.802 46.5532V64.9432H128.367V39.0328L129.182 38.9998C129.452 48.2215 129.741 57.4432 130.011 66.665L130.808 66.637V45.7418H131.075C131.311 46.9066 131.542 48.074 131.778 49.2413C132 49.2032 132.186 49.165 132.437 49.1294V36.5761H133.125V54.1803H133.6C133.674 52.7408 133.749 51.2997 133.823 49.8568H134.316V57.4865L134.88 57.4687V30.0527H135.623C135.76 38.3004 135.89 46.5506 136.068 54.7983C136.103 56.4132 136.382 58.0155 136.57 59.6304V43.2343H137.039C137.632 47.9774 138.222 52.7205 138.862 57.8349C138.966 55.0094 139.069 52.4814 139.163 49.9509L139.704 49.9865V66.6319H140.205V39.0888L140.665 39.0507C141.128 43.2792 141.591 47.5077 142.053 51.7362L142.465 51.6422C142.528 50.8207 142.589 49.9992 142.645 49.1803C142.842 46.927 143.025 44.6763 143.222 42.423L143.763 42.4764V55.7291C144.827 46.632 143.449 37.3746 145.516 28.3767V39.0582C146.017 38.074 146.181 37.6925 146.65 36.7108C146.65 43.1656 146.619 48.9412 146.684 54.7169C146.701 56.1614 147.045 57.5984 147.245 59.0404C147.545 51.749 146.197 44.1269 149.627 36.7516C150.65 46.8126 151.591 56.2454 152.531 65.2789V45.7012H152.835C153.138 48.4987 153.439 51.2963 153.737 54.0938C155.266 53.0765 154.803 51.0826 154.915 49.3634C155.05 47.3059 155.207 45.251 155.347 43.1935C155.634 43.2215 155.906 43.252 156.22 43.28V62.2321L156.783 62.2092V33.4276C157.472 35.8106 157.684 38.2292 157.876 40.6453C157.951 41.571 158.045 42.4891 158.133 43.4123C158.25 43.2526 158.36 43.0827 158.462 42.9036C158.507 42.7814 158.539 42.6502 158.557 42.5145C158.941 38.5708 159.324 34.6254 159.708 30.6783L160.137 30.7343L160.332 34.2948H160.582C160.763 33.1834 160.957 32.072 161.14 30.9607L161.861 30.9988V54.8568H162.391C162.701 46.281 162.995 37.7053 163.305 29.1295L163.801 29.1422V63.2494C164.616 58.2978 163.981 53.1935 164.921 48.3003C166.402 55.1671 164.115 62.6289 167.309 69.9178V46.5201H167.873V52.5679L168.201 52.6035L169.249 47.2627L169.586 47.3288L169.813 53.9412H170.601C170.942 47.8765 171.281 41.8101 171.618 35.7419H172.006V45.1188C172.32 45.1518 172.58 45.1849 172.863 45.2205C173.05 42.0822 173.238 38.9455 173.425 35.8106L173.743 35.8538C174.042 41.6829 174.343 47.5111 174.644 53.3385H174.76C174.987 49.1727 175.229 45.0069 175.456 40.841L176.332 40.9123V55.7215L176.834 55.7012V44.6839L177.566 44.5923C177.915 49.7381 178.267 54.8831 178.619 60.0272L178.979 60.0068C179.293 53.9133 179.609 47.8189 179.926 41.7236C180.018 41.7236 180.085 41.7363 180.211 41.7414V73.2418C180.211 75.1924 180.211 77.1456 180.211 79.0912C180.46 77.1346 180.707 75.1797 180.952 73.2265C180.952 69.6278 180.886 66.0266 180.941 62.428C180.997 58.8293 180.651 55.1976 181.253 51.3624C182.034 52.2245 182.474 52.6951 183.351 53.6742V30.8716H183.915V43.2495L184.431 43.2775C184.932 39.6254 185.435 35.9742 185.938 32.3238C187.291 37.7078 186.643 43.2291 186.761 48.6691C186.878 54.1091 186.788 59.5007 186.788 64.9178H187.386C187.386 58.018 187.358 51.1208 187.41 44.2235C187.421 42.7485 187.727 41.2785 187.9 39.8085C188.14 39.8467 188.362 39.8874 188.611 39.9255V55.8003C189.677 47.4865 189.677 47.4865 190.928 45.5638V72.3695L191.209 72.4152L191.492 72.3821V39.0888L192.464 39.0405C192.995 46.7515 192.473 54.572 192.803 62.3034L193.435 62.2779V52.3593L193.873 52.3975V55.6427C195.496 55.9529 194.955 54.1956 195.021 53.1656C195.324 48.7276 195.577 44.282 195.865 39.4601C196.226 41.5201 196.507 43.1808 196.792 44.8441C197.312 40.7749 197.835 36.688 198.3 33.0384L199.775 44.9763C199.972 46.2098 200.293 47.4331 200.339 48.6767C200.43 51.0572 200.381 53.4504 200.381 55.8385H201.012V47.2881C201.075 47.2881 201.182 47.3009 201.268 47.3085C201.558 50.1061 201.827 52.8832 202.139 55.6681V30.0883H202.803C203.049 38.325 203.294 46.5642 203.537 54.8059H204.018V34.2821L204.296 34.3075C204.503 38.2071 204.709 42.111 204.914 46.0191H205.455L205.832 43.8777C206.305 46.0242 206.831 48.4123 207.356 50.8004L207.621 55.0221C208.286 48.1961 208.779 41.426 209.286 34.6534C209.298 34.4805 209.45 34.3279 209.635 33.9794C209.76 35.368 209.864 36.5023 209.967 37.6341L210.47 37.5858V15.8564C210.972 17.4917 210.937 19.1321 210.979 20.7674C211.159 28.0766 211.267 35.3909 211.599 42.6849C211.799 47.0592 212.36 51.4031 212.759 55.7622C213.058 51.5845 213.359 47.4077 213.66 43.2317C213.745 43.2317 213.855 43.2113 213.916 43.1986V50.8283L214.607 50.8436V37.5298L215.17 37.5654V56.5455C216.235 52.222 214.919 47.4687 216.793 42.5577V80.6629L217.545 80.6324V44.0964L217.891 44.0761C218.021 45.0044 218.154 45.9326 218.351 47.3415C218.625 46.1106 218.774 45.485 218.913 44.8619C219.079 44.9153 219.236 44.9662 219.424 45.0171V58.9259L219.633 58.8954C219.939 52.283 220.246 45.6706 220.552 39.0582L220.859 39.1015C220.985 39.7068 221.113 40.3121 221.24 40.9199L221.678 40.8945V28.8904C221.858 28.8701 222.001 28.8497 222.163 28.8294C222.484 29.7831 222.794 30.7394 223.113 31.6956L223.494 31.5939V16.7288C225.31 31.6041 224.053 46.599 225.178 61.4895C225.438 52.356 225.699 43.2233 225.962 34.0914C228.179 47.0339 227.351 60.1645 227.419 73.2316C227.492 74.4184 227.564 75.6138 227.638 76.8176H227.962C228.036 75.6222 228.128 74.4295 228.191 73.2341V32.4764L228.732 32.4637C228.94 39.8679 229.146 47.2712 229.349 54.6737C230.633 56.782 229.504 60.2688 231.571 62.1024C232.014 62.4992 231.731 64.5236 231.783 65.7977C232.216 58.8446 232.203 51.9321 232.223 45.0196C232.213 43.2221 232.268 41.425 232.389 39.6356C233.111 30.2078 233.922 20.7954 234.553 11.3549C234.786 7.87069 234.602 4.33054 234.602 0.815796H235.211V18.4378L235.529 18.4556C235.7 17.7919 235.864 17.1255 236.035 16.4617L236.42 16.538L237.166 49.015L237.653 49.0023V31.5965L237.833 31.6346C238.598 38.5301 239.364 45.4257 240.133 52.3212C240.282 52.3034 240.399 52.2881 240.589 52.2703V36.627H241.09V69.1141H241.427C241.73 58.28 242.031 47.4458 242.329 36.6117L242.888 36.6295V51.4082C245.456 47.7612 244.43 43.6869 244.565 39.9636C244.706 36.0776 244.59 32.1738 244.59 28.2775H245.214V45.0628L245.658 45.0806C246.018 40.3604 246.379 35.6418 246.74 30.925C247.023 30.9581 247.281 30.9912 247.598 31.0242V49.0811L248.226 49.0582V21.5914H248.503C248.729 25.8148 248.957 30.0409 249.185 34.2694L249.816 34.2084C249.886 32.7587 249.957 31.3091 250.031 29.8594H250.428C250.487 31.5964 250.552 33.336 250.608 35.073H251.102V27.3976L251.342 27.4154C252.02 35.2502 252.699 43.0859 253.38 50.9224L254.101 50.8283V43.9184H254.665V63.7733C254.846 60.9249 255.143 58.079 255.181 55.2281C255.26 49.2591 255.21 43.2749 255.21 37.3162H255.644L256.602 56.5607L256.887 56.5429C256.964 54.8059 257.047 53.0663 257.125 51.3293L257.666 51.3446V64.0607L258.306 64.0429C258.522 58.4852 258.738 52.9273 258.952 47.3695H259.247C259.316 48.8141 259.384 50.2595 259.451 51.7058H259.742L260.677 28.0309C262.789 37.6315 262.097 47.5527 262.363 57.3517L262.989 57.3161V16.7033C263.554 20.714 263.105 24.8416 263.613 28.7022C264.695 36.9855 263.575 45.3832 265.032 53.7479C266.057 59.6253 265.189 66.1589 265.168 72.3974C265.238 72.65 265.242 72.9296 265.178 73.1858C265.247 75.1517 265.332 77.1176 265.4 79.0836L265.871 79.0606V75.3857C265.871 62.9341 265.871 50.4825 265.871 38.0308C265.871 36.9398 265.84 34.9484 266.037 34.8925C268.679 34.1651 267.507 31.2658 267.562 29.3762C267.723 24.0177 267.616 18.6438 267.616 13.2776L268.194 13.2623V17.6087C268.194 31.1726 268.194 44.7314 268.194 58.285C268.194 62.7128 268.194 67.1406 268.23 71.5683C268.23 72.2245 268.518 72.8755 268.671 73.5291C268.733 73.4249 268.807 73.318 268.868 73.2112C268.419 65.284 269.382 57.6162 271.322 50.0679V56.4514L271.539 56.4183C271.834 44.3244 272.125 32.2314 272.41 20.1392L272.951 20.1596V62.5017H273.515V14.1805C274.195 19.053 274.575 23.9993 274.651 28.9642C274.77 36.4489 274.651 43.9413 274.707 51.4311C274.718 52.8756 275.068 54.3151 275.277 55.7546C275.656 51.2251 274.195 46.2531 277.147 41.838V50.5028C277.327 49.0302 277.598 47.5577 277.614 46.0801C277.673 40.9555 277.554 35.8233 277.666 30.6987C277.762 26.304 278.07 21.9169 278.29 17.5273L278.901 17.5655V64.8237H279.401V60.3069C279.401 46.5887 279.387 32.8681 279.435 19.1499C279.435 17.2018 279.796 15.2562 279.976 13.3005L280.58 13.3793V17.4714C280.58 28.0029 280.517 38.5369 280.638 49.0659C280.665 51.2886 281.37 53.4987 281.763 55.7139C281.962 49.0659 282.161 42.417 282.36 35.7673L282.692 35.8207C282.958 38.7658 283.224 41.71 283.491 44.6533C283.769 40.847 284.047 37.0381 284.326 33.2266L284.558 33.158C284.659 34.3736 284.761 35.5902 284.863 36.8075H285.415L286.136 27.4663C286.497 31.8966 286.387 36.2989 286.517 40.691C286.647 45.0145 285.889 49.4601 287.271 54.0481C289.137 50.1671 287.631 45.9758 288.683 42.3161C288.863 43.8115 288.798 45.3044 288.883 46.7795C289.005 48.9184 289.243 51.0419 289.424 53.1731C289.629 42.1152 289.835 31.0581 290.042 20.0019C290.032 19.8637 290.036 19.7242 290.053 19.5874C290.21 18.9643 290.381 18.3462 290.547 17.7282L291.211 17.8656C291.211 22.6723 291.108 27.4866 291.243 32.2857C291.353 36.2099 290.502 40.274 292.385 44.0125C293.034 45.3019 292.938 47.4611 292.962 49.2311C293.032 54.3557 292.973 59.488 293.01 64.6152C293.01 65.5536 293.259 66.487 293.389 67.4127C293.652 67.3746 293.93 67.3389 294.186 67.3008V39.3075L294.812 39.3227V53.2596L295.241 53.2876C295.751 47.7756 296.261 42.2653 296.77 36.7567C296.911 36.7745 297.066 36.7897 297.192 36.8075V65.7596C298.132 56.9524 296.942 47.9697 298.884 39.2566V61.5963C299.064 61.6218 299.21 61.6498 299.372 61.6752C300.275 53.7217 301.177 45.7707 302.077 37.8223L302.788 37.8578C303.138 42.7179 303.509 47.5755 303.85 52.4356H304.2V38.2419H304.86C305.109 46.0419 305.35 53.8395 305.621 62.3237C305.969 58.5419 306.25 55.457 306.533 52.372L306.714 50.6834L307.022 50.7546C307.111 52.4026 307.199 54.0506 307.285 55.6986L307.594 55.6553C308.043 47.9494 308.491 40.2426 308.937 32.5349C309.089 32.5476 309.269 32.5629 309.393 32.5781V72.4406C309.463 72.6962 309.499 72.9679 309.498 73.2418L309.79 73.2545L310.082 73.229V32.7307H310.964C311.113 43.6802 311.26 54.6296 311.406 65.579L311.667 65.5536C311.869 62.1626 312.071 58.7784 312.271 55.401L312.85 55.3324C313.211 56.3802 313.576 57.4271 313.945 58.4732L314.455 58.458C314.638 52.8629 314.818 47.2678 314.996 41.6727H315.404V59.8339C315.584 58.397 315.869 56.9677 315.961 55.5104C316.273 50.6783 316.522 45.8156 316.792 40.9657L317.054 40.9937L317.775 57.3262C318.08 56.4972 318.386 55.6681 318.965 54.0989C318.965 56.6828 318.864 58.4529 319.016 60.1797C319.075 60.8588 319.701 61.4387 320.067 62.0643C320.384 56.9779 320.699 51.8914 321.01 46.805H321.612V68.0943H322.426V40.8818L322.949 40.8385C323.267 44.1701 323.589 47.5069 323.913 50.8487C324.148 50.4901 324.368 50.162 324.635 49.7576C324.918 54.8441 325.195 59.783 325.47 64.7143C326.791 65.0882 326.571 63.697 326.589 62.6797C326.654 59.2896 326.674 55.897 326.71 52.5069C326.722 52.369 326.744 52.2334 326.777 52.1025C326.828 51.9888 326.889 51.8838 326.957 51.7896C327.226 52.8069 327.706 53.8242 327.731 54.867C327.823 58.7022 327.767 62.5424 327.767 66.3802C328.826 58.7174 327.682 50.9199 329.559 43.3691V59.0023H330.187V46.8354L330.367 46.9092C330.897 53.1452 331.428 59.3803 331.96 65.6146L332.461 65.5587C332.757 62.0414 333.061 58.5241 333.363 55.0069H333.638V73.1986C333.638 74.2794 333.696 75.3603 333.729 76.4412C333.938 75.3578 334.143 74.2743 334.353 73.1935C334.301 72.9391 334.301 72.6696 334.353 72.4152C334.329 65.752 333.862 59.0506 335.186 52.194C335.415 53.2113 335.579 53.9158 335.727 54.6152C335.86 54.5821 336.01 54.5516 336.134 54.5185V45.0781L336.74 45.0196C336.902 47.1432 337.101 49.2617 337.216 51.3777C337.442 55.6071 337.618 59.839 337.817 64.0709C338.423 62.2906 339.027 60.5383 339.954 57.8374C340.094 61.5455 340.201 64.371 340.314 67.1991C341.295 61.7057 339.615 55.7545 342.32 50.7622C342.989 55.1874 343.663 59.6355 344.483 65.0042C344.938 61.815 345.257 59.6635 345.565 57.5323C345.784 57.5653 345.982 57.5984 346.233 57.634V68.8445C346.233 68.8293 346.294 68.814 346.334 68.7988C346.79 62.8086 347.244 56.8184 347.695 50.8283H348.526C348.903 55.7622 349.278 60.6884 349.652 65.607C350.312 65.5282 350.651 65.5765 350.676 65.4722C351.098 63.7276 351.48 61.9677 352.052 59.3965C352.413 61.4082 352.651 62.6467 352.995 64.5617C353.415 57.3542 353.372 57.3543 355.814 57.4865V66.2199L356.331 66.2428C356.638 64.315 356.937 62.3847 357.245 60.457C357.552 59.2413 357.855 58.0231 358.237 56.5099C358.546 59.0811 358.793 61.1716 359.065 63.4504L360.805 60.6528C360.854 59.8898 360.897 59.1269 360.946 58.3486L361.389 58.3639V69.8084L361.95 69.8695C362.257 66.8405 362.569 63.8115 362.893 60.6096C363.084 61.0674 363.211 61.3954 363.362 61.7006C363.391 61.7565 363.528 61.7006 363.606 61.7006L364.125 58.903L364.559 58.9743C364.901 61.7616 365.241 64.5507 365.58 67.3415C366.076 64.3863 366.559 61.4336 367.055 58.4783H367.463V66.8099C367.713 66.8379 367.881 66.8659 368.085 66.8939C368.758 64.3023 369.439 61.7082 370.115 59.104C372.782 61.3801 370.352 66.2555 372.51 69.0505C372.636 66.899 372.759 64.8568 372.871 62.812L373.576 62.8552L373.971 68.3512L376.441 59.928L378.58 66.286C378.953 64.549 379.166 63.5623 379.545 61.8125C379.684 64.2922 379.772 65.8511 379.905 68.3257C380.25 66.7362 380.387 66.1004 380.526 65.4544L381.766 66.4412C382.039 65.1009 382.268 63.9794 382.591 62.3898L384.852 64.8186C384.958 64.4066 385.13 63.7327 385.393 62.6848C386.475 64.2871 387.366 65.6172 388.186 66.8405L389.905 63.135C390.085 63.1782 390.242 63.2215 390.429 63.2647V69.6228L390.79 69.5694C390.904 67.8425 391.017 66.1182 391.151 64.1014C393.05 66.5607 394.216 68.9997 393.937 72.3669L394.162 72.3898L394.389 72.372L395.583 63.0383C397.36 62.99 397.987 63.931 398.404 65.8511C398.703 67.2219 399.749 68.2723 400.568 69.666L401.778 63.1325C404.542 65.106 406.006 67.7433 406.239 71.6523C406.944 68.9005 407.647 66.1462 408.387 63.2596C408.556 64.2769 408.7 65.1365 408.854 66.0572L409.793 65.2535L412.87 70.7392C413.411 68.107 413.833 66.0317 414.352 63.4936C415.073 64.9254 415.661 66.1385 416.289 67.3084C417.385 69.343 419.021 69.1879 419.794 66.9651C420.115 66.0419 420.335 65.0526 420.516 64.399L422.698 69.1599L426.111 68.5266C426.208 68.0612 426.371 67.2932 426.567 66.3598C427.126 67.5627 427.626 68.6487 428.324 70.1543C429.673 66.6319 431.458 68.374 433.117 68.7504C433.878 68.9284 434.725 70.2763 435.268 68.2418C435.342 67.9671 436.089 67.8044 436.446 67.9569C437.773 68.5292 439.068 69.254 440.523 69.9915L441.302 67.8806C443.646 68.1833 445.747 71.5073 448.335 68.9437C448.458 68.8359 448.597 68.7681 448.741 68.7452C448.885 68.7223 449.031 68.745 449.168 68.8115C451.896 70.7494 454.939 69.8287 457.685 69.8491C463.937 69.8796 470.187 71.7108 476.439 70.1899C476.73 70.1619 477.023 70.1833 477.31 70.2535C480.124 70.5451 482.939 70.8393 485.755 71.136C487.378 71.3115 489.001 71.5124 490.624 71.7006C492.925 71.6268 495.228 71.4793 497.529 71.4895C506.847 71.5285 516.164 71.6005 525.48 71.7057C526.331 71.7057 527.18 72.11 528.031 72.3262C529.129 72.0846 530.195 71.8456 531.328 71.6065V73.2697C530.293 73.5011 529.283 73.9666 528.244 73.9818Z" fill="url(#paint0_linear_75_537)"/>
<defs>
<linearGradient id="paint0_linear_75_537" x1="476.328" y1="89.6664" x2="70.3166" y2="91.7936" gradientUnits="userSpaceOnUse">
<stop offset="0.359222" stop-color="#514EB6"/>
<stop offset="0.595772" stop-color="white"/>
</linearGradient>
</defs>
</svg>
