<svg width="32" height="32" viewBox="0 0 32 32" fill="none" xmlns="http://www.w3.org/2000/svg">
<path d="M15.9993 2.66663C8.64735 2.66663 2.66602 8.64796 2.66602 16C2.66602 23.352 8.64735 29.3333 15.9993 29.3333C23.3513 29.3333 29.3327 23.352 29.3327 16C29.3327 8.64796 23.3513 2.66663 15.9993 2.66663ZM15.9993 26.6666C10.118 26.6666 5.33268 21.8813 5.33268 16C5.33268 10.1186 10.118 5.33329 15.9993 5.33329C21.8807 5.33329 26.666 10.1186 26.666 16C26.666 21.8813 21.8807 26.6666 15.9993 26.6666Z" fill="#9CA4AB"/>
<path d="M10.666 21.3333L17.3327 16L10.666 10.6666V21.3333ZM17.3327 16V21.3333H19.9993V10.6666H17.3327V16Z" fill="#9CA4AB"/>
</svg>
