<svg width="90" height="90" viewBox="0 0 90 90" fill="none" xmlns="http://www.w3.org/2000/svg">
<circle cx="45" cy="45" r="45" fill="#3478F5" fill-opacity="0.33"/>
<path d="M55.0785 68.8008H34.9347C34.1088 68.8008 33.4239 68.0304 33.4239 67.1015C33.4239 66.1725 34.1088 65.4021 34.9347 65.4021H55.0785C55.9044 65.4021 56.5893 66.1725 56.5893 67.1015C56.5893 68.0304 55.9044 68.8008 55.0785 68.8008ZM61.8267 31.4602L53.7692 37.9404C52.7016 38.8014 51.1706 38.2803 50.7073 36.8981L46.9001 25.4784C46.2555 23.5072 43.7778 23.5072 43.1332 25.4784L39.3059 36.8755C38.8426 38.2803 37.3318 38.8014 36.2642 37.9178L28.2066 31.4375C26.5951 30.1687 24.4599 31.9587 25.1246 34.0659L33.5045 60.4626C33.7865 61.3689 34.5519 61.958 35.398 61.958H54.5951C55.4411 61.958 56.2066 61.3463 56.4886 60.4626L64.8685 34.0659C65.5534 31.9587 63.4181 30.1687 61.8267 31.4602ZM50.0426 52.3737H39.9706C39.1447 52.3737 38.4598 51.6033 38.4598 50.6743C38.4598 49.7453 39.1447 48.9749 39.9706 48.9749H50.0426C50.8685 48.9749 51.5534 49.7453 51.5534 50.6743C51.5534 51.6033 50.8685 52.3737 50.0426 52.3737Z" fill="#3478F5" fill-opacity="0.41"/>
</svg>
