<svg width="32" height="32" viewBox="0 0 32 32" fill="none" xmlns="http://www.w3.org/2000/svg">
<g id="bx-skip-previous-circle 1">
<path id="Vector" d="M15.9993 2.66663C8.64735 2.66663 2.66602 8.64796 2.66602 16C2.66602 23.352 8.64735 29.3333 15.9993 29.3333C23.3513 29.3333 29.3327 23.352 29.3327 16C29.3327 8.64796 23.3513 2.66663 15.9993 2.66663ZM15.9993 26.6666C10.118 26.6666 5.33268 21.8813 5.33268 16C5.33268 10.1186 10.118 5.33329 15.9993 5.33329C21.8807 5.33329 26.666 10.1186 26.666 16C26.666 21.8813 21.8807 26.6666 15.9993 26.6666Z" fill="#9CA4AB"/>
<path id="Vector_2" d="M21.3333 21.3333V10.6666L14.6667 16L21.3333 21.3333ZM12 10.6666V21.3333H14.6667V10.6666H12Z" fill="#9CA4AB"/>
</g>
</svg>
