<svg width="90" height="90" viewBox="0 0 90 90" fill="none" xmlns="http://www.w3.org/2000/svg">
<circle cx="45" cy="45" r="45" fill="#D5EEEC"/>
<path d="M59.2401 38.6787C58.4601 38.6787 57.8401 39.2797 57.8401 40.0357V43.0984C57.8401 49.9606 52.0801 55.5434 45.0001 55.5434C37.9201 55.5434 32.1601 49.9606 32.1601 43.0984V40.0163C32.1601 39.2603 31.5401 38.6594 30.7601 38.6594C29.9801 38.6594 29.3601 39.2603 29.3601 40.0163V43.0791C29.3601 50.9686 35.6201 57.4624 43.6001 58.1603V62.2892C43.6001 63.0452 44.2201 63.6461 45.0001 63.6461C45.7801 63.6461 46.4001 63.0452 46.4001 62.2892V58.1603C54.3601 57.4818 60.6401 50.9686 60.6401 43.0791V40.0163C60.6313 39.6609 60.4804 39.3227 60.2191 39.0731C59.9579 38.8236 59.6069 38.6822 59.2401 38.6787Z" fill="#66BAB2"/>
<path d="M44.996 24.8769C40.116 24.8769 36.156 28.7151 36.156 33.4449V43.3698C36.156 48.0997 40.116 51.9378 44.996 51.9378C49.876 51.9378 53.836 48.0997 53.836 43.3698V33.4449C53.836 28.7151 49.876 24.8769 44.996 24.8769ZM47.616 38.3492C47.476 38.8532 47.016 39.1828 46.496 39.1828C46.396 39.1828 46.296 39.1634 46.196 39.144C45.416 38.9308 44.596 38.9308 43.816 39.144C43.176 39.3185 42.556 38.9502 42.396 38.3492C42.216 37.7483 42.596 37.128 43.216 36.9729C44.396 36.6628 45.636 36.6628 46.816 36.9729C47.416 37.128 47.776 37.7483 47.616 38.3492ZM48.676 34.5886C48.5935 34.8064 48.4435 34.9941 48.2465 35.126C48.0496 35.2579 47.8154 35.3275 47.576 35.3252C47.436 35.3252 47.316 35.3058 47.176 35.2671C45.776 34.7631 44.216 34.7631 42.816 35.2671C42.5241 35.3674 42.2033 35.3525 41.9227 35.2255C41.6421 35.0986 41.4242 34.8699 41.316 34.5886C41.096 34.0071 41.416 33.348 42.016 33.1542C43.941 32.4757 46.051 32.4757 47.976 33.1542C48.576 33.3674 48.896 34.0071 48.676 34.5886Z" fill="#66BAB2"/>
</svg>
