<svg width="90" height="90" viewBox="0 0 90 90" fill="none" xmlns="http://www.w3.org/2000/svg">
<circle cx="45" cy="45" r="45" fill="#ED10D7" fill-opacity="0.24"/>
<path d="M61.4375 42.2546H56.0188C51.575 42.2546 47.9563 39.1759 47.9563 35.3954V30.7855C47.9563 29.9081 47.1125 29.1903 46.0813 29.1903H38.1312C32.3562 29.1903 27.6875 32.3806 27.6875 38.0753V52.2083C27.6875 57.903 32.3562 61.0933 38.1312 61.0933H52.8688C58.6438 61.0933 63.3125 57.903 63.3125 52.2083V43.8497C63.3125 42.9724 62.4688 42.2546 61.4375 42.2546ZM44.6187 47.5824C44.3375 47.8217 43.9813 47.9333 43.625 47.9333C43.2688 47.9333 42.9125 47.8217 42.6313 47.5824L41.2812 46.4339V53.1175C41.2812 53.7716 40.6438 54.3139 39.875 54.3139C39.1062 54.3139 38.4688 53.7716 38.4688 53.1175V46.4339L37.1188 47.5824C36.575 48.045 35.675 48.045 35.1312 47.5824C34.8697 47.3572 34.7231 47.0535 34.7231 46.7369C34.7231 46.4204 34.8697 46.1167 35.1312 45.8915L38.8813 42.7012C39.0125 42.6055 39.1437 42.5258 39.2937 42.4619C39.3312 42.446 39.3875 42.43 39.425 42.4141C39.5375 42.3822 39.65 42.3662 39.7812 42.3503H39.9312C40.0812 42.3503 40.2313 42.3822 40.3813 42.43H40.4187C40.5688 42.4779 40.7188 42.5736 40.8313 42.6693C40.85 42.6853 40.8687 42.6853 40.8687 42.7012L44.6187 45.8915C45.1625 46.3541 45.1625 47.1198 44.6187 47.5824Z" fill="#CE10ED" fill-opacity="0.37"/>
<path d="M55.6812 40.0533C57.4624 40.0692 59.9374 40.0692 62.0562 40.0692C63.1249 40.0692 63.6874 39.0005 62.9374 38.3624C60.2374 36.0494 55.3999 31.8861 52.6249 29.5253C51.8562 28.8713 50.5249 29.3179 50.5249 30.2271V35.7942C50.5249 38.1231 52.8499 40.0533 55.6812 40.0533Z" fill="#ED1D10" fill-opacity="0.19"/>
</svg>
