<svg width="448" height="261" viewBox="0 0 448 261" fill="none" xmlns="http://www.w3.org/2000/svg">
<path d="M448 131.732H0V134.926H448V131.732Z" fill="white" fill-opacity="0.3"/>
<path d="M5.19245 94.5242H3.3125V175.329H5.19245V94.5242Z" fill="white" fill-opacity="0.3"/>
<path d="M2.63093 128.16H0.750977V141.691H2.63093V128.16Z" fill="white" fill-opacity="0.3"/>
<path d="M7.75398 108.053H5.87402V160.294H7.75398V108.053Z" fill="white" fill-opacity="0.3"/>
<path d="M10.3157 111.436H8.43579V155.221H10.3157V111.436Z" fill="white" fill-opacity="0.3"/>
<path d="M12.8775 77.9858H10.9976V237.718H12.8775V77.9858Z" fill="white" fill-opacity="0.3"/>
<path d="M15.439 60.8864H13.5591V239.035H15.439V60.8864Z" fill="white" fill-opacity="0.3"/>
<path d="M18.0006 89.4506H16.1206V175.329H18.0006V89.4506Z" fill="white" fill-opacity="0.3"/>
<path d="M20.5626 88.135H18.6826V167.062H20.5626V88.135Z" fill="white" fill-opacity="0.3"/>
<path d="M23.1239 70.2811H21.2439V248.429H23.1239V70.2811Z" fill="white" fill-opacity="0.3"/>
<path d="M25.6856 98.8453H23.8057V184.724H25.6856V98.8453Z" fill="white" fill-opacity="0.3"/>
<path d="M28.2486 76.1074H26.3687V189.799H28.2486V76.1074Z" fill="white" fill-opacity="0.3"/>
<path d="M30.8089 76.2955H28.929V189.987H30.8089V76.2955Z" fill="white" fill-opacity="0.3"/>
<path d="M33.3721 93.7716H31.4922V189.986H33.3721V93.7716Z" fill="white" fill-opacity="0.3"/>
<path d="M35.9337 107.491H34.0537V174.766H35.9337V107.491Z" fill="white" fill-opacity="0.3"/>
<path d="M38.4954 116.885H36.6155V150.9H38.4954V116.885Z" fill="white" fill-opacity="0.3"/>
<path d="M41.0567 119.328H39.1768V150.898H41.0567V119.328Z" fill="white" fill-opacity="0.3"/>
<path d="M43.6185 127.598H41.7385V141.127H43.6185V127.598Z" fill="white" fill-opacity="0.3"/>
<path d="M46.1802 122.524H44.3003V144.134H46.1802V122.524Z" fill="white" fill-opacity="0.3"/>
<path d="M48.7418 120.081H46.8618V144.511H48.7418V120.081Z" fill="white" fill-opacity="0.3"/>
<path d="M51.3035 126.094H49.4236V139.625H51.3035V126.094Z" fill="white" fill-opacity="0.3"/>
<path d="M63.1048 92.8324H61.2249V173.637H63.1048V92.8324Z" fill="white" fill-opacity="0.3"/>
<path d="M65.3233 106.362H63.4434V158.603H65.3233V106.362Z" fill="white" fill-opacity="0.3"/>
<path d="M67.5413 76.2955H65.6614V236.027H67.5413V76.2955Z" fill="white" fill-opacity="0.3"/>
<path d="M69.7598 59.1946H67.8799V237.343H69.7598V59.1946Z" fill="white" fill-opacity="0.3"/>
<path d="M71.9781 87.7587H70.0981V173.637H71.9781V87.7587Z" fill="white" fill-opacity="0.3"/>
<path d="M74.1966 86.4432H72.3167V165.37H74.1966V86.4432Z" fill="white" fill-opacity="0.3"/>
<path d="M76.4146 110.684H74.5347V156.724H76.4146V110.684Z" fill="white" fill-opacity="0.3"/>
<path d="M60.8863 127.033H59.0063V140.562H60.8863V127.033Z" fill="white" fill-opacity="0.3"/>
<path d="M78.6331 114.066H76.7532V152.778H78.6331V114.066Z" fill="white" fill-opacity="0.3"/>
<path d="M80.8497 111.061H78.9697V146.202H80.8497V111.061Z" fill="white" fill-opacity="0.3"/>
<path d="M83.0679 93.9597H81.188V187.919H83.0679V93.9597Z" fill="white" fill-opacity="0.3"/>
<path d="M85.2862 65.5837H83.4062V198.255H85.2862V65.5837Z" fill="white" fill-opacity="0.3"/>
<path d="M87.5042 97.7179H85.6243V198.255H87.5042V97.7179Z" fill="white" fill-opacity="0.3"/>
<path d="M89.7227 95.6516H87.8428V181.718H89.7227V95.6516Z" fill="white" fill-opacity="0.3"/>
<path d="M91.941 105.987H90.061V168.189H91.941V105.987Z" fill="white" fill-opacity="0.3"/>
<path d="M94.1595 117.262H92.2795V148.269H94.1595V117.262Z" fill="white" fill-opacity="0.3"/>
<path d="M96.3777 111.061H94.4978V154.47H96.3777V111.061Z" fill="white" fill-opacity="0.3"/>
<path d="M98.596 109.181H96.7161V159.355H98.596V109.181Z" fill="white" fill-opacity="0.3"/>
<path d="M100.814 99.0334H98.9343V171.195H100.814V99.0334Z" fill="white" fill-opacity="0.3"/>
<path d="M103.033 79.1147H101.153V191.303H103.033V79.1147Z" fill="white" fill-opacity="0.3"/>
<path d="M105.251 110.684H103.371V159.732H105.251V110.684Z" fill="white" fill-opacity="0.3"/>
<path d="M107.469 119.14H105.589V146.577H107.469V119.14Z" fill="white" fill-opacity="0.3"/>
<path d="M109.686 121.959H107.806V142.818H109.686V121.959Z" fill="white" fill-opacity="0.3"/>
<path d="M111.904 124.778H110.024V139.06H111.904V124.778Z" fill="white" fill-opacity="0.3"/>
<path d="M114.123 100.913H112.243V167.625H114.123V100.913Z" fill="white" fill-opacity="0.3"/>
<path d="M116.341 115.758H114.461V158.228H116.341V115.758Z" fill="white" fill-opacity="0.3"/>
<path d="M118.559 115.758H116.679V160.859H118.559V115.758Z" fill="white" fill-opacity="0.3"/>
<path d="M120.778 117.45H118.898V151.651H120.778V117.45Z" fill="white" fill-opacity="0.3"/>
<path d="M122.996 89.2621H121.116V194.685H122.996V89.2621Z" fill="white" fill-opacity="0.3"/>
<path d="M125.214 122.712H123.334V159.92H125.214V122.712Z" fill="white" fill-opacity="0.3"/>
<path d="M127.432 125.531H125.552V142.068H127.432V125.531Z" fill="white" fill-opacity="0.3"/>
<path d="M129.65 80.6169H127.771V189.61H129.65V80.6169Z" fill="white" fill-opacity="0.3"/>
<path d="M131.869 122.712H129.989V147.33H131.869V122.712Z" fill="white" fill-opacity="0.3"/>
<path d="M134.087 122.712H132.208V150.712H134.087V122.712Z" fill="white" fill-opacity="0.3"/>
<path d="M136.306 75.1685H134.426V205.021H136.306V75.1685Z" fill="white" fill-opacity="0.3"/>
<path d="M138.522 70.4692H136.644V193.181H138.522V70.4692Z" fill="white" fill-opacity="0.3"/>
<path d="M140.739 124.027H138.861V149.96H140.739V124.027Z" fill="white" fill-opacity="0.3"/>
<path d="M142.957 107.303H141.079V160.859H142.957V107.303Z" fill="white" fill-opacity="0.3"/>
<path d="M145.178 107.303H143.298V162.174H145.178V107.303Z" fill="white" fill-opacity="0.3"/>
<path d="M147.396 115.57H145.516V151.463H147.396V115.57Z" fill="white" fill-opacity="0.3"/>
<path d="M149.614 117.262H147.734V149.584H149.614V117.262Z" fill="white" fill-opacity="0.3"/>
<path d="M151.832 108.993H149.952V166.121H151.832V108.993Z" fill="white" fill-opacity="0.3"/>
<path d="M154.051 110.684H152.171V154.658H154.051V110.684Z" fill="white" fill-opacity="0.3"/>
<path d="M156.267 110.496H154.389V154.47H156.267V110.496Z" fill="white" fill-opacity="0.3"/>
<path d="M158.485 127.033H156.607V139.811H158.485V127.033Z" fill="white" fill-opacity="0.3"/>
<path d="M160.704 110.684H158.825V154.658H160.704V110.684Z" fill="white" fill-opacity="0.3"/>
<path d="M162.922 122.524H161.044V152.592H162.922V122.524Z" fill="white" fill-opacity="0.3"/>
<path d="M165.142 126.845H163.262V139.623H165.142V126.845Z" fill="white" fill-opacity="0.3"/>
<path d="M167.36 104.107H165.48V168.187H167.36V104.107Z" fill="white" fill-opacity="0.3"/>
<path d="M169.577 83.8124H167.697V189.611H169.577V83.8124Z" fill="white" fill-opacity="0.3"/>
<path d="M171.795 97.3416H169.916V148.08H171.795V97.3416Z" fill="white" fill-opacity="0.3"/>
<path d="M174.014 129.101H172.134V141.879H174.014V129.101Z" fill="white" fill-opacity="0.3"/>
<path d="M191.115 92.0813H189.235V172.886H191.115V92.0813Z" fill="white" fill-opacity="0.3"/>
<path d="M193.369 85.6906H191.49V202.2H193.369V85.6906Z" fill="white" fill-opacity="0.3"/>
<path d="M195.626 27.4368H193.746V256.51H195.626V27.4368Z" fill="white" fill-opacity="0.3"/>
<path d="M197.88 79.6777H196V221.745H197.88V79.6777Z" fill="white" fill-opacity="0.3"/>
<path d="M200.133 115.57H198.255V162.926H200.133V115.57Z" fill="white" fill-opacity="0.3"/>
<path d="M202.388 95.0872H200.51V183.222H202.388V95.0872Z" fill="white" fill-opacity="0.3"/>
<path d="M204.832 117.262H202.952V152.403H204.832V117.262Z" fill="white" fill-opacity="0.3"/>
<path d="M188.858 122.712H186.98V144.511H188.858V122.712Z" fill="white" fill-opacity="0.3"/>
<path d="M207.089 107.115H205.209V159.544H207.089V107.115Z" fill="white" fill-opacity="0.3"/>
<path d="M209.343 102.041H207.463V168.376H209.343V102.041Z" fill="white" fill-opacity="0.3"/>
<path d="M211.596 61.8257H209.718V208.214H211.596V61.8257Z" fill="white" fill-opacity="0.3"/>
<path d="M213.851 59.3827H211.973V213.476H213.851V59.3827Z" fill="white" fill-opacity="0.3"/>
<path d="M216.109 108.993H214.229V162.363H216.109V108.993Z" fill="white" fill-opacity="0.3"/>
<path d="M218.363 116.885H216.483V152.966H218.363V116.885Z" fill="white" fill-opacity="0.3"/>
<path d="M220.618 126.094H218.738V138.872H220.618V126.094Z" fill="white" fill-opacity="0.3"/>
<path d="M222.873 115.007H220.993V151.088H222.873V115.007Z" fill="white" fill-opacity="0.3"/>
<path d="M225.127 117.825H223.249V152.59H225.127V117.825Z" fill="white" fill-opacity="0.3"/>
<path d="M231.893 115.758H230.013V154.658H231.893V115.758Z" fill="white" fill-opacity="0.3"/>
<path d="M229.638 118.577H227.758V153.342H229.638V118.577Z" fill="white" fill-opacity="0.3"/>
<path d="M227.382 122.712H225.504V143.007H227.382V122.712Z" fill="white" fill-opacity="0.3"/>
<path d="M234.149 99.0334H232.269V174.388H234.149V99.0334Z" fill="white" fill-opacity="0.3"/>
<path d="M236.59 115.947H234.712V151.839H236.59V115.947Z" fill="white" fill-opacity="0.3"/>
<path d="M238.845 63.892H236.967V204.831H238.845V63.892Z" fill="white" fill-opacity="0.3"/>
<path d="M241.101 95.8397H239.221V167.062H241.101V95.8397Z" fill="white" fill-opacity="0.3"/>
<path d="M243.356 78.7385H241.476V181.907H243.356V78.7385Z" fill="white" fill-opacity="0.3"/>
<path d="M245.612 87.1942H243.732V190.174H245.612V87.1942Z" fill="white" fill-opacity="0.3"/>
<path d="M247.867 115.195H245.987V154.095H247.867V115.195Z" fill="white" fill-opacity="0.3"/>
<path d="M250.12 113.692H248.241V152.591H250.12V113.692Z" fill="white" fill-opacity="0.3"/>
<path d="M252.374 129.289H250.496V142.068H252.374V129.289Z" fill="white" fill-opacity="0.3"/>
<path d="M254.632 107.303H252.752V177.209H254.632V107.303Z" fill="white" fill-opacity="0.3"/>
<path d="M256.887 94.1479H255.007V194.685H256.887V94.1479Z" fill="white" fill-opacity="0.3"/>
<path d="M259.141 109.181H257.261V139.437H259.141V109.181Z" fill="white" fill-opacity="0.3"/>
<path d="M261.395 117.638H259.516V150.337H261.395V117.638Z" fill="white" fill-opacity="0.3"/>
<path d="M263.651 124.215H261.772V144.699H263.651V124.215Z" fill="white" fill-opacity="0.3"/>
<path d="M266.095 70.2811H264.215V198.441H266.095V70.2811Z" fill="white" fill-opacity="0.3"/>
<path d="M268.35 47.3555H266.47V214.98H268.35V47.3555Z" fill="white" fill-opacity="0.3"/>
<path d="M270.604 76.8585H268.724V180.215H270.604V76.8585Z" fill="white" fill-opacity="0.3"/>
<path d="M272.859 127.409H270.981V142.63H272.859V127.409Z" fill="white" fill-opacity="0.3"/>
<path d="M275.113 128.536H273.235V139.06H275.113V128.536Z" fill="white" fill-opacity="0.3"/>
<path d="M277.37 121.959H275.49V146.765H277.37V121.959Z" fill="white" fill-opacity="0.3"/>
<path d="M279.625 125.531H277.745V140.752H279.625V125.531Z" fill="white" fill-opacity="0.3"/>
<path d="M300.86 112.564H298.98V152.591H300.86V112.564Z" fill="white" fill-opacity="0.3"/>
<path d="M303.113 97.7179H301.235V172.322H303.113V97.7179Z" fill="white" fill-opacity="0.3"/>
<path d="M305.368 71.2222H303.49V192.054H305.368V71.2222Z" fill="white" fill-opacity="0.3"/>
<path d="M307.624 111.249H305.744V200.323H307.624V111.249Z" fill="white" fill-opacity="0.3"/>
<path d="M309.879 114.066H308V163.864H309.879V114.066Z" fill="white" fill-opacity="0.3"/>
<path d="M312.135 91.1405H310.255V173.825H312.135V91.1405Z" fill="white" fill-opacity="0.3"/>
<path d="M314.578 88.5095H312.698V191.489H314.578V88.5095Z" fill="white" fill-opacity="0.3"/>
<path d="M298.604 121.208H296.724V143.007H298.604V121.208Z" fill="white" fill-opacity="0.3"/>
<path d="M316.831 96.0261H314.952V172.51H316.831V96.0261Z" fill="white" fill-opacity="0.3"/>
<path d="M319.089 114.443H317.209V155.409H319.089V114.443Z" fill="white" fill-opacity="0.3"/>
<path d="M321.343 46.6044H319.463V211.786H321.343V46.6044Z" fill="white" fill-opacity="0.3"/>
<path d="M323.598 52.6172H321.718V203.141H323.598V52.6172Z" fill="white" fill-opacity="0.3"/>
<path d="M325.853 88.3217H323.973V183.973H325.853V88.3217Z" fill="white" fill-opacity="0.3"/>
<path d="M328.107 84.1885H326.229V186.604H328.107V84.1885Z" fill="white" fill-opacity="0.3"/>
<path d="M330.364 124.59H328.484V159.92H330.364V124.59Z" fill="white" fill-opacity="0.3"/>
<path d="M332.618 79.4895H330.738V169.503H332.618V79.4895Z" fill="white" fill-opacity="0.3"/>
<path d="M334.873 89.6368H332.993V201.637H334.873V89.6368Z" fill="white" fill-opacity="0.3"/>
<path d="M341.637 123.275H339.759V145.262H341.637V123.275Z" fill="white" fill-opacity="0.3"/>
<path d="M339.382 115.758H337.503V161.423H339.382V115.758Z" fill="white" fill-opacity="0.3"/>
<path d="M337.129 82.8732H335.249V217.236H337.129V82.8732Z" fill="white" fill-opacity="0.3"/>
<path d="M343.893 115.758H342.013V143.383H343.893V115.758Z" fill="white" fill-opacity="0.3"/>
<path d="M346.336 105.799H344.456V164.994H346.336V105.799Z" fill="white" fill-opacity="0.3"/>
<path d="M348.592 115.758H346.712V154.658H348.592V115.758Z" fill="white" fill-opacity="0.3"/>
<path d="M350.847 105.234H348.967V165.556H350.847V105.234Z" fill="white" fill-opacity="0.3"/>
<path d="M353.099 114.255H351.221V143.007H353.099V114.255Z" fill="white" fill-opacity="0.3"/>
<path d="M355.356 88.6976H353.476V173.073H355.356V88.6976Z" fill="white" fill-opacity="0.3"/>
<path d="M357.612 118.954H355.732V148.081H357.612V118.954Z" fill="white" fill-opacity="0.3"/>
<path d="M359.867 114.631H357.987V145.449H359.867V114.631Z" fill="white" fill-opacity="0.3"/>
<path d="M362.121 127.786H360.241V140.564H362.121V127.786Z" fill="white" fill-opacity="0.3"/>
<path d="M364.374 59.5709H362.496V221.745H364.374V59.5709Z" fill="white" fill-opacity="0.3"/>
<path d="M366.631 92.6443H364.752V185.1H366.631V92.6443Z" fill="white" fill-opacity="0.3"/>
<path d="M368.887 114.443H367.007V137.745H368.887V114.443Z" fill="white" fill-opacity="0.3"/>
<path d="M371.14 122.335H369.261V151.651H371.14V122.335Z" fill="white" fill-opacity="0.3"/>
<path d="M373.396 114.255H371.516V143.195H373.396V114.255Z" fill="white" fill-opacity="0.3"/>
<path d="M375.839 129.101H373.959V138.686H375.839V129.101Z" fill="white" fill-opacity="0.3"/>
<path d="M378.093 130.04H376.215V136.429H378.093V130.04Z" fill="white" fill-opacity="0.3"/>
<path d="M380.35 130.04H378.47V137.557H380.35V130.04Z" fill="white" fill-opacity="0.3"/>
<path d="M382.604 125.906H380.724V141.127H382.604V125.906Z" fill="white" fill-opacity="0.3"/>
<path d="M384.859 127.033H382.979V137.557H384.859V127.033Z" fill="white" fill-opacity="0.3"/>
<path d="M387.115 132.107H385.235V136.992H387.115V132.107Z" fill="white" fill-opacity="0.3"/>
<path d="M389.368 129.852H387.49V136.806H389.368V129.852Z" fill="white" fill-opacity="0.3"/>
<path d="M393.693 129.664H391.813V137.933H393.693V129.664Z" fill="white" fill-opacity="0.3"/>
<path d="M395.193 43.2207H393.315V215.166H395.193V43.2207Z" fill="white" fill-opacity="0.3"/>
<path d="M397.824 0H395.946V260.643H397.824V0Z" fill="white" fill-opacity="0.3"/>
<path d="M400.08 117.638H398.202V147.706H400.08V117.638Z" fill="white" fill-opacity="0.3"/>
<path d="M402.337 117.638H400.457V149.584H402.337V117.638Z" fill="white" fill-opacity="0.3"/>
<path d="M404.59 107.865H402.711V161.235H404.59V107.865Z" fill="white" fill-opacity="0.3"/>
<path d="M407.034 115.947H405.154V152.778H407.034V115.947Z" fill="white" fill-opacity="0.3"/>
<path d="M410.041 129.101H408.161V136.055H410.041V129.101Z" fill="white" fill-opacity="0.3"/>
<path d="M414.174 107.303H412.296V160.296H414.174V107.303Z" fill="white" fill-opacity="0.3"/>
<path d="M416.43 114.631H414.55V151.462H416.43V114.631Z" fill="white" fill-opacity="0.3"/>
<path d="M419.061 127.786H417.181V138.498H419.061V127.786Z" fill="white" fill-opacity="0.3"/>
<path d="M421.504 88.6976H419.624V183.408H421.504V88.6976Z" fill="white" fill-opacity="0.3"/>
<path d="M424.133 86.6313H422.255V190.927H424.133V86.6313Z" fill="white" fill-opacity="0.3"/>
<path d="M426.766 110.684H424.886V159.92H426.766V110.684Z" fill="white" fill-opacity="0.3"/>
<path d="M428.832 72.7256H426.952V198.255H428.832V72.7256Z" fill="white" fill-opacity="0.3"/>
<path d="M431.463 110.308H429.583V164.617H431.463V110.308Z" fill="white" fill-opacity="0.3"/>
<path d="M433.905 112.188H432.026V151.088H433.905V112.188Z" fill="white" fill-opacity="0.3"/>
<path d="M436.347 118.954H434.469V148.081H436.347V118.954Z" fill="white" fill-opacity="0.3"/>
<path d="M438.793 128.348H436.913V138.308H438.793V128.348Z" fill="white" fill-opacity="0.3"/>
</svg>
