<svg width="396" height="254" viewBox="0 0 396 254" fill="none" xmlns="http://www.w3.org/2000/svg">
<path d="M1.08207 121.627C0.485624 121.627 0 123.845 0 126.577C0 129.309 0.485624 131.528 1.08207 131.528C1.67852 131.528 2.16705 129.312 2.16705 126.577C2.16705 123.842 1.68136 121.627 1.08207 121.627Z" fill="white" fill-opacity="0.3"/>
<path d="M11.94 114.27C11.3435 114.27 10.8579 119.349 10.8579 125.614C10.8579 131.88 11.3435 136.958 11.94 136.958C12.5364 136.958 13.025 131.88 13.025 125.614C13.025 119.349 12.5393 114.27 11.94 114.27Z" fill="white" fill-opacity="0.3"/>
<path d="M22.9631 107.928C22.006 107.928 21.2278 116.063 21.2278 126.106C21.2278 136.149 22.006 144.283 22.9631 144.283C23.9203 144.283 24.6985 136.149 24.6985 126.106C24.6985 116.063 23.9203 107.928 22.9631 107.928Z" fill="white" fill-opacity="0.3"/>
<path d="M33.9037 169.018C35.5021 169.018 36.7979 149.696 36.7979 125.861C36.7979 102.026 35.5021 82.7043 33.9037 82.7043C32.3053 82.7043 31.0095 102.026 31.0095 125.861C31.0095 149.696 32.3053 169.018 33.9037 169.018Z" fill="white" fill-opacity="0.3"/>
<path d="M44.8414 50.2946C43.2452 50.2946 41.9473 84.4226 41.9473 126.52C41.9473 168.618 43.2452 202.746 44.8414 202.746C46.4376 202.746 47.7356 168.618 47.7356 126.52C47.7356 84.4226 46.4405 50.2946 44.8414 50.2946Z" fill="white" fill-opacity="0.3"/>
<path d="M55.7819 32.5858C53.825 32.5858 52.2373 74.4023 52.2373 125.986C52.2373 177.57 53.825 219.384 55.7819 219.384C57.7388 219.384 59.3293 177.568 59.3293 125.986C59.3293 74.4051 57.7416 32.5858 55.7819 32.5858Z" fill="white" fill-opacity="0.3"/>
<path d="M66.7222 27.2405C64.6517 27.2405 62.9731 71.4456 62.9731 125.978C62.9731 180.51 64.6517 224.715 66.7222 224.715C68.7927 224.715 70.4713 180.51 70.4713 125.978C70.4713 71.4456 68.7927 27.2405 66.7222 27.2405Z" fill="white" fill-opacity="0.3"/>
<path d="M77.6629 39.9278C75.848 39.9278 74.3767 78.6599 74.3767 126.444C74.3767 174.227 75.848 212.957 77.6629 212.957C79.4778 212.957 80.9462 174.225 80.9462 126.444C80.9462 78.6627 79.4778 39.9278 77.6629 39.9278Z" fill="white" fill-opacity="0.3"/>
<path d="M88.6033 36.2526C86.7884 36.2526 85.3171 76.5013 85.3171 126.154C85.3171 175.807 86.7884 216.053 88.6033 216.053C90.4182 216.053 91.8865 175.801 91.8865 126.154C91.8865 76.507 90.4153 36.2526 88.6033 36.2526Z" fill="white" fill-opacity="0.3"/>
<path d="M99.5411 44.6055C97.7291 44.6055 96.2578 81.1137 96.2578 126.151C96.2578 171.188 97.7291 207.696 99.5411 207.696C101.353 207.696 102.827 171.188 102.827 126.151C102.827 81.1137 101.356 44.6055 99.5411 44.6055Z" fill="white" fill-opacity="0.3"/>
<path d="M110.504 38.4367C108.689 38.4367 107.218 77.0238 107.218 124.623C107.218 172.222 108.689 210.807 110.504 210.807C112.319 210.807 113.787 172.211 113.787 124.609C113.787 77.0068 112.319 38.4367 110.504 38.4367Z" fill="white" fill-opacity="0.3"/>
<path d="M121.422 27.0758C119.607 27.0758 118.136 71.1134 118.136 125.438C118.136 179.763 119.607 223.798 121.422 223.798C123.237 223.798 124.708 179.76 124.708 125.438C124.708 71.1162 123.237 27.0758 121.422 27.0758Z" fill="white" fill-opacity="0.3"/>
<path d="M132.362 7.51804C130.548 7.51804 129.076 60.7096 129.076 126.33C129.076 191.95 130.548 245.136 132.362 245.136C134.177 245.136 135.646 191.945 135.646 126.33C135.646 60.7153 134.175 7.51804 132.362 7.51804Z" fill="white" fill-opacity="0.3"/>
<path d="M143.3 0C141.369 0 139.801 56.6765 139.801 126.591C139.801 196.506 141.369 253.183 143.3 253.183C145.231 253.183 146.802 196.506 146.802 126.591C146.802 56.6765 145.234 0 143.3 0Z" fill="white" fill-opacity="0.3"/>
<path d="M154.241 23.889C152.426 23.889 150.958 69.6165 150.958 126.006C150.958 182.396 152.426 228.118 154.241 228.118C156.056 228.118 157.527 182.39 157.527 126.006C157.527 69.6222 156.056 23.889 154.241 23.889Z" fill="white" fill-opacity="0.3"/>
<path d="M165.196 34.5825C163.381 34.5825 161.909 75.7656 161.909 126.554C161.909 177.343 163.381 218.526 165.196 218.526C167.01 218.526 168.482 177.343 168.482 126.554C168.482 75.7656 166.996 34.5825 165.196 34.5825Z" fill="white" fill-opacity="0.3"/>
<path d="M176.156 50.2832C174.344 50.2832 172.873 84.6925 172.873 127.134C172.873 169.575 174.344 203.984 176.156 203.984C177.968 203.984 179.442 169.578 179.442 127.134C179.442 84.6896 177.977 50.2832 176.156 50.2832Z" fill="white" fill-opacity="0.3"/>
<path d="M187.017 53.6262C185.384 53.6262 184.063 86.4534 184.063 126.949C184.063 167.445 185.384 200.269 187.017 200.269C188.65 200.269 189.971 167.442 189.971 126.949C189.971 86.4562 188.647 53.6262 187.017 53.6262Z" fill="white" fill-opacity="0.3"/>
<path d="M198 47.1107C196.188 47.1107 194.717 82.159 194.717 125.393C194.717 168.627 196.188 203.675 198 203.675C199.812 203.675 201.286 168.627 201.286 125.393C201.286 82.159 199.815 47.1107 198 47.1107Z" fill="white" fill-opacity="0.3"/>
<path d="M208.935 47.9457C207.304 47.9457 205.981 82.9457 205.981 126.12C205.981 169.294 207.31 204.305 208.935 204.305C210.559 204.305 211.889 169.305 211.889 126.131C211.889 82.9571 210.571 47.9457 208.935 47.9457Z" fill="white" fill-opacity="0.3"/>
<path d="M219.881 36.0849C218.066 36.0849 216.595 76.5097 216.595 126.378C216.595 176.247 218.066 216.672 219.881 216.672C221.696 216.672 223.164 176.244 223.164 126.378C223.164 76.5125 221.696 36.0849 219.881 36.0849Z" fill="white" fill-opacity="0.3"/>
<path d="M230.819 22.8865C229.007 22.8865 227.535 69.2445 227.535 126.432C227.535 183.62 229.007 229.975 230.819 229.975C232.631 229.975 234.105 183.617 234.105 126.432C234.105 69.2474 232.633 22.8865 230.819 22.8865Z" fill="white" fill-opacity="0.3"/>
<path d="M241.759 39.2603C240.129 39.2603 238.805 78.211 238.805 126.265C238.805 174.318 240.129 213.266 241.759 213.266C243.39 213.266 244.713 174.313 244.713 126.265C244.713 78.2167 243.392 39.2603 241.759 39.2603Z" fill="white" fill-opacity="0.3"/>
<path d="M252.699 32.0746C251.069 32.0746 249.746 74.3682 249.746 126.54C249.746 178.712 251.069 221.003 252.699 221.003C254.33 221.003 255.653 178.709 255.653 126.54C255.653 74.3711 254.333 32.0746 252.699 32.0746Z" fill="white" fill-opacity="0.3"/>
<path d="M263.694 39.6835C262.064 39.6835 260.74 78.1656 260.74 125.64C260.74 173.114 262.064 211.596 263.694 211.596C265.325 211.596 266.648 173.111 266.648 125.64C266.648 78.1684 265.325 39.6835 263.694 39.6835Z" fill="white" fill-opacity="0.3"/>
<path d="M274.581 47.7014C272.948 47.7014 271.627 82.6872 271.627 125.844C271.627 169.001 272.948 203.984 274.581 203.984C276.214 203.984 277.535 168.999 277.535 125.844C277.535 82.69 276.211 47.7014 274.581 47.7014Z" fill="white" fill-opacity="0.3"/>
<path d="M285.518 52.7115C283.888 52.7115 282.567 85.6751 282.567 126.338C282.567 167.002 283.888 199.963 285.518 199.963C287.149 199.963 288.472 166.999 288.472 126.338C288.472 85.6779 287.152 52.7115 285.518 52.7115Z" fill="white" fill-opacity="0.3"/>
<path d="M296.459 56.2221C294.829 56.2221 293.505 87.774 293.505 126.699C293.505 165.624 294.829 197.176 296.459 197.176C298.089 197.176 299.413 165.622 299.413 126.699C299.413 87.7769 298.092 56.2221 296.459 56.2221Z" fill="white" fill-opacity="0.3"/>
<path d="M307.399 46.3637C305.556 46.3637 304.062 82.0056 304.062 125.972C304.062 169.939 305.556 205.575 307.399 205.575C309.243 205.575 310.737 169.936 310.737 125.972C310.737 82.0084 309.243 46.3637 307.399 46.3637Z" fill="white" fill-opacity="0.3"/>
<path d="M318.34 41.2286C316.497 41.2286 315.003 79.5914 315.003 126.912C315.003 174.233 316.497 212.593 318.34 212.593C320.183 212.593 321.675 174.233 321.675 126.912C321.675 79.5914 320.183 41.2286 318.34 41.2286Z" fill="white" fill-opacity="0.3"/>
<path d="M329.281 46.4886C327.437 46.4886 325.943 82.3265 325.943 126.534C325.943 170.742 327.437 206.577 329.281 206.577C331.124 206.577 332.615 170.742 332.615 126.534C332.615 82.3265 331.121 46.4886 329.281 46.4886Z" fill="white" fill-opacity="0.3"/>
<path d="M340.218 46.179C338.378 46.179 336.884 82.0112 336.884 126.214C336.884 170.416 338.378 206.245 340.218 206.245C342.059 206.245 343.561 170.413 343.561 126.214C343.561 82.0141 342.061 46.179 340.218 46.179Z" fill="white" fill-opacity="0.3"/>
<path d="M351.159 50.5133C349.315 50.5133 347.824 84.4397 347.824 126.29C347.824 168.141 349.315 202.067 351.159 202.067C353.002 202.067 354.496 168.141 354.496 126.29C354.496 84.4397 353.002 50.5133 351.159 50.5133Z" fill="white" fill-opacity="0.3"/>
<path d="M362.099 70.0057C360.469 70.0057 359.146 95.0224 359.146 125.878C359.146 156.735 360.469 181.751 362.099 181.751C363.73 181.751 365.053 156.737 365.053 125.878C365.053 95.0195 363.727 70.0057 362.099 70.0057Z" fill="white" fill-opacity="0.3"/>
<path d="M373.116 83.3121C371.483 83.3121 370.163 102.694 370.163 126.603C370.163 150.512 371.483 169.89 373.116 169.89C374.75 169.89 376.07 150.509 376.07 126.603C376.07 102.697 374.747 83.3121 373.116 83.3121Z" fill="white" fill-opacity="0.3"/>
<path d="M394.918 114.06C394.321 114.06 393.836 119.139 393.836 125.404C393.836 131.67 394.321 136.748 394.918 136.748C395.514 136.748 396 131.67 396 125.404C396 119.139 395.517 114.06 394.918 114.06Z" fill="white" fill-opacity="0.3"/>
<path d="M383.977 106.758C383.02 106.758 382.245 114.895 382.245 124.935C382.245 134.976 383.02 143.113 383.977 143.113C384.934 143.113 385.713 134.978 385.713 124.935C385.713 114.892 384.937 106.758 383.977 106.758Z" fill="white" fill-opacity="0.3"/>
</svg>
